<?xml version="1.0" encoding="UTF-8" standalone="no"?>
<!-- Created with Inkscape (http://www.inkscape.org/) -->

<svg
   width="133.05783mm"
   height="81.644615mm"
   viewBox="0 0 133.05783 81.644616"
   version="1.1"
   id="svg5"
   xml:space="preserve"
   inkscape:version="1.2.1 (9c6d41e410, 2022-07-14, custom)"
   sodipodi:docname="hax-hack-color.svg"
   xmlns:inkscape="http://www.inkscape.org/namespaces/inkscape"
   xmlns:sodipodi="http://sodipodi.sourceforge.net/DTD/sodipodi-0.dtd"
   xmlns="http://www.w3.org/2000/svg"
   xmlns:svg="http://www.w3.org/2000/svg"><sodipodi:namedview
     id="namedview7"
     pagecolor="#ffffff"
     bordercolor="#666666"
     borderopacity="1.0"
     inkscape:showpageshadow="2"
     inkscape:pageopacity="0.0"
     inkscape:pagecheckerboard="0"
     inkscape:deskcolor="#d1d1d1"
     inkscape:document-units="mm"
     showgrid="false"
     inkscape:zoom="1.4592172"
     inkscape:cx="268.97984"
     inkscape:cy="86.347668"
     inkscape:window-width="1920"
     inkscape:window-height="1004"
     inkscape:window-x="0"
     inkscape:window-y="0"
     inkscape:window-maximized="1"
     inkscape:current-layer="layer1" /><defs
     id="defs2" /><g
     inkscape:label="Livello 1"
     inkscape:groupmode="layer"
     id="layer1"
     transform="translate(-54.748159,-114.24535)"><g
       id="g271"
       transform="translate(0.66171773,-0.75965542)"><path
         style="fill:#fe0a0a;stroke-width:0.264583"
         d="m 54.677606,160.54928 c -0.722901,-0.84171 -0.770576,-1.42896 -0.210015,-2.58692 0.570632,-1.17877 2.001098,-2.34856 3.242781,-2.65186 0.941628,-0.23 2.146299,0.27139 2.574525,1.07154 0.387058,0.72322 0.23673,3.17647 -0.222804,3.63601 -0.409825,0.40982 -0.533852,0.21988 -0.805349,-1.23338 -0.297443,-1.59213 -0.577483,-1.88786 -1.39081,-1.46872 -0.860856,0.44363 -2.078926,1.61232 -2.078926,1.99465 0,0.17378 0.565546,0.45853 1.25677,0.63277 1.174625,0.29611 1.223201,0.3414 0.74318,0.69287 -0.734896,0.5381 -2.617744,0.48544 -3.109352,-0.087 z M 169.03911,137.21931 c -0.62006,-1.1586 -0.84902,-10.86743 -0.25628,-10.86743 0.3504,0 0.97194,1.34033 1.16981,2.52269 0.30631,1.83028 0.30668,1.83039 1.81619,0.54077 1.43498,-1.22594 2.02377,-1.48256 2.02059,-0.88064 -0.002,0.46264 -0.9304,1.82076 -1.57767,2.309 -0.53508,0.40362 -0.52818,0.42954 0.65159,2.44494 1.15093,1.96612 1.44888,2.85283 0.95862,2.85283 -0.44249,0 -2.19985,-2.1772 -2.79604,-3.46402 -0.59716,-1.28891 -0.59716,-1.28891 -0.74519,1.19237 -0.0818,1.3715 -0.32043,2.8103 -0.53347,3.2169 -0.38542,0.73561 -0.38542,0.73561 -0.70815,0.13259 z m -4.66954,-2.25039 c -1.00675,-0.43822 -2.59159,-1.98847 -3.16353,-3.09448 -0.54755,-1.05885 -0.54219,-2.91156 0.0109,-3.75563 0.66329,-1.01231 2.10336,-1.58429 3.62149,-1.43842 2.03403,0.19545 2.01743,0.67854 -0.0431,1.2525 -2.75196,0.76658 -2.80872,2.41614 -0.19116,5.55587 1.50092,1.80033 1.43638,2.20751 -0.2346,1.48016 z m -17.11793,-1.15224 c -0.7559,-0.83527 -1.28618,-2.48604 -1.43633,-4.47134 -0.14635,-1.93512 -0.14635,-1.93512 -1.3915,-1.93512 -1.24514,0 -1.24514,0 -1.48316,2.55959 -0.13091,1.40777 -0.36633,2.60148 -0.52316,2.65268 -0.75943,0.24795 -1.56305,-3.98681 -1.29037,-6.79977 0.21108,-2.17756 0.59469,-3.70417 0.9308,-3.70417 0.38513,0 0.777,1.20962 0.777,2.39847 0,1.04111 0,1.04111 1.52894,1.04111 1.52894,0 1.52894,0 1.82292,-1.86702 0.32532,-2.06603 0.47129,-2.35313 0.95203,-1.87249 0.22148,0.22143 0.37915,1.87331 0.49078,5.14173 0.0905,2.64852 0.25279,5.38104 0.36077,6.07226 0.21011,1.34514 -0.0148,1.58393 -0.73872,0.78407 z m 9.75946,-1.70504 c -0.66587,-0.7612 -1.53831,-2.01544 -1.93874,-2.7872 -0.72667,-1.40052 -0.7303,-1.40306 -1.89905,-1.32799 -1.17099,0.0752 -1.17099,0.0752 -1.47256,1.59188 -0.16586,0.83416 -0.38504,1.60012 -0.48707,1.70215 -0.44857,0.44858 -0.84203,-0.61289 -0.92788,-2.50322 -0.0716,-1.57569 0.0384,-2.42962 0.48411,-3.75851 0.67022,-1.99844 1.5304,-3.50744 1.87719,-3.29311 0.30374,0.18772 0.30316,2.04951 -0.001,3.35947 -0.22291,0.95992 -0.20699,0.99219 0.48966,0.99219 0.63291,0 0.70819,-0.0881 0.62199,-0.7276 -0.12146,-0.90115 0.48852,-3.03207 0.90796,-3.17188 0.18448,-0.0615 0.37501,0.30487 0.47114,0.90593 0.3729,2.33162 0.77685,3.55048 2.13742,6.44935 1.99987,4.26096 1.91784,5.0617 -0.26312,2.56854 z"
         id="path275" /><path
         style="fill:#0a0a0a;stroke-width:0.264583"
         d="m 93.536393,196.46646 c -0.08755,-0.21828 -0.403963,-2.30187 -0.703149,-4.6302 -1.032187,-8.03277 -2.087176,-13.11809 -4.791223,-23.09493 -0.879056,-3.24336 -1.55362,-6.10086 -1.499031,-6.35 0.165844,-0.75689 2.453995,4.30492 3.866256,8.55286 2.308905,6.94495 3.42315,12.92392 3.646921,19.56915 0.131781,3.91339 -0.130953,6.92256 -0.519774,5.95312 z m 33.850257,-1.85208 c -0.0911,-0.50932 -0.41044,-3.1287 -0.70956,-5.82083 -1.61474,-14.53327 -4.3289,-25.09901 -9.11921,-35.49948 -1.05037,-2.2805 -1.77562,-4.09333 -1.61167,-4.02852 1.28086,0.50633 5.79142,8.99207 7.58,14.26029 2.89189,8.51799 4.50388,18.20131 4.47062,26.85521 -0.0162,4.20832 -0.28318,6.06075 -0.61018,4.23333 z m 4.73265,-6.0095 c -0.69301,-0.16669 -1.15724,-0.6035 -0.64823,-0.60993 1.07082,-0.0135 5.85749,-0.82212 7.13052,-1.20453 3.30655,-0.99327 5.90024,-2.92433 7.24407,-5.3934 0.72053,-1.32384 0.72053,-1.32384 -0.34146,-2.8877 -1.9115,-2.8148 -3.91366,-4.19566 -7.36236,-5.07768 -2.00442,-0.51265 -2.00442,-0.51265 -2.86318,0.14236 -2.26441,1.72715 -3.16143,3.0048 -5.01094,7.13732 -0.89676,2.0037 -1.58103,3.05514 -1.98828,3.05514 -0.32643,0 1.47871,-6.16154 2.24709,-7.67003 1.08378,-2.12772 3.39441,-4.25603 6.01166,-5.53731 2.80379,-1.37259 4.81243,-1.87493 7.4768,-1.86985 2.21112,0.004 3.486,0.36096 2.24572,0.62842 -2.75722,0.59456 -5.51929,1.34926 -6.63495,1.81291 -1.32726,0.55158 -1.32726,0.55158 0.34564,0.97308 3.06251,0.77163 5.50231,2.71041 6.63598,5.27325 0.50859,1.14975 0.55043,1.18182 0.76945,0.58975 0.12739,-0.34437 0.52949,-2.23893 0.89356,-4.21014 0.67326,-3.64527 0.81061,-4.1107 1.01973,-3.45555 0.50076,1.56884 0.23583,6.5653 -0.47505,8.95908 -0.63751,2.14675 -2.0172,4.5464 -3.37354,5.86752 -1.54336,1.50328 -4.45887,2.97685 -6.6901,3.38135 -1.55615,0.28211 -5.6141,0.34081 -6.63213,0.0959 z M 84.709224,188.2215 c -0.621223,-0.77065 -1.909614,-3.64525 -2.589673,-5.77795 -0.876993,-2.75031 -1.180208,-6.84744 -0.667694,-9.02208 0.452136,-1.91846 1.33723,-3.59806 2.54005,-4.8201 0.969095,-0.98458 2.425001,-1.9182 2.646264,-1.69693 0.06068,0.0607 -0.311449,0.6627 -0.826947,1.33783 -2.339956,3.06454 -3.077768,6.07524 -2.563336,10.45986 0.423262,3.60753 0.603361,3.93993 1.022202,1.88661 0.444831,-2.18073 1.368658,-4.03549 2.832028,-5.68582 1.918505,-2.16361 1.929585,-1.46327 0.04736,2.99353 -0.868336,2.05607 -1.404488,4.50464 -1.63294,7.45751 -0.210029,2.71475 -0.396518,3.37715 -0.807315,2.86754 z M 69.892686,163.39814 c -1.336928,-0.11798 -3.420522,-0.41286 -4.630208,-0.65529 -2.1622,-0.43331 -5.198427,-1.59787 -4.912199,-1.8841 0.08026,-0.0803 1.02113,-0.0118 2.090811,0.1522 1.069681,0.16397 4.644071,0.36639 7.943088,0.44983 6.718122,0.1699 10.775486,-0.11254 16.340388,-1.13749 1.954252,-0.35994 3.740189,-0.60819 3.96875,-0.55168 0.592748,0.14655 -2.764589,1.6649 -5.064353,2.29033 -4.374864,1.18977 -11.010629,1.75323 -15.736277,1.3362 z m 54.529654,-3.40528 c 0.0767,-0.12412 1.51551,-1.26958 3.19732,-2.54545 4.49717,-3.41171 5.87012,-5.24086 6.63211,-8.83585 0.5001,-2.3594 0.49222,-2.38419 -0.37664,-1.18476 -2.47714,3.4196 -9.2162,6.97092 -13.22816,6.97092 -1.34124,0 -0.9013,-0.31535 2.90086,-2.0793 3.92779,-1.82223 5.90954,-3.05643 7.84136,-4.88346 1.64604,-1.55676 2.48383,-2.86734 3.24241,-5.0722 0.48668,-1.41456 0.53075,-2.23068 0.53459,-9.90074 0.004,-7.75169 0.28365,-13.90463 0.67908,-14.93509 0.12428,-0.32389 0.34046,-0.38354 0.86567,-0.23884 0.38501,0.10607 1.83112,0.18186 3.21356,0.16843 2.03273,-0.0198 3.34641,-0.23734 6.8675,-1.1375 8.62676,-2.20542 11.2506,-1.80302 16.28354,2.49728 1.30969,1.11904 2.8575,2.25769 3.43959,2.53033 2.17608,1.01926 4.04899,0.52101 7.01146,-1.86524 2.74972,-2.2149 3.76202,-2.71037 5.84149,-2.85916 3.71416,-0.26574 6.61451,1.85487 7.26273,5.31019 0.24609,1.31177 -0.0164,1.23628 -0.69092,-0.19868 -1.18257,-2.51582 -3.80489,-4.08494 -6.26357,-3.74794 -1.55481,0.21311 -2.47784,0.73729 -5.0914,2.8914 -2.78808,2.29794 -3.88385,2.81549 -5.97701,2.82304 -2.12378,0.008 -4.03341,-0.95616 -6.85528,-3.45997 -4.0971,-3.63529 -6.39884,-4.07369 -13.64892,-2.59963 -4.98376,1.01328 -8.54005,1.15848 -10.55012,0.43075 -0.64917,-0.23503 -1.20277,-0.40283 -1.23023,-0.37289 -0.0275,0.0299 0.06,1.18552 0.19429,2.56797 0.13431,1.38244 0.33073,5.78776 0.43647,9.78958 l 0.19226,7.27604 2.64583,-0.0208 c 2.17134,-0.0171 3.42876,-0.21646 7.01146,-1.11155 5.47041,-1.36672 7.20991,-1.54742 9.75233,-1.01306 2.28056,0.47933 3.50735,1.1508 5.85809,3.20637 4.91718,4.29976 6.37973,4.42989 10.93426,0.97287 3.03994,-2.30739 3.85801,-2.71921 5.74077,-2.88994 2.11626,-0.19189 3.99303,0.47592 5.45994,1.94283 0.64631,0.64631 1.14836,0.98147 1.14836,0.76662 0,-0.20996 -0.8754,-1.66534 -1.94532,-3.23418 -2.54645,-3.73388 -3.11404,-4.89199 -3.26886,-6.66975 -0.10965,-1.25908 -0.017,-1.68684 0.63438,-2.92957 0.98358,-1.87643 2.80677,-3.18225 4.41126,-3.15944 0.95011,0.0135 1.02925,0.0572 0.59966,0.33073 -1.80779,1.1512 -2.21275,1.49729 -2.90574,2.48329 -0.5128,0.72963 -0.81397,1.53289 -0.89135,2.37734 -0.13285,1.44986 0.33298,2.49591 2.89866,6.50918 1.73629,2.71591 2.17202,4.2624 1.78135,6.32238 -0.37033,1.95272 -0.6418,2.07281 -1.30341,0.57661 -1.31199,-2.96698 -3.95298,-4.40354 -6.92411,-3.76634 -1.05426,0.22609 -1.88172,0.72327 -3.89339,2.33935 -3.33096,2.67593 -4.5006,3.26665 -6.52334,3.29459 -2.12075,0.0293 -3.80102,-0.82143 -6.88652,-3.48667 -2.68179,-2.31652 -3.65743,-2.86059 -5.86778,-3.2722 -1.88011,-0.35012 -3.56018,-0.19052 -8.67695,0.82426 -4.14898,0.82284 -6.97239,0.98932 -8.68991,0.51241 -0.55935,-0.15532 -1.04839,-0.24395 -1.08676,-0.19696 -0.0384,0.047 -0.2126,3.18106 -0.38717,6.9646 -0.17458,3.78354 -0.38348,7.2649 -0.46423,7.73636 -0.19104,1.11539 -0.61672,0.84329 -0.61672,-0.39423 0,-0.961 0,-0.961 -0.94314,0.61093 -1.2152,2.02539 -2.22109,3.0598 -4.36733,4.49117 -2.7794,1.85363 -6.51842,3.44982 -5.95836,2.54362 z m -61.227,-4.83072 c 6.824558,-3.71502 12.989031,-10.94054 17.508807,-20.52246 1.462519,-3.10054 3.234624,-8.22448 3.530856,-10.20928 0.237856,-1.59364 0.582129,-1.82579 0.790814,-0.53327 0.841859,5.21418 1.506558,7.14972 3.06484,8.92451 3.727043,4.24486 9.655148,1.23501 11.960943,-6.07288 0.22957,-0.72761 0.61117,-2.33495 0.84799,-3.57188 0.55709,-2.90965 0.65049,-3.21231 0.93677,-3.03538 0.13109,0.081 0.37209,0.6483 0.53556,1.26062 0.44329,1.66049 1.78858,4.20531 3.94538,7.4633 1.9131,2.88986 2.80168,4.56768 2.55154,4.81782 -0.22479,0.22479 -1.93759,-1.22673 -3.13265,-2.65478 -1.72134,-2.05692 -2.44319,-3.08519 -3.19009,-4.54429 -0.41541,-0.81152 -0.72168,-1.16949 -0.79229,-0.92604 -0.0633,0.21828 -0.30859,1.20227 -0.54509,2.18665 -1.250162,5.20359 -4.53136,8.57014 -8.639342,8.86406 -2.040564,0.146 -3.492412,-0.35753 -5.099568,-1.76863 -1.046885,-0.91918 -2.460247,-3.48715 -2.740007,-4.97839 -0.16265,-0.86701 -0.243512,-0.71831 -1.202946,2.21206 -3.04623,9.30399 -9.473153,18.10771 -16.122584,22.08501 -1.96709,1.17661 -4.363272,2.09274 -5.459093,2.08719 -0.601333,-0.003 -0.375073,-0.19923 1.25016,-1.08394 z m 25.1613,-4.50807 c -0.575561,-1.65105 -0.212347,-8.34656 0.490929,-9.04983 0.176668,-0.17667 0.409633,0.081 0.7,0.77424 0.746049,1.78115 0.192866,9.10882 -0.687646,9.10882 -0.117049,0 -0.343527,-0.37496 -0.503283,-0.83323 z m 9.497372,0.17177 c -0.588677,-1.5277 -0.303633,-8.08019 0.392938,-9.03281 0.307641,-0.42072 0.358037,-0.40829 0.664226,0.16382 0.803153,1.50071 0.527333,7.92175 -0.394182,9.17648 -0.334719,0.45575 -0.376314,0.43646 -0.662982,-0.30749 z m 17.618978,-3.66724 c 0.45708,-1.19114 3.35751,-2.13501 5.40151,-1.75779 0.65485,0.12086 1.21803,0.19275 1.25151,0.15976 0.0335,-0.033 -0.97854,-0.79298 -2.24896,-1.68888 -3.68537,-2.59895 -3.42609,-2.27152 -2.62762,-3.31837 0.37663,-0.49379 1.12393,-1.10619 1.66065,-1.36088 1.17543,-0.55778 0.93742,-0.78755 -1.27215,-1.2281 -0.83423,-0.16633 -1.63937,-0.45013 -1.7892,-0.63067 -0.48265,-0.58157 0.48161,-1.05991 2.13662,-1.05991 1.76381,0 2.7925,0.59226 3.3341,1.91959 0.33491,0.82076 0.33491,0.82076 -1.3663,1.77213 -0.93567,0.52326 -1.76645,1.05693 -1.84618,1.18594 -0.0797,0.12901 0.94135,1.22742 2.26908,2.44091 2.40176,2.19512 2.41018,2.20726 1.65469,2.38439 -0.41765,0.0979 -1.83092,0.43978 -3.14061,0.75969 -3.76102,0.91866 -3.60002,0.89877 -3.41714,0.42219 z m -1.42361,-11.48652 c 0.12137,-1.26313 0.12137,-1.26313 -1.38136,-1.01461 -2.60052,0.43009 -3.2452,-0.36993 -1.12727,-1.3989 1.67112,-0.81189 3.63312,-0.99925 4.9039,-0.46828 0.54465,0.22757 0.99027,0.52848 0.99027,0.66871 0,0.46531 -2.68441,3.47622 -3.09927,3.47622 -0.32715,0 -0.38367,-0.2494 -0.28627,-1.26314 z"
         id="path273" /></g></g></svg>
