<?xml version="1.0" encoding="UTF-8" standalone="no"?>
<!-- Created with Inkscape (http://www.inkscape.org/) -->

<svg
   width="95.028648mm"
   height="126.59489mm"
   viewBox="0 0 95.028649 126.59489"
   version="1.1"
   id="svg5"
   xml:space="preserve"
   inkscape:version="1.2.1 (9c6d41e410, 2022-07-14, custom)"
   sodipodi:docname="hax-foss.svg"
   xmlns:inkscape="http://www.inkscape.org/namespaces/inkscape"
   xmlns:sodipodi="http://sodipodi.sourceforge.net/DTD/sodipodi-0.dtd"
   xmlns="http://www.w3.org/2000/svg"
   xmlns:svg="http://www.w3.org/2000/svg"><sodipodi:namedview
     id="namedview7"
     pagecolor="#ffffff"
     bordercolor="#666666"
     borderopacity="1.0"
     inkscape:showpageshadow="2"
     inkscape:pageopacity="0.0"
     inkscape:pagecheckerboard="0"
     inkscape:deskcolor="#d1d1d1"
     inkscape:document-units="mm"
     showgrid="false"
     inkscape:zoom="1.4592172"
     inkscape:cx="216.21182"
     inkscape:cy="235.05754"
     inkscape:window-width="1920"
     inkscape:window-height="1004"
     inkscape:window-x="0"
     inkscape:window-y="0"
     inkscape:window-maximized="1"
     inkscape:current-layer="layer1" /><defs
     id="defs2" /><g
     inkscape:label="Livello 1"
     inkscape:groupmode="layer"
     id="layer1"
     transform="translate(-178.00816,-58.025806)"><g
       id="g452"
       transform="translate(0.34342898,0.217754)"
       style="fill:#000000"><path
         style="fill:#000000;stroke-width:0.264583"
         d="m 182.60639,123.34259 c -0.0896,-0.0896 0.0718,-0.75861 0.3588,-1.48663 0.68075,-1.7271 0.381,-2.18549 -1.28023,-1.9578 -0.62998,0.0863 -1.39144,0.28867 -1.69214,0.4496 -0.53507,0.28636 -0.5292,0.3107 0.27525,1.14068 0.45209,0.46643 0.82198,0.9317 0.82198,1.03391 0,0.37076 -1.2107,0.17162 -2.04342,-0.33611 -2.3731,-1.44693 -0.38748,-4.23911 3.01531,-4.24014 2.61733,-7.9e-4 3.78929,1.93572 2.40155,3.96825 -0.65221,0.95525 -1.60066,1.68467 -1.8571,1.42824 z m 68.33366,-45.260454 c 0,-0.151283 0.61228,-1.572543 1.36064,-3.158356 1.46801,-3.110841 2.60871,-6.215914 2.60712,-7.096825 -0.003,-1.532804 -1.91076,-3.062512 -3.81985,-3.062512 -1.69046,0 -4.01523,1.448577 -4.82577,3.006963 -0.45689,0.878419 -0.62472,0.752267 -1.24575,-0.936373 -1.10071,-2.992896 -3.19208,-4.536367 -5.34779,-3.946759 -2.75711,0.754098 -4.44983,2.959706 -4.9934,6.506377 -0.15388,1.004078 -0.0938,1.125643 1.17214,2.371304 1.24737,1.227403 1.33433,1.39861 1.33433,2.627048 0,1.798968 -0.48777,3.071315 -1.17764,3.071897 -0.49634,4.24e-4 -0.54216,-0.160559 -0.54216,-1.904989 0,-1.905447 0,-1.905447 -1.5875,-3.19161 -0.87312,-0.70739 -2.41213,-1.788271 -3.42002,-2.401958 -2.27004,-1.382188 -2.56654,-1.919365 -0.91465,-1.657058 0.63782,0.101281 1.76954,0.462666 2.51493,0.803079 1.35526,0.618932 1.35526,0.618932 1.491,-1.072166 0.43658,-5.438845 5.82574,-8.927928 9.76419,-6.321587 0.9972,0.659914 2.16533,2.355982 2.46626,3.580867 0.16394,0.667327 0.16394,0.667327 1.3746,-0.460087 2.44187,-2.273979 5.63212,-2.456651 7.96907,-0.456306 1.27992,1.095567 1.76153,2.367923 1.55533,4.108986 -0.18091,1.527542 -1.56534,4.615673 -3.02859,6.755664 -1.12108,1.63957 -2.70649,3.299904 -2.70649,2.834401 z m -25.54018,-2.535923 c 1.30902,-5.794582 2.24142,-10.04709 2.36989,-10.80854 0.16074,-0.952812 0.16074,-0.952812 -2.42355,-1.133416 -3.0112,-0.210439 -5.31006,-0.527926 -8.80199,-1.215608 -1.38245,-0.272252 -3.43261,-0.577094 -4.55592,-0.677427 -2.43094,-0.21713 -2.30996,-0.366937 -2.99994,3.714679 -0.62599,3.703089 -1.9721,7.890449 -2.39923,7.463317 -0.16401,-0.164007 1.37869,-9.480564 1.82736,-11.035657 0.34338,-1.19016 0.34338,-1.19016 2.18503,-1.339615 2.94123,-0.238688 7.3339,0.200542 11.89582,1.189483 2.32834,0.50474 4.67982,0.988629 5.22552,1.075309 0.87507,0.138996 0.99219,0.24579 0.99219,0.904703 0,1.924393 -1.39688,8.311179 -2.41002,11.019032 -0.52916,1.414317 -1.16873,2.01049 -0.90516,0.84374 z m 11.25268,-9.065864 c 0,-0.386954 0.37396,-1.07341 0.89376,-1.64061 0.8117,-0.885718 1.02362,-0.976463 2.30796,-0.988302 1.65605,-0.01527 2.07035,0.566657 0.84296,1.184003 -0.40556,0.203988 -1.34503,0.762244 -2.08769,1.24057 -1.6213,1.044219 -1.95699,1.07927 -1.95699,0.204339 z"
         id="path456" /><path
         style="fill:#000000;stroke-width:0.264583"
         d="m 241.74024,174.50038 c 0.0167,-12.42285 -0.41949,-18.06465 -2.07697,-26.86477 -0.37588,-1.99565 -0.7371,-4.16424 -0.80272,-4.81909 -0.11657,-1.1634 -0.11003,-1.1755 0.28603,-0.52916 1.3131,2.14284 3.2587,10.05846 3.99951,16.27187 0.52392,4.39421 0.60747,14.47397 0.15462,18.65313 -0.3907,3.60557 -1.08904,7.40833 -1.36048,7.40833 -0.11747,0 -0.20747,-4.55414 -0.19999,-10.12031 z m -37.61912,8.50201 c -0.007,-0.23521 0.28367,-1.99846 0.64544,-3.91833 2.40914,-12.78503 2.96433,-24.09469 1.82302,-37.13639 -0.37734,-4.31179 1.10198,0.18581 1.92215,5.84394 0.55156,3.80509 0.61787,13.32544 0.12383,17.77908 -0.72888,6.57071 -2.42569,13.87322 -3.86611,16.63841 -0.3498,0.67153 -0.64155,1.02851 -0.64833,0.79329 z m 44.96685,-1.45055 c -1.79201,-0.33052 -1.98589,-0.40724 -1.58377,-0.62663 0.21623,-0.11797 1.16705,-0.29625 2.11293,-0.39618 6.19878,-0.6549 10.1672,-2.69083 12.28334,-6.30174 0.71526,-1.22051 0.71526,-1.22051 -0.18314,-2.62493 -1.82939,-2.8598 -4.75874,-4.86392 -8.05297,-5.50945 -1.64132,-0.32163 -1.64132,-0.32163 -2.74253,0.55054 -1.73635,1.37522 -2.98615,3.16029 -4.18467,5.97694 -1.09733,2.57884 -2.00575,4.02777 -2.32506,3.70846 -0.2703,-0.2703 1.20371,-5.47224 2.04725,-7.22495 1.86472,-3.87453 6.77827,-6.91818 12.32208,-7.63277 1.47458,-0.19007 3.80028,0.0588 3.80028,0.40668 0,0.11868 -0.6846,0.34846 -1.52135,0.51063 -2.24064,0.43426 -5.67684,1.51228 -6.28385,1.97142 -0.508,0.38424 -0.49517,0.40059 0.3208,0.40867 0.46749,0.005 1.53905,0.26588 2.38125,0.58057 1.82431,0.68165 4.55524,3.23694 5.1156,4.7866 0.19714,0.54518 0.43945,0.99124 0.53846,0.99124 0.23752,0 0.64391,-1.67336 1.15662,-4.7625 0.61234,-3.68942 0.66525,-3.87973 0.95244,-3.42579 0.38726,0.61215 0.28781,5.85946 -0.15057,7.94342 -1.08991,5.18126 -4.26341,8.71165 -9.12398,10.15004 -1.46022,0.43212 -5.64143,0.74802 -6.87916,0.51973 z m -6.33269,-39.69408 c -0.79084,-0.31891 -2.36814,-0.7992 -3.50511,-1.0673 -2.25951,-0.53282 -2.54927,-0.96927 -0.73093,-1.10094 1.68691,-0.12216 2.68517,0.1286 3.98368,1.00069 0.63185,0.42436 1.18915,0.73124 1.23843,0.68196 0.0493,-0.0493 -0.27721,-0.81624 -0.72552,-1.70434 -0.44832,-0.88811 -1.04504,-2.19805 -1.32605,-2.91097 -0.51092,-1.29623 -0.51092,-1.29623 0.33478,-1.64997 0.46513,-0.19456 1.41088,-0.35519 2.10165,-0.35695 0.69077,-0.002 1.25632,-0.0593 1.25677,-0.12783 5.3e-4,-0.0685 -0.66836,-0.80085 -1.48625,-1.62736 -0.88164,-0.89094 -1.40998,-1.62747 -1.29772,-1.8091 0.24284,-0.39293 1.58442,-0.12017 2.68066,0.54502 0.82192,0.49873 0.82192,0.49873 1.37459,-1.4176 1.72509,-5.98154 2.22696,-8.08318 2.70059,-11.30905 0.69097,-4.70616 0.67498,-4.91624 -0.24686,-3.24425 -1.15434,2.09366 -2.42784,3.70837 -4.56645,5.78993 -1.80271,1.75462 -3.77409,3.27516 -4.24624,3.27516 -0.49674,0 -0.0482,-0.67694 2.22357,-3.35597 4.05613,-4.7832 6.3027,-8.60397 7.50156,-12.75797 0.31906,-1.10551 0.68626,-1.98541 0.81601,-1.95534 0.32518,0.0754 0.55401,1.54663 0.77338,4.9724 0.21073,3.29093 -0.15702,7.56939 -0.93615,10.89127 -0.63339,2.70051 -2.65711,7.77903 -3.58416,8.99446 -0.61715,0.80913 -0.66246,1.00263 -0.38923,1.66227 0.17007,0.4106 0.27086,1.14762 0.22398,1.63782 -0.0853,0.89127 -0.0853,0.89127 -2.26807,0.96811 -1.54135,0.0543 -2.18281,0.17506 -2.18281,0.41104 0,0.1838 0.41779,1.57477 0.92842,3.09103 0.51062,1.51627 0.89758,2.82362 0.85989,2.90523 -0.0377,0.0816 -0.71557,-0.11255 -1.50641,-0.43145 z m -38.33613,-3.93824 c -6.73758,-1.74094 -14.60308,-6.04811 -19.12687,-10.47394 -1.56925,-1.53526 -2.51543,-2.80821 -2.26987,-3.05377 0.0836,-0.0836 0.84384,0.37237 1.68948,1.01319 6.82862,5.17473 14.96547,9.48169 22.83649,12.08773 2.58612,0.85624 2.7825,1.08388 0.92605,1.0734 -0.87313,-0.005 -2.69801,-0.2959 -4.05528,-0.64661 z m 17.35159,-6.41393 c -0.78774,-0.88584 -2.36844,-4.04607 -2.21881,-4.43598 0.19296,-0.50286 3.87994,-2.91686 4.81248,-3.15091 1.72261,-0.43235 0.70323,0.84821 -1.8759,2.35655 -0.94103,0.55033 -1.71096,1.02752 -1.71096,1.06041 0,0.0329 0.41672,0.85929 0.92604,1.83644 1.19411,2.29092 1.23306,3.6446 0.0671,2.33349 z m 19.64431,-1.48035 c 0,-0.34125 0.23812,-0.83595 0.52917,-1.09934 0.72337,-0.65465 0.67852,-0.7676 -0.46302,-1.16609 -1.38478,-0.4834 -2.18282,-1.02663 -2.18282,-1.48584 0,-0.47824 1.98031,-0.53589 3.53922,-0.10304 1.22766,0.34088 3.22832,2.10704 3.01538,2.66195 -0.13984,0.36442 -3.42664,1.81281 -4.11375,1.81281 -0.1783,0 -0.32418,-0.2792 -0.32418,-0.62045 z m -30.2951,-3.34879 c -0.2401,-0.3885 1.03632,-0.79326 2.50154,-0.79326 1.27615,0 1.27615,0 0.65051,-1.52135 -0.65083,-1.58262 -0.84618,-3.87513 -0.35601,-4.17807 0.1552,-0.0959 0.34047,-0.11612 0.41171,-0.0449 0.17114,0.17114 1.64256,6.11519 1.54233,6.23046 -0.42283,0.48624 -4.47735,0.74837 -4.75008,0.3071 z m 26.71395,-2.75902 c -0.69969,-1.6746 -1.2212,-4.71553 -1.25212,-7.30112 l -0.0301,-2.52001 -2.00006,2.01867 c -2.64282,2.66739 -4.78008,3.72974 -7.83355,3.89375 -1.78329,0.0958 -2.35262,0.0183 -3.50352,-0.47679 -3.31729,-1.42706 -4.90776,-5.11763 -3.95631,-9.1803 0.3843,-1.64094 0.3843,-1.64094 -1.76015,0.35614 -6.96602,6.48726 -17.77691,11.20667 -25.67144,11.20667 -2.06136,0 -5.05768,-0.56659 -5.53946,-1.04748 -0.12578,-0.12555 1.17089,-0.22775 2.91042,-0.22938 5.42348,-0.005 10.24566,-1.28635 16.66426,-4.42771 5.71416,-2.7966 11.49469,-6.93407 15.15608,-10.8481 0.90475,-0.96718 1.70607,-1.69743 1.78071,-1.62278 0.0746,0.0746 -0.31615,1.30739 -0.86844,2.73944 -0.91809,2.38055 -1.00485,2.8305 -1.01225,5.24955 -0.007,2.17978 0.0893,2.83226 0.54464,3.70417 1.23438,2.36351 3.91197,3.25956 7.13403,2.38739 2.89869,-0.78464 5.14696,-2.48242 8.76744,-6.62072 0.89118,-1.01865 1.67828,-1.79256 1.7491,-1.7198 0.0708,0.0728 -0.0493,0.96573 -0.26694,1.98438 -0.31616,1.47977 -0.3612,2.97764 -0.22404,7.45126 0.17881,5.83247 0.009,6.9107 -0.78826,5.00277 z m -42.67997,-5.84747 c -1.7559,-2.23226 -2.33488,-6.70967 -1.39134,-10.75957 0.61795,-2.65239 1.7738,-5.10741 2.40462,-5.10741 0.26808,0 0.89778,1.45303 2.0066,4.63021 1.97621,5.66259 2.0193,5.76775 3.16163,7.71685 1.56121,2.66381 1.08696,2.95646 -1.14961,0.70941 -1.80374,-1.81221 -3.96369,-6.90306 -4.0313,-9.5015 -0.0364,-1.39889 -0.49976,0.54034 -0.82239,3.44181 -0.2792,2.51096 -0.25954,3.2846 0.15486,6.09227 0.26107,1.76884 0.41635,3.27439 0.34507,3.34567 -0.0713,0.0713 -0.37645,-0.1842 -0.67814,-0.56774 z m 56.8739,-12.98707 c -4.30407,-0.6258 -12.4037,-1.40025 -21.7871,-2.08316 -13.87996,-1.01016 -31.0211,-2.59353 -37.47881,-3.462013 -1.16043,-0.156062 -1.16043,-0.156062 -1.01565,-2.317274 0.0796,-1.188665 0.51439,-4.182115 0.96614,-6.652112 0.82255,-4.497302 1.3039,-9.451136 1.3761,-14.162222 0.0385,-2.513541 0.0385,-2.513541 0.25523,-0.79375 0.6665,5.289533 0.11348,13.100875 -1.49308,21.089366 -0.21094,1.04889 -0.38353,1.954543 -0.38353,2.012558 0,0.05802 1.10133,0.187915 2.4474,0.288666 1.34607,0.10075 3.93568,0.294166 5.75469,0.42981 1.81901,0.135647 7.8912,0.490495 13.49375,0.788551 11.26762,0.59945 16.5316,1.01332 25.4,1.99702 5.40465,0.5995 14.22452,1.83196 14.99494,2.09535 0.43423,0.14846 2.25489,-7.494337 4.42668,-18.582432 l 1.12688,-5.753264 -3.72581,-0.05713 c -15.5251,-0.238051 -26.04329,-1.326623 -48.30235,-4.999012 -16.39241,-2.704488 -14.09729,-2.666515 8.50129,0.140655 23.34172,2.899482 28.89356,3.438736 39.84555,3.870233 2.51024,0.0989 4.56406,0.237677 4.56406,0.308392 0,1.165473 -3.3823,17.981709 -5.16387,25.673838 -0.15876,0.6855 -0.22328,0.68835 -3.80251,0.16793 z m -24.08691,-9.06514 c -1.06718,-0.298222 -0.95601,-0.79716 0.21949,-0.985131 1.91344,-0.305974 2.02439,-0.54977 1.06683,-2.344205 -0.4596,-0.861272 -1.00321,-2.040888 -1.20801,-2.621365 -0.75639,-2.143845 0.47946,-3.606773 3.04693,-3.606773 2.25068,0 2.48058,0.582255 0.46163,1.169177 -2.11967,0.616207 -2.15871,0.753288 -0.95138,3.341235 1.4539,3.11649 1.37468,4.400259 -0.30776,4.986758 -0.91833,0.320133 -1.35725,0.331505 -2.32773,0.0603 z m 5.7295,-0.05678 c -0.68437,-0.398423 -0.35986,-0.684318 1.00991,-0.889728 0.66511,-0.09974 1.27303,-0.347448 1.35094,-0.550465 0.0779,-0.203015 -0.29832,-1.093372 -0.83605,-1.97857 -1.30039,-2.14068 -1.4779,-3.435339 -0.59241,-4.320831 0.76429,-0.764286 2.6826,-1.153271 3.81914,-0.774425 1.09226,0.364088 0.84624,0.674047 -0.95638,1.204905 -0.88372,0.260252 -1.60677,0.596876 -1.60677,0.748051 0,0.151175 0.47625,1.178814 1.05833,2.283645 1.22896,2.332635 1.3012,3.024584 0.4089,3.916876 -0.51231,0.512312 -0.91732,0.647734 -1.91823,0.641387 -0.69783,-0.0044 -1.47965,-0.130805 -1.73738,-0.280845 z m -13.09359,-1.120076 c -1.36843,-0.759984 -2.03628,-2.555082 -1.63104,-4.384064 0.91766,-4.1417 5.12847,-5.773663 6.48992,-2.515264 0.47965,1.147966 0.46599,2.108319 -0.0516,3.627321 -0.48292,1.417272 -1.68707,2.564307 -2.69201,2.564307 -0.69065,0 -0.69065,0 0.003,-0.727604 0.38177,-0.400182 0.82076,-1.062776 0.97554,-1.472433 0.39656,-1.049583 0.34961,-2.897232 -0.0889,-3.496879 -0.33615,-0.459713 -0.43572,-0.471365 -1.08026,-0.126417 -0.81266,0.434924 -1.92155,2.199531 -1.99675,3.1775 -0.10299,1.33918 0.0221,1.82863 0.66179,2.588813 0.87118,1.035343 0.57892,1.414018 -0.59022,0.76472 z m -8.13304,-0.478764 c -0.0961,-0.383058 0.0819,-2.168853 0.39572,-3.968432 0.31378,-1.79958 0.70093,-4.071663 0.86032,-5.049073 0.28981,-1.777113 0.28981,-1.777113 1.89782,-1.612768 1.89778,0.193958 3.32853,0.637863 3.25091,1.008629 -0.0596,0.284565 -0.30012,0.288076 -2.63507,0.03846 -1.52136,-0.16264 -1.52136,-0.16264 -1.52136,1.25485 0,1.417489 0,1.417489 1.34268,1.546502 0.76628,0.07363 1.53296,0.322186 1.78593,0.579001 0.41488,0.421169 0.40938,0.475457 -0.0859,0.84768 -0.35481,0.266663 -0.98127,0.370303 -1.90134,0.314561 -1.37217,-0.08314 -1.37217,-0.08314 -1.92899,2.328402 -0.30624,1.326346 -0.72086,2.63589 -0.92136,2.910096 -0.34707,0.474639 -0.37295,0.465143 -0.53936,-0.197908 z M 261.2588,78.685326 c 0,-0.05612 1.32032,-0.919321 2.93405,-1.918229 3.99699,-2.474167 7.12011,-4.992869 7.12011,-5.742154 0,-0.319777 -0.27976,-0.996004 -0.62169,-1.502727 -0.34193,-0.506723 -0.85631,-1.554375 -1.14307,-2.328115 -0.28676,-0.77374 -0.61529,-1.409739 -0.73006,-1.413331 -0.11477,-0.0036 -1.0589,1.00199 -2.09807,2.234627 -1.03917,1.232638 -2.41794,2.681719 -3.06394,3.220181 -1.15443,0.96226 -3.43822,2.260115 -3.97703,2.260115 -0.15091,0 1.43709,-1.66766 3.52889,-3.705911 3.68556,-3.591216 5.62367,-5.306724 5.95854,-5.274167 0.0891,0.0087 0.78942,0.801358 1.55619,1.761539 1.00762,1.261794 1.5509,2.261933 1.95962,3.607574 0.56551,1.861791 0.56551,1.861791 -0.82839,3.143479 -0.76664,0.704929 -2.11012,1.768073 -2.98552,2.362544 -2.71605,1.844436 -7.60963,3.963102 -7.60963,3.294575 z m -68.65937,-7.741075 c -1.16549,-1.63171 -3.83132,-4.117276 -8.04695,-7.502798 -2.75528,-2.212734 -2.75528,-2.212734 -1.85303,-2.965966 0.49624,-0.414278 1.82063,-1.206353 2.94309,-1.760167 2.04085,-1.006935 2.04085,-1.006935 3.37996,0.64355 2.12103,2.614217 6.42001,5.870073 12.3832,9.37848 2.61482,1.538415 2.7818,1.912863 0.52147,1.169345 -5.46505,-1.797681 -10.41625,-5.255693 -13.05529,-9.118055 -1.26728,-1.854739 -1.26728,-1.854739 -2.21766,-0.926723 -0.71209,0.695341 -1.26342,0.970923 -2.19894,1.099151 -0.68671,0.09412 -1.24856,0.259344 -1.24856,0.367156 0,0.107812 1.1408,0.876799 2.53511,1.70886 4.0391,2.410343 7.25359,5.835812 8.0358,8.56322 0.3462,1.207109 0.0248,1.028123 -1.1782,-0.656053 z"
         id="path454" /></g></g></svg>
