<?xml version="1.0" encoding="UTF-8" standalone="no"?>
<!-- Created with Inkscape (http://www.inkscape.org/) -->

<svg
   width="108.05315mm"
   height="95.380325mm"
   viewBox="0 0 108.05315 95.380327"
   version="1.1"
   id="svg5"
   xml:space="preserve"
   inkscape:version="1.2.1 (9c6d41e410, 2022-07-14, custom)"
   sodipodi:docname="hax-type-color.svg"
   xmlns:inkscape="http://www.inkscape.org/namespaces/inkscape"
   xmlns:sodipodi="http://sodipodi.sourceforge.net/DTD/sodipodi-0.dtd"
   xmlns="http://www.w3.org/2000/svg"
   xmlns:svg="http://www.w3.org/2000/svg"><sodipodi:namedview
     id="namedview7"
     pagecolor="#ffffff"
     bordercolor="#666666"
     borderopacity="1.0"
     inkscape:showpageshadow="2"
     inkscape:pageopacity="0.0"
     inkscape:pagecheckerboard="0"
     inkscape:deskcolor="#d1d1d1"
     inkscape:document-units="mm"
     showgrid="false"
     inkscape:zoom="1.4592172"
     inkscape:cx="164.8144"
     inkscape:cy="180.91892"
     inkscape:window-width="1920"
     inkscape:window-height="1004"
     inkscape:window-x="0"
     inkscape:window-y="0"
     inkscape:window-maximized="1"
     inkscape:current-layer="layer1" /><defs
     id="defs2" /><g
     inkscape:label="Livello 1"
     inkscape:groupmode="layer"
     id="layer1"
     transform="translate(-144.22109,-79.911189)"><g
       id="g335"
       transform="translate(-1.1298551,0.05260625)"><path
         style="fill:#fd0a0a;stroke-width:0.264583"
         d="m 173.81071,173.97827 c -0.93406,-0.99859 -1.84756,-2.32583 -2.72056,-3.95277 -0.016,-0.0297 -0.5151,-0.13176 -1.10925,-0.22677 -1.08025,-0.17274 -1.08025,-0.17274 -1.26934,1.08819 -0.104,0.69351 -0.30692,1.56946 -0.45093,1.94656 -0.25051,0.65597 -0.27769,0.66405 -0.6281,0.18689 -0.57937,-0.78897 -0.74044,-2.66027 -0.38919,-4.52181 0.38962,-2.06493 1.71251,-4.99331 2.18334,-4.83312 0.37302,0.12691 0.42815,1.6506 0.1148,3.17295 -0.18313,0.88969 -0.14832,0.99218 0.33693,0.99218 0.45568,0 0.54116,-0.16851 0.54116,-1.06683 0,-1.14058 0.61063,-2.90192 1.00605,-2.90192 0.13162,0 0.38054,0.85514 0.55315,1.90031 0.32878,1.99085 0.50097,2.46226 2.15698,5.9049 1.12239,2.3333 1.50771,3.57188 1.11121,3.57188 -0.14139,0 -0.78769,-0.56729 -1.43625,-1.26064 z m 3.56596,0.94663 c -0.29211,-0.36352 -3.87879,-9.88735 -4.1804,-11.10036 -0.52448,-2.10928 1.58288,0.0285 3.01403,3.05752 0.97649,2.06674 1.54526,3.98091 1.76809,5.95045 0.1898,1.67763 -0.10665,2.70849 -0.60172,2.09239 z m -14.48809,-3.20603 c -0.86675,-1.32283 -1.19443,-3.96703 -0.66437,-5.3612 0.25992,-0.68363 0.29257,-0.69436 0.77746,-0.25554 0.93912,0.84989 1.42408,4.84436 0.70718,5.82479 -0.34457,0.47122 -0.3813,0.4619 -0.82027,-0.20805 z m 15.58869,-3.42528 c 0.72719,-2.37959 0.74384,-2.58387 0.30431,-3.73475 -0.53152,-1.39178 -1.33968,-1.87971 -2.79096,-1.68506 -0.59017,0.0792 -1.12892,0.0535 -1.19722,-0.057 -0.23318,-0.3773 1.10458,-1.35683 2.06615,-1.51287 3.40461,-0.5525 5.39088,4.26152 2.81933,6.83307 -0.92022,0.92022 -1.45631,0.9901 -1.20161,0.15662 z m -18.35658,-3.18993 c -0.49839,-0.17369 -0.95252,-0.45779 -1.00917,-0.63135 -0.11896,-0.3644 0.59589,-0.50966 4.21694,-0.85688 1.53051,-0.14676 3.06573,-0.46704 3.80395,-0.79359 2.08461,-0.92212 2.47944,-0.67123 1.24758,0.79275 -1.1256,1.3377 -2.49554,1.82457 -5.10417,1.81399 -1.23693,-0.005 -2.65674,-0.15123 -3.15513,-0.32492 z m -3.28616,-21.83402 c -0.73055,-0.80725 -0.55745,-2.27197 0.39697,-3.35899 1.71894,-1.95776 4.14897,-2.48784 5.11067,-1.11481 0.70927,1.01263 0.41452,4.1639 -0.38946,4.1639 -0.13539,0 -0.32486,-0.59323 -0.42104,-1.3183 -0.22308,-1.68164 -0.60481,-2.02381 -1.65307,-1.48173 -0.75741,0.39167 -1.89445,1.59839 -1.89445,2.01055 0,0.10862 0.56555,0.34006 1.25677,0.51431 1.17463,0.2961 1.2232,0.34139 0.74318,0.69286 -0.7482,0.54785 -2.61401,0.48399 -3.14957,-0.10779 z m 80.51614,-24.85 c -0.61148,-0.69123 -1.45959,-1.86978 -1.88468,-2.61901 -0.69895,-1.23189 -0.87312,-1.37179 -1.82025,-1.46212 -1.01702,-0.097 -1.05195,-0.0729 -1.20647,0.83307 -0.46199,2.70861 -0.89626,3.27672 -1.40005,1.83154 -0.66219,-1.89957 -0.18341,-4.99049 1.19452,-7.71161 0.9689,-1.91337 1.2625,-1.64278 1.07655,0.99219 -0.14558,2.06275 -0.11852,2.24896 0.32675,2.24896 0.40997,0 0.50253,-0.26796 0.59518,-1.72309 0.0717,-1.12672 0.26023,-1.87361 0.54459,-2.15796 0.40343,-0.40344 0.4439,-0.38885 0.55993,0.20174 0.0688,0.35013 0.26707,1.35098 0.44061,2.2241 0.17354,0.87313 0.95762,2.94437 1.74241,4.60276 1.969,4.16082 1.91155,5.09141 -0.16909,2.73943 z m 3.58832,1.00507 c -0.39293,-0.63576 -4.10901,-10.95107 -4.10901,-11.406 0,-2.19908 3.40108,3.27611 4.35878,7.01693 0.64555,2.52155 0.47275,5.55813 -0.24977,4.38907 z m -65.26282,-1.79882 c 0.50541,-0.94309 3.70406,-3.75926 5.8831,-5.17963 1.2364,-0.80592 5.45678,-3.11554 9.37862,-5.13247 3.92185,-2.01694 8.30608,-4.4115 9.74272,-5.32126 1.43665,-0.90975 2.67983,-1.58636 2.76261,-1.50358 0.30249,0.30249 -3.65777,3.8554 -5.93945,5.32853 -1.29011,0.83295 -5.5227,3.1468 -9.40575,5.1419 -3.88305,1.9951 -8.26271,4.41542 -9.73258,5.37849 -1.46987,0.96307 -2.7321,1.75104 -2.80495,1.75104 -0.0728,0 -0.0208,-0.20836 0.11568,-0.46302 z m 50.90228,-1.18182 c -0.6877,-0.84362 -1.13978,-4.46449 -0.70037,-5.60956 0.46487,-1.21144 1.34773,0.10234 1.69311,2.51953 0.33297,2.33028 -0.21689,4.04179 -0.99274,3.09003 z m -66.53007,-1.73675 c -0.64635,-0.691 -1.51833,-1.84993 -1.93773,-2.57541 -0.91183,-1.57727 -1.07408,-1.70663 -2.14706,-1.71187 -0.81264,-0.004 -0.83671,0.0319 -1.15506,1.71903 -0.17881,0.94769 -0.43292,1.78969 -0.56467,1.87112 -0.52833,0.32653 -1.09007,-1.83203 -0.93535,-3.5942 0.26004,-2.96183 1.75395,-6.45066 2.55117,-5.95794 0.31954,0.19748 0.29376,0.71717 -0.16102,3.24596 -0.13443,0.74745 -0.0816,0.8599 0.40396,0.8599 0.48948,0 0.5591,-0.15554 0.56252,-1.25677 0.004,-1.31285 0.46866,-2.55684 0.92214,-2.46916 0.14552,0.0281 0.41961,0.8968 0.6091,1.93035 0.20886,1.13924 0.87017,2.98266 1.67951,4.68165 2.1753,4.56646 2.222,5.44843 0.17249,3.25734 z m 3.39197,0.78792 c -0.3847,-0.62245 -4.13328,-10.99493 -4.13328,-11.43695 0,-0.82077 0.45677,-0.61616 1.34613,0.60302 2.17005,2.97477 4.01224,8.44366 3.51354,10.4306 -0.15516,0.61823 -0.48157,0.79947 -0.72639,0.40333 z m 13.06463,-2.31043 c 0,-0.86563 3.4632,-3.53134 7.14375,-5.49872 1.23693,-0.66118 4.57341,-2.20437 7.41441,-3.42932 2.841,-1.22494 6.34979,-2.83417 7.79731,-3.57607 1.44753,-0.741895 2.68681,-1.293955 2.75397,-1.226799 0.22788,0.227882 -1.65568,1.959049 -3.3983,3.123349 -2.19715,1.46798 -4.46156,2.60161 -10.4481,5.23062 -2.62941,1.15471 -6.18903,2.86876 -7.91028,3.80901 -3.18097,1.73763 -3.35276,1.81797 -3.35276,1.56793 z m 65.74154,-0.586 c 0.92613,-3.61214 -0.1401,-5.61549 -2.76529,-5.1957 -1.24551,0.19916 -1.38697,-0.13405 -0.38987,-0.91837 2.18976,-1.72246 5.05973,-0.16618 5.3547,2.90366 0.14457,1.50458 -0.27094,2.68286 -1.20528,3.41781 -0.917,0.72131 -1.21637,0.65886 -0.99426,-0.2074 z m -93.05295,0.006 c -0.93483,-1.0514 -1.34878,-4.78457 -0.63828,-5.75624 0.34611,-0.47334 0.37782,-0.46721 0.7831,0.15131 0.90439,1.38028 1.23158,5.11505 0.51122,5.8354 -0.142,0.14201 -0.40791,0.0486 -0.65604,-0.23047 z m 75.38363,-2.72714 c -1.41367,-0.35619 -2.1428,-0.7826 -1.84588,-1.07951 0.1351,-0.13511 1.66593,-0.37478 3.40184,-0.5326 2.74851,-0.24988 3.83219,-0.50564 6.00047,-1.41616 0.34771,-0.14601 0.46302,-0.0679 0.46302,0.31354 0,0.60224 -1.10072,1.69046 -2.34593,2.31929 -1.05725,0.53391 -4.24274,0.75594 -5.67352,0.39544 z m -59.97462,-0.71869 c 0.002,-0.10914 0.17291,-0.68348 0.37953,-1.27632 0.46185,-1.32518 0.19147,-2.79108 -0.68735,-3.72654 -0.50891,-0.54171 -0.82604,-0.64092 -1.8715,-0.58543 -0.69231,0.0367 -1.25996,-0.0154 -1.26143,-0.11594 -0.001,-0.10051 -0.003,-0.29875 -0.003,-0.44054 0,-0.4153 1.48669,-1.06521 2.43426,-1.06413 1.18671,0.001 2.41159,0.80247 2.94473,1.92598 0.85011,1.79148 0.39387,4.53445 -0.86642,5.20893 -0.5988,0.32047 -1.07456,0.3534 -1.06914,0.074 z M 146.36236,105.837 c -1.03729,-0.36149 -1.32913,-0.86288 -0.62975,-1.08195 0.26267,-0.0823 1.81962,-0.26654 3.45988,-0.40948 1.93886,-0.16896 3.40863,-0.44848 4.20082,-0.7989 1.55361,-0.68723 1.93434,-0.68766 1.75503,-0.002 -0.1946,0.74414 -1.75475,1.97352 -2.96446,2.33596 -1.29725,0.38866 -4.6532,0.36349 -5.82152,-0.0437 z m 57.80557,-9.487174 c 1.55944,-1.671603 2.21785,-2.70129 5.68564,-8.891742 2.06405,-3.684607 3.70715,-5.754657 5.39701,-6.799421 1.18155,-0.730494 1.49976,-0.801866 3.56699,-0.800047 4.1199,0.0036 4.89662,0.675285 1.21137,1.047517 -3.646,0.368269 -4.97869,1.488014 -8.0708,6.781199 -4.34083,7.430807 -6.17203,9.600487 -8.59795,10.187199 -0.74885,0.18111 -0.70315,0.09486 0.80774,-1.524705 z m 17.14582,0.723202 c -0.60304,-0.188642 -2.32945,-0.924817 -3.83646,-1.635947 -3.18815,-1.504428 -4.61961,-1.651125 -6.52018,-0.668187 -0.62388,0.322659 -1.87403,0.813263 -2.77812,1.090229 l -1.6438,0.503576 1.41938,-1.318632 c 2.12202,-1.971408 3.75943,-2.733009 5.85666,-2.724076 1.64063,0.007 1.93758,0.118751 6.45124,2.428077 2.6023,1.331414 4.79503,2.484335 4.87275,2.562047 0.28447,0.284479 -2.75745,0.09576 -3.82147,-0.237087 z"
         id="path339" /><path
         style="fill:#0a0a0a;stroke-width:0.264583"
         d="m 197.73139,171.3363 c -0.72972,-1.71549 -1.08732,-3.61553 -1.46175,-7.76655 -0.31778,-3.52309 -0.31778,-3.52309 -1.90528,-3.86411 -0.87313,-0.18757 -2.98531,-0.45723 -4.69373,-0.59925 -3.40766,-0.28327 -5.69302,-0.64699 -17.57222,-2.79663 -4.38814,-0.79407 -8.05634,-1.44377 -8.15155,-1.44377 -0.0952,0 -0.0891,-0.13594 0.0136,-0.3021 0.38458,-0.62227 7.80869,0.055 19.02681,1.73566 2.47386,0.37063 5.74808,0.78991 7.27604,0.93175 1.52797,0.14183 4.20688,0.61984 5.95313,1.06224 1.74625,0.4424 3.3724,0.80468 3.61366,0.80507 0.24126,2.7e-4 1.59618,-0.77319 3.01093,-1.71908 1.41474,-0.94588 2.68161,-1.71979 2.81526,-1.71979 0.13365,0 0.7135,-0.22732 1.28856,-0.50515 0.57505,-0.27784 1.04555,-0.41766 1.04555,-0.31071 0,0.26251 -1.05943,1.21143 -1.74768,1.56538 -0.30638,0.15756 -1.67408,1.1985 -3.03934,2.3132 -2.48229,2.02673 -2.48229,2.02673 -4.09604,1.8972 -1.61375,-0.12954 -1.61375,-0.12954 -1.27586,1.35788 0.2534,1.11546 1.16309,9.2886 1.16309,10.4498 0,0.0912 -0.16394,0.16573 -0.3643,0.16573 -0.20036,0 -0.60486,-0.56554 -0.89888,-1.25677 z m 32.13405,-3.63802 c -0.0956,-0.58208 -0.3586,-2.54661 -0.58453,-4.36562 -0.82553,-6.64672 -2.81394,-19.78093 -3.46378,-22.8796 -1.78804,-8.52595 -3.91515,-13.79406 -7.74803,-19.18915 -0.87876,-1.23693 -2.03003,-2.8752 -2.55837,-3.6406 -0.52834,-0.7654 -1.79347,-2.28345 -2.8114,-3.37343 -1.01793,-1.08999 -1.73296,-1.9818 -1.58896,-1.9818 1.14781,0 5.41493,4.29892 8.92928,8.99583 5.0753,6.78311 7.71683,15.32238 9.37138,30.29479 1.01616,9.19549 1.30013,14.90699 0.82219,16.53646 -0.17698,0.60338 -0.20927,0.56853 -0.36778,-0.39688 z m 7.626,0.75846 c -1.96479,-0.28815 -3.57188,-0.68118 -3.57188,-0.87354 0,-0.11542 1.38844,-0.29536 3.0854,-0.39986 5.51467,-0.3396 8.60904,-1.48561 10.96159,-4.05968 1.69473,-1.85431 1.79536,-2.33017 0.86177,-4.07518 -1.54862,-2.89457 -4.56254,-5.22247 -7.82516,-6.04401 -1.16781,-0.29406 -1.27602,-0.27144 -2.39917,0.5013 -1.75816,1.20965 -3.42534,3.20436 -4.6572,5.57216 -1.10661,2.12703 -2.25873,3.72556 -2.68515,3.72556 -0.24984,0 1.28691,-4.44832 2.182,-6.31608 0.88308,-1.84271 3.40188,-4.33542 5.48902,-5.43218 2.37575,-1.24842 5.38344,-2.01047 7.92766,-2.0086 1.96299,0.001 4.19415,0.41432 3.88884,0.71962 -0.0843,0.0843 -1.30373,0.31257 -2.70975,0.50717 -3.0185,0.41776 -5.70138,1.12554 -5.50022,1.45102 0.0786,0.12712 0.34419,0.2323 0.59026,0.23372 0.80789,0.005 3.14526,1.24919 4.29215,2.28534 1.29877,1.17336 2.14837,2.43487 2.63222,3.90841 0.3401,1.03575 0.34089,1.03621 0.67582,0.39687 0.18442,-0.35204 0.65264,-1.83071 1.04046,-3.28591 1.10971,-4.16379 1.22685,-4.48015 1.50586,-4.06655 0.13683,0.20283 0.16889,1.35256 0.0728,2.61134 -0.56072,7.34611 -3.85094,12.33832 -9.22601,13.99851 -1.67632,0.51776 -5.18788,0.86227 -6.63131,0.65057 z m -58.56811,-13.94293 c -0.58624,-0.70637 -0.87794,-2.97775 -0.58555,-4.55944 0.79129,-4.28044 3.96067,-8.01946 7.16304,-8.45045 1.19062,-0.16023 1.19062,-0.16023 0.15249,0.71394 -2.85019,2.40006 -4.60615,4.83789 -5.44806,7.56369 -0.8361,2.70697 -0.68175,3.07056 0.52165,1.2288 2.20175,-3.36967 5.45039,-5.66153 8.03246,-5.66677 1.31158,-0.003 2.41509,0.38718 2.17869,0.76968 -0.0736,0.11911 -0.62365,0.29488 -1.22231,0.39061 -2.38278,0.38102 -4.34555,1.78682 -7.58198,5.43044 -2.52786,2.84591 -2.80472,3.06835 -3.21043,2.5795 z m 18.76396,-0.18599 c -6.24434,-0.52181 -9.02586,-0.88112 -11.32655,-1.46316 -1.99967,-0.50587 -3.57674,-1.20852 -3.31036,-1.4749 0.11712,-0.11712 2.23443,-0.0402 4.70513,0.17101 2.4707,0.21118 4.89204,0.3864 5.38076,0.38938 0.83584,0.005 0.87828,-0.0378 0.71507,-0.72218 -0.28955,-1.2142 -1.90667,-4.46434 -3.71253,-7.46156 -1.85938,-3.08604 -2.78591,-5.04429 -2.78591,-5.88808 0,-0.47306 0.0548,-0.49483 0.44438,-0.1765 1.72132,1.40659 6.93773,9.66143 6.9761,11.03949 0.007,0.23987 0.34879,-0.29099 0.76025,-1.17968 1.33027,-2.87315 3.91832,-5.15012 8.21599,-7.22843 4.12034,-1.99255 3.83991,-1.29899 -0.95426,2.36001 -3.82454,2.91896 -5.31421,4.57409 -6.02295,6.69191 -0.78036,2.33185 -0.61684,2.46012 1.22997,0.96481 3.57437,-2.89405 6.76714,-4.47978 9.01974,-4.47978 0.66897,0 0.72376,0.0539 0.42306,0.41621 -0.18998,0.22892 -0.80472,0.65053 -1.36608,0.93691 -0.56136,0.28639 -2.60032,1.56627 -4.53102,2.8442 l -3.51038,2.3235 2.52895,0.43729 c 3.01988,0.52219 4.99319,1.08371 5.70856,1.6244 0.4827,0.36485 0.38731,0.3946 -1.19523,0.37285 -0.94588,-0.013 -4.27259,-0.23697 -7.39269,-0.4977 z m -31.50106,-1.76395 c 0,-0.24752 0.7018,-1.13251 1.55955,-1.96665 2.06126,-2.00452 3.07397,-2.29913 5.99425,-1.74384 2.48411,0.47235 4.19638,1.12506 3.95901,1.50915 -0.0998,0.16144 -1.57127,0.27133 -3.65707,0.27311 -3.49011,0.003 -3.49011,0.003 -5.47449,1.18764 -2.2233,1.3273 -2.38125,1.37642 -2.38125,0.74059 z m -2.089,-11.16893 c -0.25593,-0.16206 0.10938,-0.3249 1.19063,-0.53074 10.4676,-1.99274 18.83608,-5.34293 25.27899,-10.12006 1.14438,-0.8485 2.1426,-1.54273 2.21828,-1.54273 0.39085,0 -0.80112,1.63718 -2.16743,2.97697 -5.19407,5.09328 -16.14774,9.46674 -23.67928,9.45439 -1.35959,-0.002 -2.63812,-0.10925 -2.84119,-0.23783 z m -3.46506,-4.17187 c 0.001,-0.11905 1.20268,-1.70473 2.66996,-3.52374 1.46728,-1.81902 3.38152,-4.37886 4.25386,-5.68855 4.58341,-6.8813 7.47428,-15.6921 8.82701,-26.90305 0.46612,-3.863007 0.7703,-5.510526 1.22942,-6.65901 0.29913,-0.748246 0.30959,-0.73686 1.43638,1.564602 1.86857,3.816498 4.15186,5.671418 6.98118,5.671418 4.29685,0 7.25748,-4.389075 7.18354,-10.649476 -0.015,-1.273307 0.025,-2.315104 0.0889,-2.315104 0.0639,0 0.61856,0.744141 1.23255,1.653646 1.83037,2.711338 2.60184,3.569629 5.44912,6.062417 1.49307,1.307178 2.71467,2.501951 2.71467,2.655051 0,0.455587 -1.52794,0.01991 -3.14325,-0.896268 -0.81783,-0.463854 -2.2721,-1.624594 -3.23172,-2.579421 l -1.74476,-1.73605 -0.27943,1.638498 c -1.06177,6.225977 -6.16447,9.668117 -11.11918,7.500687 -1.82881,-0.80001 -3.75119,-2.90629 -4.6435,-5.087712 -0.6832,-1.670223 -0.6832,-1.670223 -0.6961,1.316767 -0.0466,10.805925 -3.33664,21.966535 -8.66045,29.378665 -2.48072,3.45383 -8.55793,9.56548 -8.54817,8.59663 z m 24.43382,-15.18717 c -1.46611,-0.56383 -3.79851,-2.43259 -3.79851,-3.04344 0,-0.63982 1.17875,-0.42058 3.12703,0.58162 3.82141,1.96574 4.3417,3.87329 0.67148,2.46182 z m 7.71087,-3.53672 c -1.01865,-0.4971 -2.37005,-1.41785 -3.00311,-2.04611 -1.20391,-1.19476 -2.04553,-2.53184 -1.76821,-2.80916 0.39279,-0.39279 7.88723,4.57268 8.03139,5.32123 0.14087,0.73152 -1.19851,0.54008 -3.26007,-0.46596 z m 17.76638,-8.48708 c 0.0853,-0.22214 0.70659,-0.72815 1.38076,-1.12448 1.03693,-0.60957 1.52092,-0.71892 3.14161,-0.70975 1.05372,0.006 1.82762,-0.0692 1.7198,-0.16714 -0.10783,-0.0979 -1.23175,-0.90794 -2.49759,-1.8001 -1.26585,-0.89216 -2.36797,-1.7296 -2.44917,-1.86097 -0.24612,-0.39823 1.22179,-1.91627 2.33489,-2.41462 1.04566,-0.46816 1.04566,-0.46816 0.011,-0.75293 -0.56909,-0.15662 -1.54073,-0.40985 -2.15919,-0.56273 -1.97852,-0.48905 -1.19652,-1.58047 1.1324,-1.58047 1.42636,0 2.51561,0.555908 3.13121,1.59804 0.63253,1.07079 0.56119,1.23837 -0.82656,1.9416 -0.69261,0.35097 -1.53847,0.8642 -1.8797,1.1405 -0.6204,0.50237 -0.6204,0.50237 1.72232,2.58458 1.2885,1.14521 2.37841,2.16982 2.42203,2.2769 0.0436,0.10707 -0.54997,0.28123 -1.31909,0.38701 -0.76913,0.10579 -2.35263,0.47246 -3.5189,0.81484 -2.52808,0.74217 -2.54297,0.74362 -2.34577,0.22972 z M 203.2279,99.519436 c 0,-0.665715 2.59715,-2.805544 4.0773,-3.359335 1.60817,-0.601694 4.08068,-0.744595 4.93864,-0.285431 0.47923,0.256477 0.41189,0.402311 -0.98279,2.128487 -1.69374,2.096313 -2.36358,2.297803 -2.31443,0.696196 0.0166,-0.540848 -0.0849,-0.98336 -0.2256,-0.98336 -0.14067,0 -1.27206,0.47625 -2.5142,1.058333 -2.36975,1.110503 -2.97892,1.262874 -2.97892,0.74511 z"
         id="path337" /></g></g></svg>
