<?xml version="1.0" encoding="UTF-8" standalone="no"?>
<!-- Created with Inkscape (http://www.inkscape.org/) -->

<svg
   width="134.56494mm"
   height="76.680687mm"
   viewBox="0 0 134.56494 76.680687"
   version="1.1"
   id="svg5"
   xml:space="preserve"
   inkscape:version="1.2.1 (9c6d41e410, 2022-07-14, custom)"
   sodipodi:docname="hax-yeah.svg"
   xmlns:inkscape="http://www.inkscape.org/namespaces/inkscape"
   xmlns:sodipodi="http://sodipodi.sourceforge.net/DTD/sodipodi-0.dtd"
   xmlns="http://www.w3.org/2000/svg"
   xmlns:svg="http://www.w3.org/2000/svg"><sodipodi:namedview
     id="namedview7"
     pagecolor="#ffffff"
     bordercolor="#666666"
     borderopacity="1.0"
     inkscape:showpageshadow="2"
     inkscape:pageopacity="0.0"
     inkscape:pagecheckerboard="0"
     inkscape:deskcolor="#d1d1d1"
     inkscape:document-units="mm"
     showgrid="false"
     inkscape:zoom="2.0636447"
     inkscape:cx="268.21477"
     inkscape:cy="121.14488"
     inkscape:window-width="1920"
     inkscape:window-height="1004"
     inkscape:window-x="0"
     inkscape:window-y="0"
     inkscape:window-maximized="1"
     inkscape:current-layer="layer1" /><defs
     id="defs2" /><g
     inkscape:label="Livello 1"
     inkscape:groupmode="layer"
     id="layer1"
     transform="translate(-40.734049,-123.92822)"><g
       id="g197"
       transform="translate(0.35481356,0.19390472)"
       style="fill:#000000"><path
         style="fill:#000000;stroke-width:0.264583"
         d="m 59.255026,178.11654 c -1.689727,-0.78064 -5.202071,-2.54985 -7.805208,-3.93159 -2.603137,-1.38174 -6.118824,-3.19891 -7.812638,-4.03815 -3.079662,-1.5259 -3.079662,-1.5259 -3.216755,-2.73638 -0.177146,-1.56415 0.236331,-5.61409 0.871585,-8.53704 1.325347,-6.09821 4.019321,-8.36328 9.630246,-8.09701 2.127749,0.10098 2.625514,0.22588 4.261252,1.06922 1.018646,0.52519 2.983177,1.79436 4.365625,2.82039 1.382448,1.02602 3.168385,2.23076 3.96875,2.67719 1.342348,0.74875 1.383388,0.79839 0.529166,0.6401 -1.148028,-0.21274 -3.299376,-1.27961 -5.757217,-2.85505 -4.121063,-2.64153 -6.119998,-3.26735 -8.978024,-2.81078 -3.214738,0.51356 -4.739545,1.78167 -5.627517,4.68013 -0.666439,2.17535 -1.982185,9.6988 -1.785721,10.21077 0.09057,0.23603 1.152205,0.9243 2.359183,1.52949 1.206978,0.60519 4.516224,2.38277 7.35388,3.95019 2.837656,1.56741 6.319327,3.42437 7.737047,4.12657 3.079042,1.52506 2.931166,1.59436 4.301825,-2.01569 1.750136,-4.60951 4.485611,-9.14284 6.809462,-11.28488 2.00303,-1.84634 2.611723,-1.95855 1.094761,-0.20182 -2.359808,2.73278 -4.440034,6.40938 -5.951784,10.51919 -0.834452,2.26853 -1.652201,3.79857 -2.666776,4.98964 -0.60891,0.71484 -0.60891,0.71484 -3.681142,-0.70449 z m 20.931606,-13.90097 c -1.46811,-1.46811 0.60656,-4.67017 3.360639,-5.18684 1.874189,-0.3516 3.095397,1.51907 2.47926,3.79778 -0.354124,1.30968 -1.0774,1.55821 -1.0774,0.37021 0,-0.41485 -0.132066,-1.13312 -0.293483,-1.59616 -0.326787,-0.93742 -0.79506,-0.93506 -2.138265,0.0108 -1.339016,0.94287 -1.213059,2.06092 0.23332,2.07103 0.318834,0.002 0.661512,0.13642 0.761503,0.29821 0.533948,0.86394 -2.483411,1.07717 -3.325574,0.235 z m -9.260417,-3.8573 c -1.788265,-1.01521 -3.149065,-2.44346 -4.013535,-4.21249 -0.775766,-1.5875 -0.775766,-1.5875 -0.617348,-5.55625 0.09495,-2.37865 0.05672,-4.11879 -0.0954,-4.34323 -0.320572,-0.47297 -1.902388,-0.43087 -2.877853,0.0766 -0.929061,0.48333 -1.566315,1.19788 -2.979195,3.34059 -2.15741,3.27181 -2.969897,3.79917 -1.937019,1.25724 1.504055,-3.7015 2.658764,-5.42777 4.151347,-6.20619 1.963968,-1.02425 4.304245,-0.87444 5.090732,0.32589 0.737741,1.12594 0.870329,2.46908 0.564563,5.7191 -0.417497,4.43764 -0.08198,5.44655 2.737067,8.23052 2.175753,2.14867 2.16784,2.61218 -0.02336,1.36822 z"
         id="path201" /><path
         style="fill:#000000;stroke-width:0.264583"
         d="m 118.98478,199.80203 c -0.0918,-0.43657 -0.46371,-2.99641 -0.82638,-5.68855 -0.36268,-2.69213 -0.83938,-5.828 -1.05934,-6.96858 -0.21996,-1.14059 -0.39993,-2.12286 -0.39993,-2.18282 0,-0.06 -0.90833,-0.10901 -2.01851,-0.10901 -1.45825,0 -2.50474,0.17468 -3.77031,0.62935 -0.96349,0.34615 -2.2753,0.71675 -2.91512,0.82357 -1.16332,0.19421 -1.16332,0.19421 -1.01974,-0.8762 0.10695,-0.79741 0.0439,-1.10869 -0.24739,-1.22045 -0.75509,-0.28975 -0.88503,-0.1439 -0.45564,0.51144 0.56116,0.85644 0.37267,0.83377 -1.00878,-0.12133 -0.99833,-0.69021 -1.7267,-0.87779 -6.159301,-1.58626 -2.764896,-0.44192 -5.38427,-0.86462 -5.820833,-0.93933 -0.469855,-0.0804 -1.804839,-0.97808 -3.271562,-2.19987 -2.477815,-2.06403 -2.477815,-2.06403 -5.159375,-1.71953 -1.474859,0.18947 -3.643341,0.52402 -4.818848,0.74343 -1.175507,0.21941 -2.3066,0.39881 -2.513541,0.39866 -0.206942,-1.5e-4 -0.696376,-0.5657 -1.087634,-1.25677 -0.391258,-0.69108 -1.255826,-2.00064 -1.921264,-2.91015 -1.209886,-1.65365 -1.209886,-1.65365 -4.084195,-1.65365 -2.99607,0 -4.527955,-0.18309 -4.527955,-0.54118 0,-0.11574 0.803672,-0.28731 1.785938,-0.38125 0.982265,-0.0939 2.406525,-0.25225 3.16502,-0.35179 l 1.379082,-0.18098 -1.445228,-2.21905 c -0.794875,-1.22048 -1.445228,-2.3471 -1.445228,-2.5036 0,-0.37299 2.258816,1.86483 3.439583,3.40762 0.926041,1.20996 0.926041,1.20996 3.179071,1.05924 1.239169,-0.0829 3.230325,-0.30624 4.424791,-0.49631 2.171759,-0.34557 2.171759,-0.34557 5.248368,2.28005 3.076609,2.62562 3.076609,2.62562 6.311722,2.17358 3.235113,-0.45205 3.235113,-0.45205 7.384915,2.9003 4.149804,3.35234 4.149804,3.35234 6.411614,3.78837 1.97443,0.38063 2.29205,0.38698 2.49989,0.05 0.13095,-0.21232 1.19883,-1.75526 2.37307,-3.42875 3.71549,-5.29518 3.51975,-4.64338 2.50284,-8.33437 -0.48112,-1.74625 -0.94566,-3.59172 -1.03233,-4.10104 -0.15128,-0.88903 -0.14026,-0.90489 0.27559,-0.39688 1.15815,1.41484 3.69546,8.08478 5.01127,13.17334 0.40598,1.57002 0.82685,2.76065 0.93527,2.64583 0.10841,-0.11481 0.95241,-1.62793 1.87555,-3.36248 1.69426,-3.18347 3.50064,-5.53866 4.48852,-5.8522 0.88417,-0.28063 0.86538,0.0338 -0.0985,1.64823 -0.50467,0.84527 -1.55604,2.77057 -2.33638,4.27844 -0.78034,1.50786 -1.89615,3.28386 -2.47957,3.94666 -1.06076,1.2051 -1.06076,1.2051 -0.27189,1.02189 0.43388,-0.10076 1.77487,-0.66399 2.97998,-1.25161 2.5553,-1.24599 5.50461,-3.96993 8.28201,-7.64914 1.40954,-1.86721 1.71211,-2.14762 1.78249,-1.65196 0.1073,0.75568 -0.91558,3.00322 -2.28363,5.01777 -2.29425,3.37843 -6.28942,6.13844 -9.67735,6.68547 -0.8566,0.13832 -1.61591,0.30993 -1.68735,0.38138 -0.0714,0.0714 0.0171,1.05731 0.1968,2.19081 0.42583,2.6862 0.66264,11.64729 0.33064,12.51195 -0.25396,0.66146 -0.25396,0.66146 -0.42094,-0.13229 z m -2.55023,-15.93051 c 0,-0.10329 -0.438,-2.00077 -0.97332,-4.21662 -0.97332,-4.02881 -0.97332,-4.02881 -1.53181,-2.65647 -0.51223,1.25868 -1.97799,3.57299 -3.29896,5.2088 -0.70841,0.87726 -0.68129,1.05834 0.15853,1.05834 0.73922,0 2.85157,-1.22206 3.66392,-2.11969 0.26188,-0.28938 0.57676,-0.52615 0.69973,-0.52615 0.43096,0 0.21837,1.52276 -0.30559,2.18887 -0.68216,0.86722 -0.6705,0.92958 0.19843,1.06121 1.27497,0.19314 1.38907,0.19328 1.38907,0.002 z m -18.754937,-4.70699 c -1.753949,-1.34483 -3.174026,-2.244 -3.53233,-2.23661 -0.329557,0.007 -1.361704,0.15562 -2.293659,0.33073 l -1.694466,0.31838 1.540989,1.31564 c 1.514364,1.29291 1.596205,1.32544 4.737174,1.88308 1.757902,0.3121 3.416514,0.58326 3.685809,0.60259 0.26929,0.0193 -0.830291,-0.97689 -2.443517,-2.21381 z m -13.108664,-2.39504 c 0.790083,-0.0987 1.436516,-0.27306 1.436516,-0.38744 0,-0.11438 -0.879287,-1.02912 -1.953975,-2.03275 -1.953971,-1.8248 -1.953971,-1.8248 -4.43177,-1.49894 -1.362787,0.17922 -2.975748,0.33377 -3.584353,0.34345 -1.106559,0.0176 -1.106559,0.0176 0.330729,2.30692 0.790507,1.25914 1.437286,2.36961 1.437286,2.46771 0,0.0981 1.199036,-0.0911 2.664526,-0.42054 1.46549,-0.32941 3.310958,-0.67969 4.101041,-0.77841 z m 68.277981,21.44504 c -0.0926,-0.58209 -0.28848,-2.18943 -0.43538,-3.57188 -1.78621,-16.81086 -4.97637,-29.07064 -10.34094,-39.74023 -0.57074,-1.13516 -0.92076,-2.06393 -0.7778,-2.06393 0.47172,0 3.14205,4.05024 4.62265,7.01145 3.26697,6.53395 5.62494,14.65889 6.91072,23.8125 0.49664,3.53566 0.80823,14.00869 0.44476,14.94896 -0.24399,0.63119 -0.2634,0.61302 -0.42401,-0.39687 z m 4.66218,-5.87527 c -0.54289,-0.10456 -0.86453,-0.60045 -0.39688,-0.61187 0.97894,-0.0239 5.79642,-0.85942 6.94531,-1.20454 3.30656,-0.99326 5.90025,-2.92433 7.24408,-5.39339 0.72053,-1.32385 0.72053,-1.32385 -0.32967,-2.87034 -2.05966,-3.03297 -4.52386,-4.60478 -8.32584,-5.31068 -1.27914,-0.2375 -1.27914,-0.2375 -3.00092,1.37315 -1.51224,1.41462 -1.92424,2.03171 -3.38531,5.07052 -1.56821,3.26164 -2.52363,4.70593 -2.51935,3.80846 0.004,-0.88204 1.69203,-6.30693 2.33345,-7.50002 2.23635,-4.15978 7.99834,-7.28916 13.4022,-7.27885 2.51667,0.005 3.40601,0.35536 1.83672,0.72398 -3.4249,0.80451 -4.64167,1.13999 -6.0451,1.66674 l -1.56787,0.58847 1.70016,0.42837 c 3.09049,0.77866 5.52574,2.7086 6.66359,5.28089 0.53818,1.21664 0.53818,1.21664 0.86265,0.11772 0.17846,-0.60441 0.4671,-1.91123 0.64143,-2.90405 0.72515,-4.12989 0.85641,-4.64121 1.12303,-4.37459 0.14792,0.14792 0.25893,1.59397 0.25098,3.26943 -0.0469,9.8737 -5.26836,15.388 -14.4561,15.2667 -1.30969,-0.0173 -2.64914,-0.083 -2.97656,-0.1461 z M 95.221666,167.11257 c -2.875581,-0.25586 -5.742188,-0.84223 -7.701827,-1.57542 -1.730634,-0.64751 -2.02546,-1.18435 -0.520187,-0.94719 3.011408,0.47446 6.310667,0.67983 10.952175,0.68177 5.984483,0.002 9.154493,-0.26473 14.466583,-1.21953 2.08399,-0.37458 3.852,-0.61813 3.92892,-0.54121 0.20713,0.20713 -2.17758,1.34478 -4.14612,1.97794 -4.79246,1.54145 -11.11179,2.14573 -16.979544,1.62364 z m -6.171493,-8.31799 c 2.466372,-1.43684 3.353461,-2.07544 5.669639,-4.08149 6.276808,-5.43636 12.978378,-17.09379 14.965248,-26.03218 0.25244,-1.13568 0.53059,-1.99326 0.61811,-1.90575 0.0875,0.0875 0.37323,1.43073 0.63492,2.98492 0.74162,4.40454 2.24139,7.13428 4.52783,8.24113 3.67681,1.77991 7.99993,-1.28084 9.99355,-7.0754 0.38251,-1.1118 1.55841,-6.44844 1.55841,-7.07263 0,-0.0654 0.0973,-0.11886 0.21626,-0.11886 0.11895,0 0.43107,0.68461 0.6936,1.52135 0.66167,2.10889 1.63383,3.96175 3.80893,7.2595 2.54282,3.85525 3.09612,4.97748 2.45407,4.97748 -0.39498,0 -3.1646,-2.85597 -4.44761,-4.58629 -0.66533,-0.89728 -1.47212,-2.1912 -1.79287,-2.87537 -0.58319,-1.24396 -0.58319,-1.24396 -1.03162,0.84283 -0.92274,4.29405 -3.70681,8.0894 -6.67612,9.10115 -4.41797,1.50535 -8.19503,-0.79252 -9.88661,-6.01477 -0.33004,-1.01891 -0.33004,-1.01891 -1.32129,1.98438 -1.19924,3.63341 -1.97528,5.39137 -3.7458,8.48531 -2.71652,4.74702 -6.737799,9.47857 -10.306615,12.12704 -2.149123,1.59489 -5.397095,3.16405 -6.911898,3.33927 -1.136801,0.13149 -1.136801,0.13149 0.979866,-1.10162 z m 24.881917,-4.02668 c -0.64871,-1.65026 -0.28999,-8.51078 0.48556,-9.28632 0.62561,-0.62562 1.07577,1.2633 1.02815,4.3142 -0.0587,3.7576 -0.90209,6.52804 -1.51371,4.97212 z m 9.40751,-0.3814 c -0.58025,-1.66449 -0.19928,-8.32668 0.51861,-9.06934 0.1425,-0.14741 0.41076,0.16931 0.67232,0.79375 0.74604,1.78115 0.19286,9.10883 -0.68765,9.10883 -0.11705,0 -0.34353,-0.37496 -0.50328,-0.83324 z m 18.33509,-4.06782 c 1.17897,-1.04115 2.16437,-1.29435 4.40619,-1.13219 0.8703,0.063 1.49131,0.0355 1.38,-0.0609 -0.11131,-0.0965 -1.03581,-0.74975 -2.05446,-1.45175 -1.01865,-0.70199 -2.18075,-1.577 -2.58246,-1.94445 -0.73037,-0.66809 -0.73037,-0.66809 0.26459,-1.69917 0.54722,-0.5671 1.29261,-1.15355 1.65641,-1.30321 0.66146,-0.27213 0.66146,-0.27213 -0.13229,-0.62462 -0.43656,-0.19387 -1.05389,-0.35787 -1.37184,-0.36443 -0.9323,-0.0192 -1.93545,-0.4965 -1.93545,-0.92081 0,-0.54568 1.84762,-1.05257 3.02889,-0.83097 1.06088,0.19903 2.3965,1.2937 2.6459,2.16859 0.13569,0.47596 -0.13016,0.73337 -1.75323,1.69762 l -1.91317,1.13659 2.49675,2.31377 c 2.49676,2.31377 2.49676,2.31377 1.44321,2.49271 -0.57946,0.0984 -2.1655,0.46617 -3.52454,0.81725 -1.35904,0.35107 -2.60919,0.63336 -2.77812,0.6273 -0.16893,-0.006 0.1567,-0.42064 0.72362,-0.92129 z m -2.15775,-10.82626 c 0.13247,-1.17523 0.13247,-1.17523 -1.75153,-1.12448 -1.52082,0.041 -1.88399,-0.0258 -1.88399,-0.34612 0,-0.55481 2.32265,-1.64684 3.80577,-1.78934 1.29924,-0.12485 3.20569,0.46469 3.20569,0.9913 0,0.56471 -2.51505,3.43955 -3.01097,3.44171 -0.43229,0.002 -0.48009,-0.15175 -0.36497,-1.17307 z"
         id="path199" /></g></g></svg>
