<?xml version="1.0" encoding="UTF-8" standalone="no"?>
<!-- Created with Inkscape (http://www.inkscape.org/) -->

<svg
   width="95.453575mm"
   height="76.283524mm"
   viewBox="0 0 95.453575 76.283525"
   version="1.1"
   id="svg5"
   xml:space="preserve"
   inkscape:version="1.2.1 (9c6d41e410, 2022-07-14, custom)"
   sodipodi:docname="hax-java-color.svg"
   xmlns:inkscape="http://www.inkscape.org/namespaces/inkscape"
   xmlns:sodipodi="http://sodipodi.sourceforge.net/DTD/sodipodi-0.dtd"
   xmlns="http://www.w3.org/2000/svg"
   xmlns:svg="http://www.w3.org/2000/svg"><sodipodi:namedview
     id="namedview7"
     pagecolor="#ffffff"
     bordercolor="#666666"
     borderopacity="1.0"
     inkscape:showpageshadow="2"
     inkscape:pageopacity="0.0"
     inkscape:pagecheckerboard="0"
     inkscape:deskcolor="#d1d1d1"
     inkscape:document-units="mm"
     showgrid="false"
     inkscape:zoom="1.4592172"
     inkscape:cx="151.79372"
     inkscape:cy="106.90664"
     inkscape:window-width="1920"
     inkscape:window-height="1004"
     inkscape:window-x="0"
     inkscape:window-y="0"
     inkscape:window-maximized="1"
     inkscape:current-layer="layer1" /><defs
     id="defs2" /><g
     inkscape:label="Livello 1"
     inkscape:groupmode="layer"
     id="layer1"
     transform="translate(-195.09037,-92.049198)"><g
       id="g516"
       transform="translate(4.4700748,-2.315067)"><path
         style="fill:#fd0b0b;stroke-width:0.264583"
         d="m 211.14514,148.79044 c -0.0786,-0.0786 -0.0338,-0.52089 0.0996,-0.98288 0.25039,-0.86729 0.1297,-1.10941 -1.96617,-3.94475 -0.35743,-0.48353 -0.54126,-1.15777 -0.55424,-2.03277 -0.0164,-1.10705 0.10319,-1.43825 0.77434,-2.14438 0.86299,-0.90797 1.98433,-1.58162 2.63269,-1.58162 0.61984,0 0.50401,0.3241 -0.56012,1.5673 -1.24927,1.4595 -1.24533,2.23157 0.0211,4.13901 1.14363,1.72243 1.44671,3.021 0.93029,3.98593 -0.37164,0.69441 -1.12999,1.2417 -1.37753,0.99416 z m -3.79219,-2.59628 c -3.70736,-2.49668 -3.868,-4.9986 -0.51519,-8.02376 1.94758,-1.75724 2.37331,-2.52271 2.53126,-4.55117 0.13493,-1.7329 0.13493,-1.7329 0.72661,-0.80686 0.74841,1.17133 0.7735,2.84358 0.0635,4.23523 -0.29157,0.57152 -1.22781,1.78717 -2.08054,2.70143 -0.85272,0.91427 -1.63232,1.92424 -1.73245,2.24439 -0.22632,0.72362 0.31434,1.80194 1.43271,2.85749 1.05614,0.99682 1.75769,2.24896 1.26003,2.24896 -0.18758,0 -0.94626,-0.40757 -1.68596,-0.90571 z m -16.22362,-11.69768 c -0.72645,-0.92353 -0.69331,-1.35195 0.21537,-2.78481 0.79056,-1.24657 2.52124,-2.33888 3.70577,-2.33888 0.32906,0 0.94631,0.34802 1.37168,0.7734 0.85291,0.8529 1.0432,2.3137 0.46634,3.57977 -0.52763,1.15803 -0.77789,0.88579 -1.1353,-1.23504 -0.0911,-0.5406 -0.27763,-1.05212 -0.41451,-1.13671 -0.52155,-0.32234 -2.90563,1.4533 -2.90563,2.16408 0,0.18828 0.32742,0.4152 0.7276,0.50426 1.80581,0.40187 1.80841,0.40354 1.25566,0.80772 -0.2733,0.19984 -1.00129,0.36335 -1.61776,0.36335 -0.89573,0 -1.23098,-0.14001 -1.66922,-0.69714 z"
         id="path520" /><path
         style="fill:#0b0b0b;stroke-width:0.264583"
         d="m 230.00388,170.52047 c 0,-0.07 -0.29839,-2.32825 -0.66308,-5.01826 -1.15818,-8.5428 -2.30112,-13.95005 -5.00593,-23.68303 -1.21669,-4.37814 -1.41851,-5.46264 -0.96432,-5.18193 0.50834,0.31417 2.23771,4.39196 3.59557,8.47824 2.1583,6.49509 3.31487,12.29366 3.72378,18.66949 0.19409,3.02619 -0.0541,6.86281 -0.44401,6.86281 -0.13311,0 -0.24201,-0.0573 -0.24201,-0.12732 z m 34.05471,-1.1956 c -0.0851,-0.21828 -0.34626,-2.18281 -0.58041,-4.36563 -1.78939,-16.68158 -4.96236,-28.89143 -10.23125,-39.37073 -0.57832,-1.15022 -0.99474,-2.14806 -0.92539,-2.21742 0.1985,-0.19849 2.19775,2.44655 3.38243,4.475 5.05133,8.64908 8.44753,22.07092 8.85534,34.99649 0.1307,4.14236 -0.12458,7.44725 -0.50072,6.48229 z m 4.70674,-6.53867 c -1.14048,-0.27432 -0.91594,-0.56758 0.5652,-0.73818 5.02052,-0.57828 8.44011,-1.69793 10.6059,-3.47263 1.29472,-1.06093 2.98411,-3.40938 2.98411,-4.14828 0,-0.5952 -1.31005,-2.53424 -2.54975,-3.77394 -1.67235,-1.67235 -3.89693,-2.78352 -6.52661,-3.26002 -1.24247,-0.22514 -1.30292,-0.20446 -2.67874,0.91628 -1.73381,1.41235 -2.7537,2.92257 -3.99325,5.91307 -0.93632,2.25896 -2.04468,4.00714 -2.34943,3.70569 -0.2228,-0.22037 1.5823,-6.39787 2.25452,-7.71553 0.31373,-0.61496 1.29813,-1.8416 2.18757,-2.72587 2.77751,-2.76139 6.27582,-4.3145 10.25623,-4.55333 2.32642,-0.13959 3.93297,0.0591 3.50388,0.43343 -0.13019,0.11356 -1.24008,0.41497 -2.46641,0.6698 -1.22634,0.25483 -3.06396,0.77256 -4.08362,1.15051 -1.85391,0.68718 -1.85391,0.68718 -0.41613,0.97676 3.0748,0.6193 5.80143,2.64737 6.98038,5.192 0.34109,0.7362 0.68523,1.23325 0.76477,1.10456 0.16827,-0.27226 1.11515,-4.91014 1.3787,-6.75297 0.0991,-0.69301 0.27951,-1.3214 0.40089,-1.39641 0.39598,-0.24473 0.58659,1.74129 0.44234,4.60881 -0.23665,4.70429 -1.6394,8.11338 -4.40155,10.69705 -1.58959,1.48687 -2.95155,2.18954 -5.5144,2.845 -1.89729,0.48525 -5.93422,0.66344 -7.3446,0.3242 z m -59.26666,-1.30753 c -0.29104,-0.0615 -0.78198,-0.16528 -1.09099,-0.23053 -0.83047,-0.17535 -1.09517,-1.11744 -1.68369,-5.99259 -0.76375,-6.32675 -1.0303,-5.61391 2.24907,-6.0147 2.73965,-0.33484 4.66779,-0.16595 5.94957,0.52111 0.35277,0.1891 0.35277,0.22678 0,0.33913 -0.98453,0.31355 -6.15096,0.7601 -7.07835,0.6118 -1.03011,-0.16472 -1.03011,-0.16472 -0.4062,2.5429 0.45977,1.99524 0.60408,3.31593 0.5485,5.01971 -0.0721,2.20963 -0.052,2.30436 0.45376,2.13756 0.29104,-0.096 1.51143,-0.16644 2.71198,-0.15655 2.18281,0.018 2.18281,0.018 2.18281,-0.9917 0,-1.11624 1.15652,-7.19493 1.58162,-8.31304 0.33401,-0.8785 0.79963,-0.64731 0.79963,0.39705 0,0.75346 0.0399,0.77778 1.25677,0.76709 1.25677,-0.011 1.25677,-0.011 3.60188,-3.37343 1.28981,-1.84932 2.56798,-3.74935 2.84038,-4.2223 0.71154,-1.23538 1.12917,-1.10949 0.97112,0.29276 -0.19123,1.69659 -1.21304,3.71363 -3.20133,6.31941 -2.41063,3.15928 -2.35688,3.41779 0.42377,2.03817 0.89627,-0.44469 2.13002,-1.21859 2.74167,-1.71979 1.31157,-1.07474 1.42022,-1.09893 1.41891,-0.31596 -0.003,1.51321 -2.10434,3.50479 -4.5594,4.32023 -0.74095,0.2461 -1.60736,0.74993 -1.92536,1.11962 -0.46804,0.54414 -0.87603,0.69371 -2.14197,0.78528 -1.5638,0.11312 -1.5638,0.11312 -2.0356,1.99553 -0.2595,1.03532 -0.61554,1.97376 -0.79122,2.08541 -0.32897,0.20908 -3.87578,0.23693 -4.81733,0.0378 z m 6.90197,-5.58546 c 0.15807,-0.10691 0.42973,-0.60994 0.60371,-1.11784 0.27375,-0.79919 0.25497,-0.9683 -0.13952,-1.25677 -0.89667,-0.65566 -1.14845,-0.4097 -1.14845,1.12189 0,1.43117 0.11343,1.63883 0.68426,1.25272 z m 23.27114,3.76734 c -1.03753,-1.03753 -1.67737,-2.1891 -2.42174,-4.3586 -0.90946,-2.65069 -0.56187,-12.96458 0.43693,-12.96458 0.3052,0 0.47822,1.49295 0.78191,6.74687 0.2726,4.71612 0.71212,7.17108 1.57711,8.80902 0.51783,0.98057 0.51783,0.98057 0.52953,-0.10925 0.0182,-1.69433 0.72184,-5.32964 1.43814,-7.42985 1.22367,-3.58783 4.20898,-8.53726 4.80057,-7.959 0.10696,0.10455 -0.52506,2.06908 -1.40448,4.36563 -1.75774,4.59021 -2.38933,6.61638 -3.23972,10.39325 -0.77181,3.42782 -0.7759,3.43958 -1.19495,3.43958 -0.20363,0 -0.79011,-0.41988 -1.3033,-0.93307 z M 209.89554,137.7416 c 0,-0.0818 0.20065,-0.56953 0.44588,-1.08379 0.43969,-0.92203 0.4687,-0.93502 2.08864,-0.93502 2.52774,0 6.73642,-0.47121 10.91185,-1.22171 2.08399,-0.37457 3.85359,-0.61653 3.93244,-0.53768 0.25716,0.25716 -1.51268,1.16304 -3.65658,1.87161 -1.15425,0.38148 -3.43403,0.91728 -5.06616,1.19065 -3.07547,0.51513 -8.65607,0.97669 -8.65607,0.71594 z m -6.81702,-0.56293 c -2.70327,-0.49002 -5.48523,-1.3735 -5.90048,-1.87385 -0.31643,-0.38127 -0.23344,-0.4077 0.82503,-0.26275 3.16748,0.43378 6.1685,0.67658 8.38675,0.67855 1.34606,0.001 2.44739,0.0731 2.44739,0.15976 0,0.0867 -0.24623,0.5034 -0.54718,0.92604 -0.48863,0.68622 -0.6939,0.76589 -1.91823,0.74457 -0.75408,-0.0131 -2.23605,-0.18068 -3.29328,-0.37232 z m -3.23714,-7.81005 c 5.14612,-2.86659 9.41346,-7.11165 13.56039,-13.48958 3.2186,-4.95018 5.94829,-11.05914 7.09349,-15.875 0.32874,-1.38245 0.68268,-2.611665 0.78652,-2.731592 0.10385,-0.119927 0.32948,0.743919 0.50139,1.919657 0.57566,3.936955 1.63815,6.609695 3.23615,8.140715 2.47499,2.37125 5.55267,2.14577 8.30702,-0.60859 2.21385,-2.21384 3.28564,-4.79669 4.43555,-10.688942 0.18459,-0.945885 0.44182,-1.697523 0.57161,-1.670307 0.12979,0.02722 0.49091,0.801123 0.80248,1.719792 0.73906,2.179111 1.12507,2.904086 3.56599,6.697387 2.48595,3.86328 2.70485,4.27199 2.59367,4.84251 -0.19987,1.02575 -4.29926,-3.54384 -6.12982,-6.83291 -0.82786,-1.487475 -0.9542,-1.613998 -0.95683,-0.958205 -0.01,2.465125 -1.77074,6.431805 -3.73535,8.414615 -1.6141,1.62904 -3.14378,2.37865 -5.18898,2.54282 -3.59328,0.28844 -6.32436,-1.81189 -7.71889,-5.9362 -0.28704,-0.8489 -0.57391,-1.36487 -0.63749,-1.14659 -2.43295,8.35279 -6.40548,15.30082 -11.76188,20.57175 -3.25905,3.20704 -7.4508,5.73542 -10.01366,6.04004 -1.29574,0.154 -1.29574,0.154 0.68864,-0.95137 z m 24.14323,-1.31585 c -0.67545,-0.41183 -0.8599,-0.70201 -0.8599,-1.35279 0,-0.73846 0.0647,-0.80807 0.59531,-0.64061 1.44143,0.45493 2.08054,0.45785 2.57345,0.0118 0.58341,-0.52798 1.06457,-0.33623 1.06457,0.42424 0,0.86682 -0.46463,1.48023 -1.35681,1.79124 -1.07311,0.37409 -1.00694,0.38176 -2.01662,-0.23385 z m 9.66065,0.11211 c -0.76551,-0.41536 -1.23481,-1.56908 -0.81076,-1.99314 0.15946,-0.15945 0.58439,-0.11153 1.15803,0.13062 0.83329,0.35174 0.97744,0.33857 1.79295,-0.16384 0.73606,-0.45345 0.92652,-0.48361 1.12043,-0.17738 0.39395,0.62215 0.27378,1.03904 -0.53168,1.8445 -0.85286,0.85286 -1.63055,0.95524 -2.72897,0.35924 z m -8.65759,-3.12912 c -0.32626,-0.85813 -0.34732,-6.15208 -0.031,-7.78894 0.50267,-2.60106 1.33129,-1.71221 1.53915,1.65102 0.15187,2.45733 -0.30799,5.93247 -0.85828,6.48587 -0.3235,0.32534 -0.41189,0.27801 -0.64988,-0.34795 z m 9.53886,0.14991 c -0.73548,-1.37425 -0.5556,-7.55575 0.26446,-9.08804 0.30647,-0.57264 0.31132,-0.5713 0.71759,0.19775 0.73283,1.38723 0.49806,7.86771 -0.32584,8.99446 -0.32837,0.44906 -0.36308,0.44355 -0.65621,-0.10417 z m 17.43776,-3.70937 c 0,-0.32071 0.78536,-0.96423 1.8115,-1.48432 0.65639,-0.3327 1.39233,-0.42651 2.84488,-0.36264 1.07769,0.0474 1.95916,0.0618 1.95882,0.0319 -3.4e-4,-0.0298 -1.19124,-0.89839 -2.64645,-1.93016 -1.45521,-1.03177 -2.64583,-1.9805 -2.64583,-2.10829 0,-0.46558 1.41125,-1.89314 2.34515,-2.37226 0.95819,-0.49158 0.95819,-0.49158 -0.23046,-0.78681 -3.32651,-0.82623 -3.57452,-0.96122 -2.84229,-1.54703 1.15234,-0.92193 3.52199,-0.66927 4.69148,0.50022 1.22538,1.22539 1.05898,1.79241 -0.84358,2.87459 -0.89544,0.50932 -1.67168,1.06165 -1.72498,1.2274 -0.0533,0.16575 0.99666,1.23666 2.33327,2.3798 2.409,2.0603 2.42353,2.07999 1.66591,2.25724 -0.42036,0.0983 -2.04249,0.48595 -3.60473,0.86135 -3.22435,0.77479 -3.11269,0.75833 -3.11269,0.45897 z m -1.50679,-10.79565 c -0.092,-0.23974 -0.0349,-0.7865 0.12682,-1.21501 0.29408,-0.77911 0.29408,-0.77911 -1.26084,-0.59864 -1.59203,0.18477 -2.65085,0.0211 -2.65085,-0.40967 0,-0.42482 2.6416,-1.59881 3.92322,-1.74357 1.26636,-0.14304 3.23859,0.34057 3.39962,0.83361 0.12905,0.39514 -2.51885,3.56917 -2.97753,3.56917 -0.21625,0 -0.46844,-0.19615 -0.56044,-0.43589 z"
         id="path518" /></g></g></svg>
