<?xml version="1.0" encoding="UTF-8" standalone="no"?>
<!-- Created with Inkscape (http://www.inkscape.org/) -->

<svg
   width="49.297333mm"
   height="88.774185mm"
   viewBox="0 0 49.297333 88.774186"
   version="1.1"
   id="svg5"
   xml:space="preserve"
   inkscape:version="1.2.1 (9c6d41e410, 2022-07-14, custom)"
   sodipodi:docname="jeff.svg"
   xmlns:inkscape="http://www.inkscape.org/namespaces/inkscape"
   xmlns:sodipodi="http://sodipodi.sourceforge.net/DTD/sodipodi-0.dtd"
   xmlns="http://www.w3.org/2000/svg"
   xmlns:svg="http://www.w3.org/2000/svg"><sodipodi:namedview
     id="namedview7"
     pagecolor="#ffffff"
     bordercolor="#666666"
     borderopacity="1.0"
     inkscape:showpageshadow="2"
     inkscape:pageopacity="0.0"
     inkscape:pagecheckerboard="0"
     inkscape:deskcolor="#d1d1d1"
     inkscape:document-units="mm"
     showgrid="false"
     inkscape:zoom="2"
     inkscape:cx="-44.25"
     inkscape:cy="213.5"
     inkscape:window-width="1920"
     inkscape:window-height="1004"
     inkscape:window-x="0"
     inkscape:window-y="0"
     inkscape:window-maximized="1"
     inkscape:current-layer="layer1" /><defs
     id="defs2" /><g
     inkscape:label="Livello 1"
     inkscape:groupmode="layer"
     id="layer1"
     transform="translate(-67.182886,-99.428266)"><path
       style="fill:#000000;stroke-width:0.264583"
       d="m 82.592535,187.96114 c -5.187283,-0.45883 -6.220814,-1.05004 -6.879827,-3.93548 -0.174101,-0.76229 -0.54869,-2.1599 -0.832421,-3.10578 -0.283729,-0.94589 -1.287026,-5.58181 -2.229549,-10.30206 -0.942525,-4.72025 -2.12853,-10.18675 -2.63557,-12.14779 -0.894371,-3.45909 -1.440992,-6.69333 -1.074335,-6.3566 0.09907,0.091 0.835332,1.99599 1.636133,4.23333 1.442159,4.02924 3.66459,12.51259 5.016611,19.14916 0.385397,1.89177 0.860837,3.91583 1.056536,4.49792 0.195699,0.58208 0.551719,1.92566 0.791159,2.98572 0.332468,1.47193 0.588397,2.02768 1.083019,2.35176 0.772356,0.50607 7.660845,1.21179 16.239078,1.66368 3.128701,0.16481 6.105261,0.37361 6.614581,0.464 0.92604,0.16434 0.92604,0.16434 0.13229,0.39776 -1.36555,0.40157 -14.724548,0.47528 -18.917705,0.10438 z m 22.881435,-1.00581 c -0.15852,-0.41311 1.09294,-6.1652 2.6371,-12.12087 0.50936,-1.96453 1.40588,-6.36984 1.99228,-9.78958 1.06408,-6.20547 1.69376,-8.80402 2.70881,-11.17865 0.50796,-1.18836 1.19024,-1.78798 0.90318,-0.79375 -0.20491,0.70967 -0.87935,5.27652 -1.49415,10.1174 -0.80204,6.31513 -1.42637,9.25456 -3.17116,14.93017 -1.29237,4.20392 -2.92986,8.68937 -3.32999,9.12155 -0.053,0.0572 -0.16369,-0.0716 -0.24607,-0.28627 z M 76.374827,152.05257 c -1.018645,-0.0941 -3.012942,-0.18592 -4.43177,-0.20399 -1.418828,-0.0181 -2.579687,-0.14349 -2.579687,-0.27869 0,-0.50838 3.047997,-0.84449 8.380811,-0.92417 3.030397,-0.0453 8.129188,-0.20725 11.330646,-0.35993 4.05697,-0.19347 6.62259,-0.19365 8.466667,-5.3e-4 1.693616,0.17733 3.931326,0.19475 6.217706,0.0484 4.2167,-0.26989 7.55973,-0.26362 9.39271,0.0176 1.78385,0.27371 1.02106,0.54091 -2.24896,0.78778 -1.38245,0.10437 -3.40651,0.37157 -4.49792,0.59378 -1.60159,0.32608 -4.51072,0.41239 -15.081245,0.44745 -7.203281,0.0239 -13.930312,-0.0336 -14.948958,-0.1277 z m 38.540903,-3.34571 c -0.38353,-2.51972 -0.37221,-4.62055 0.0387,-7.18856 0.33751,-2.1092 0.70026,-2.55586 1.19458,-1.47095 0.49073,1.07704 0.41667,8.94287 -0.0935,9.92942 -0.22202,0.42933 -0.49907,0.78061 -0.61568,0.78061 -0.11661,0 -0.35246,-0.92274 -0.52412,-2.05052 z m -47.576872,1.19062 c -0.234366,-0.67048 -0.195429,-5.88842 0.05528,-7.40833 0.09065,-0.54955 0.316021,-0.99219 0.505182,-0.99219 1.088702,0 1.493319,5.37782 0.582271,7.73906 -0.535561,1.38807 -0.829315,1.55811 -1.142733,0.66146 z m 31.128682,-8.9233 c -1.673494,-0.11074 -5.900213,-0.21965 -9.392713,-0.242 -3.4925,-0.0224 -8.076407,-0.21874 -10.186459,-0.4364 -2.110052,-0.21766 -5.560733,-0.47168 -7.668179,-0.56448 -3.831722,-0.16874 -3.831722,-0.16874 -2.778125,-0.5906 0.924571,-0.3702 2.657473,-0.41215 14.150471,-0.34252 9.189038,0.0557 14.478434,0.20365 17.727085,0.49592 2.54661,0.2291 6.81948,0.41961 9.49525,0.42335 4.06405,0.006 4.76076,0.0614 4.23165,0.33866 -1.74401,0.91378 -9.09642,1.34706 -15.57898,0.91807 z m 10.61022,-1.78276 c -0.0148,-0.17665 0.3379,-2.54037 0.78376,-5.25272 0.44586,-2.71235 0.7589,-4.9833 0.69565,-5.04655 -0.0632,-0.0633 -0.42855,0.0279 -0.81177,0.20247 -0.38322,0.1746 -0.77009,0.24414 -0.85972,0.15452 -0.34142,-0.34142 0.20461,-1.51303 1.1578,-2.48431 0.99176,-1.01058 0.99176,-1.01058 0.98353,-3.92099 -0.005,-1.60073 -0.16636,-3.56526 -0.35963,-4.36563 -0.38367,-1.58883 -1.83609,-4.77996 -2.64198,-5.80473 -0.47694,-0.60648 -0.5719,-0.62607 -1.57607,-0.32522 -1.06856,0.32015 -1.06856,0.32015 -0.27699,1.82495 0.85522,1.62579 0.85103,2.45516 -0.0168,3.33988 -1.02761,1.04756 -8.977951,1.16998 -11.156959,0.1718 -0.865404,-0.39642 -1.558099,-1.81215 -1.558099,-3.18441 0,-1.33187 0.35591,-1.34806 0.749586,-0.0341 0.471741,1.57453 1.119285,1.99615 3.250819,2.11659 2.249633,0.12711 6.612183,-0.17706 7.130073,-0.49713 0.32081,-0.19827 0.30319,-0.37184 -0.1169,-1.15191 -1.20978,-2.24642 -1.60183,-2.47958 -4.92816,-2.93083 -4.833529,-0.65573 -4.87247,-0.6645 -4.519257,-1.01783 0.445254,-0.44541 7.624527,-0.42784 8.408427,0.0206 0.48291,0.27624 0.74169,0.25665 1.52136,-0.11515 0.51671,-0.2464 0.93947,-0.52165 0.93947,-0.61167 0,-0.09 -0.39917,-0.55057 -0.88703,-1.02343 -0.88704,-0.85974 -0.88704,-0.85974 -1.86893,-0.28041 -1.27277,0.75095 -1.64048,0.4068 -0.94727,-0.88659 0.52361,-0.97694 0.52361,-0.97694 -1.36766,-2.30511 -2.38809,-1.67709 -3.186776,-1.7462 -3.616197,-0.31293 -0.345366,1.15272 -1.180558,2.04166 -1.647243,1.75323 -0.214371,-0.13249 -0.26053,-0.6445 -0.145971,-1.6192 0.161817,-1.37681 0.147117,-1.42128 -0.43077,-1.30329 -0.329068,0.0672 -1.815627,0.1941 -3.303463,0.28202 -4.525386,0.26741 -10.127134,1.38363 -10.127134,2.01796 0,0.14099 0.238125,0.72311 0.529166,1.2936 1.104286,2.16458 0.34203,2.49655 -1.464471,0.6378 -1.180147,-1.21429 -1.180147,-1.21429 -2.887393,0.004 -0.938985,0.67004 -1.776488,1.3303 -1.86112,1.46724 -0.08463,0.13694 0.153686,0.4505 0.529597,0.69681 0.514617,0.33719 0.75856,0.37275 0.987391,0.14391 0.381433,-0.38143 3.247307,-0.39182 6.39787,-0.0232 3.385903,0.39616 3.727224,0.48144 3.367298,0.84137 -0.182177,0.18218 -1.898111,0.35751 -4.390968,0.44868 -2.744793,0.10037 -4.200956,0.25866 -4.423095,0.4808 -0.182142,0.18214 -0.379637,1.09239 -0.43888,2.02278 -0.107712,1.69161 -0.107712,1.69161 2.714995,1.88401 4.87256,0.33211 6.063121,-0.0264 7.087141,-2.13414 0.724154,-1.49053 1.118473,-1.51995 0.885994,-0.0661 -0.249134,1.55799 -1.079243,2.77305 -2.363832,3.46002 -1.003417,0.53661 -1.431024,0.58348 -4.972763,0.54506 -2.190107,-0.0238 -4.107841,-0.16668 -4.410583,-0.3287 -0.995549,-0.5328 -1.357576,-3.13877 -0.680986,-4.90193 0.06547,-0.17062 -0.300696,-0.51037 -0.813707,-0.75501 -0.932747,-0.44479 -0.932747,-0.44479 -1.730262,1.13508 -0.438634,0.86892 -0.970531,2.32152 -1.181994,3.22798 -0.384479,1.64812 -0.384479,1.64812 0.533392,2.40471 1.831353,1.50955 1.825681,2.69051 -0.0092,1.92383 -0.546251,-0.22823 -1.056071,-0.41497 -1.132938,-0.41497 -0.231237,0 0.178692,5.51069 0.610137,8.20208 0.221615,1.38245 0.762202,3.8674 1.201304,5.52211 0.439105,1.65472 0.747077,3.05987 0.684384,3.12256 -0.132334,0.13233 -1.633608,-3.40141 -1.902788,-4.47884 -0.119692,-0.47909 -0.498088,-0.8789 -1.103899,-1.16638 -1.569903,-0.74497 -1.950995,-2.73199 -0.451803,-2.35572 0.568672,0.14273 0.65631,0.0931 0.534887,-0.30266 -0.43053,-1.4034 -0.956707,-5.46281 -0.966091,-7.45333 -0.01008,-2.13671 -0.06011,-2.33819 -0.79375,-3.1965 -0.887519,-1.03832 -1.059974,-2.00343 -0.319977,-1.79066 0.254662,0.0732 0.650542,0.21092 0.879734,0.30598 0.329277,0.13658 0.509606,-0.16127 0.859438,-1.41955 0.427998,-1.53942 0.42517,-1.62118 -0.08499,-2.45793 -0.574966,-0.94303 -0.697712,-2.18568 -0.243615,-2.46633 0.157345,-0.0972 0.623847,0.14679 1.036671,0.5423 0.750589,0.71911 0.750589,0.71911 1.159381,-0.0714 0.636817,-1.23147 2.945553,-3.62724 4.386578,-4.55194 1.192721,-0.76536 1.284222,-0.89527 1.05509,-1.49793 -0.648846,-1.70659 -0.03807,-2.1868 1.173255,-0.92244 0.729395,0.76132 0.729395,0.76132 1.96773,0.29474 0.681085,-0.25663 1.95271,-0.61943 2.825834,-0.80623 0.873126,-0.18681 1.625821,-0.36768 1.672658,-0.40195 0.04683,-0.0343 -0.108816,-0.63362 -0.345888,-1.3319 -0.420041,-1.23721 -0.364834,-2.484744 0.109961,-2.484744 0.391928,0 1.549511,1.526074 1.906553,2.513454 0.310962,0.85995 0.411456,0.9239 1.406224,0.89483 2.064652,-0.0603 2.606637,-0.29354 2.848064,-1.22547 0.297741,-1.1493 1.179658,-1.18645 1.570199,-0.0661 0.250606,0.71888 0.385921,0.79375 1.43465,0.79375 1.024364,0 1.20631,-0.0935 1.577139,-0.81063 0.499076,-0.9651 0.99826,-0.89476 1.183776,0.16681 0.11243,0.64337 0.29091,0.79322 1.1017,0.92501 0.53215,0.0865 1.2876,0.36698 1.67878,0.62329 0.39119,0.25631 0.93931,0.40638 1.21806,0.33349 0.58555,-0.15313 1.29125,0.44725 1.29125,1.09853 0,0.24564 0.2455,0.59994 0.54554,0.78732 0.47217,0.29487 0.76255,0.23226 2.15893,-0.46552 0.88736,-0.44342 1.76593,-0.80622 1.95239,-0.80622 0.82989,0 0.59291,0.66821 -0.64158,1.80909 -1.33573,1.23442 -1.33573,1.23442 0.63178,3.30669 1.08214,1.13975 1.96752,2.25935 1.96752,2.488 0,0.36983 0.0534,0.36739 0.48386,-0.0222 0.26612,-0.24083 0.74237,-0.43788 1.05833,-0.43788 0.44621,0 0.57448,0.15781 0.57448,0.70677 0,0.38872 -0.20095,0.92882 -0.44656,1.20021 -0.46658,0.51557 -0.46516,0.52471 0.47535,3.05115 0.22056,0.59251 0.22056,0.59251 1.19114,-0.0661 1.2495,-0.84793 1.69049,-0.83908 1.69049,0.0339 0,0.45524 -0.36269,1.05527 -1.05834,1.75092 -1.05833,1.05833 -1.05833,1.05833 -1.05833,4.06991 0,2.50057 0.0673,3.01158 0.39688,3.01158 0.56652,0 0.49026,0.68886 -0.17604,1.59008 -0.37965,0.51351 -0.82492,2.00481 -1.32002,4.42106 -0.69069,3.37076 -2.25158,8.82726 -2.31351,8.08749 z m -11.40569,-5.6006 c -2.050263,-0.6669 -3.962669,-2.43566 -5.135162,-4.74946 -0.945819,-1.86649 -1.183571,-3.16157 -0.905703,-4.93353 0.634333,-4.04508 2.815701,-5.26302 5.96206,-3.32882 1.746755,1.0738 1.861955,1.61557 1.251295,5.88474 -0.20806,1.45453 0.47401,3.14354 1.80822,4.47776 0.69451,0.6945 0.93812,0.78481 1.72093,0.63795 1.15423,-0.21653 1.06439,0.19098 -0.28243,1.28105 -0.75261,0.60914 -1.2876,0.80523 -2.36437,0.86665 -0.76542,0.0436 -1.69009,-0.0177 -2.05484,-0.13634 z m 1.27409,-2.34646 c -0.52343,-0.54571 -1.21761,-1.5232 -1.542623,-2.17222 -0.503028,-1.00449 -0.566057,-1.43744 -0.423698,-2.91042 0.09198,-0.95171 0.238929,-2.05171 0.326554,-2.44444 0.306485,-1.37366 -2.265487,-2.90128 -3.303352,-1.96202 -0.253114,0.22906 -0.796753,1.12062 -1.20809,1.98123 -0.747887,1.56476 -0.747887,1.56476 0.65497,3.59406 1.661166,2.40297 3.316939,3.93347 4.838819,4.47273 1.63745,0.58021 1.69948,0.52748 0.65742,-0.55892 z m -16.924427,1.26346 c -2.168419,-0.65508 -3.194661,-2.04314 -1.325176,-1.79239 1.600904,0.21473 1.803593,-0.0386 2.006193,-2.5075 0.239384,-2.91715 0.793953,-4.77322 1.752285,-5.8647 1.318975,-1.50223 3.319759,-2.0125 4.440693,-1.13253 0.535056,0.42004 1.325578,2.10761 1.635861,3.49215 0.251894,1.124 0.2159,1.34992 -0.376,2.35992 -0.908584,1.55038 -3.944035,4.3206 -5.557494,5.0719 -1.456505,0.67821 -1.5309,0.68899 -2.576362,0.37315 z m 5.608774,-4.9248 c 2.385745,-1.98566 2.385745,-1.98566 1.915033,-2.78723 -0.258893,-0.44085 -0.788046,-1.17946 -1.175896,-1.64134 -0.693751,-0.82617 -0.717341,-0.8327 -1.455208,-0.40314 -1.071883,0.62402 -1.866681,2.19345 -2.192037,4.32846 -0.155012,1.01722 -0.344294,2.12361 -0.420624,2.45866 -0.123973,0.54417 -0.08106,0.57829 0.4021,0.31971 0.297488,-0.15921 1.614473,-1.18301 2.926632,-2.27512 z m -11.568594,0.88829 c -0.82446,-0.90494 -1.142293,-1.65609 -1.142293,-2.69966 0,-0.76028 0.100568,-0.94344 0.518014,-0.94344 0.735322,0 1.92375,2.10083 1.814797,3.20809 -0.105074,1.06786 -0.486857,1.20736 -1.190518,0.43501 z m 29.644287,-2.98363 c -0.44877,-1.16948 0.8983,-3.89789 2.00267,-4.05629 0.58763,-0.0843 0.6157,-0.0262 0.47912,0.99211 -0.0798,0.5949 -0.45909,1.61745 -0.84288,2.27234 -0.70622,1.20507 -1.35926,1.52058 -1.63891,0.79184 z m -16.697519,-12.6956 c -0.995854,-0.43283 -1.124487,-1.06041 -0.264583,-1.29086 0.327422,-0.0877 1.614353,-0.16116 2.859847,-0.16315 2.28365,-0.004 3.445332,0.37806 3.057993,1.00479 -0.501335,0.81118 -4.1529,1.10134 -5.653257,0.44922 z"
       id="path233" /></g></svg>
