<?xml version="1.0" encoding="UTF-8" standalone="no"?>
<!-- Created with Inkscape (http://www.inkscape.org/) -->

<svg
   width="49.199306mm"
   height="88.469574mm"
   viewBox="0 0 49.199307 88.469575"
   version="1.1"
   id="svg5"
   xml:space="preserve"
   inkscape:version="1.2.1 (9c6d41e410, 2022-07-14, custom)"
   sodipodi:docname="jeff-color.svg"
   xmlns:inkscape="http://www.inkscape.org/namespaces/inkscape"
   xmlns:sodipodi="http://sodipodi.sourceforge.net/DTD/sodipodi-0.dtd"
   xmlns="http://www.w3.org/2000/svg"
   xmlns:svg="http://www.w3.org/2000/svg"><sodipodi:namedview
     id="namedview7"
     pagecolor="#ffffff"
     bordercolor="#666666"
     borderopacity="1.0"
     inkscape:showpageshadow="2"
     inkscape:pageopacity="0.0"
     inkscape:pagecheckerboard="0"
     inkscape:deskcolor="#d1d1d1"
     inkscape:document-units="mm"
     showgrid="false"
     inkscape:zoom="2.0636447"
     inkscape:cx="89.404925"
     inkscape:cy="166.21078"
     inkscape:window-width="1920"
     inkscape:window-height="1004"
     inkscape:window-x="0"
     inkscape:window-y="0"
     inkscape:window-maximized="1"
     inkscape:current-layer="layer1" /><defs
     id="defs2" /><g
     inkscape:label="Livello 1"
     inkscape:groupmode="layer"
     id="layer1"
     transform="translate(-261.55001,-74.237583)"><g
       id="g690"
       transform="translate(-2.0292406,0.40431593)"><path
         style="fill:#007e00;stroke-width:0.264583"
         d="m 305.6565,112.36403 c -0.0201,-0.15838 0.99757,-6.77277 1.42803,-9.28113 0.12282,-0.71575 0.10805,-0.72644 -0.45691,-0.33073 -0.56408,0.3951 -1.52442,0.5611 -1.52442,0.2635 0,-0.401 0.83856,-1.66188 1.56387,-2.35146 0.81366,-0.773575 0.81738,-0.789918 0.81738,-3.5957 0,-4.111281 -0.85551,-7.092513 -2.9516,-10.285634 -0.59087,-0.900104 -0.59087,-0.900104 0.64624,-0.760664 0.86765,0.0978 1.32728,0.03079 1.53904,-0.224375 0.16607,-0.200099 0.46969,-0.363816 0.67472,-0.363816 0.64088,0 0.69799,0.75144 0.13025,1.713693 -0.54291,0.920162 -0.54306,0.929588 -0.0333,2.052753 0.28168,0.62059 0.51477,1.336705 0.51796,1.591367 0.008,0.616452 0.1806,0.585615 1.1124,-0.198438 0.9,-0.757305 1.80383,-0.872433 1.80383,-0.229769 0,0.237428 -0.50602,0.937582 -1.12448,1.555896 -1.12448,1.124207 -1.12448,1.124207 -1.12448,4.296825 0,2.280242 0.0855,3.139895 0.30397,3.056275 0.62465,-0.239086 0.64592,0.500764 0.038,1.320227 -0.44606,0.60124 -0.87693,2.00487 -1.47873,4.81721 -0.75848,3.54457 -1.81761,7.45852 -1.88177,6.95397 z m -36.07619,-3.3143 c -0.37553,-0.98317 -0.75984,-2.05547 -0.85403,-2.3829 -0.0942,-0.32742 -0.32922,-0.59531 -0.52231,-0.59531 -0.52304,0 -1.99452,-1.46686 -1.99452,-1.98827 0,-0.35288 0.17549,-0.42728 0.79375,-0.33654 0.92742,0.13612 0.9183,0.1966 0.38772,-2.56998 -0.22326,-1.16417 -0.47657,-3.426354 -0.56291,-5.027083 -0.13505,-2.503854 -0.23924,-3.002818 -0.74586,-3.571876 -1.16366,-1.307075 -1.08546,-2.082347 0.14583,-1.445626 0.87296,0.451427 0.86377,0.462918 1.29072,-1.614416 0.3058,-1.487866 0.28946,-1.671066 -0.22414,-2.513542 -1.08628,-1.781881 -0.42383,-2.840517 0.89022,-1.42263 0.52898,0.570784 0.66246,0.613593 0.85279,0.273501 0.22862,-0.408532 1.40521,-0.312048 1.40521,0.115232 0,0.115483 -0.35381,0.958102 -0.78625,1.872487 -0.43243,0.914386 -0.92712,2.292005 -1.09929,3.061378 -0.31305,1.398859 -0.31305,1.398859 0.98468,2.793008 1.17876,1.266333 1.2448,1.401687 0.72033,1.476351 -0.31757,0.04521 -0.94265,-0.106675 -1.38906,-0.337524 -0.81166,-0.419724 -0.81166,-0.419724 -0.81166,1.826932 0,2.94678 0.64315,7.462658 1.58199,11.107988 0.41515,1.61195 0.72439,2.96133 0.6872,2.99861 -0.0372,0.0373 -0.37488,-0.73661 -0.75041,-1.71979 z m 2.45668,-7.0684 c -0.69315,-1.12153 -0.98019,-2.646663 -0.54836,-2.913549 0.45995,-0.284269 1.25735,0.563965 1.7549,1.866789 0.74902,1.96127 -0.15606,2.74649 -1.20654,1.04676 z m 30.07745,-2.530795 c -0.35156,-1.344388 1.48362,-4.500114 2.20408,-3.79006 0.43262,0.426371 0.11354,1.647436 -0.81175,3.106472 -0.84727,1.336013 -1.17911,1.498933 -1.39233,0.683588 z m -30.9514,-16.470616 c 0.69526,-0.713115 1.7999,-1.66259 2.45474,-2.109945 0.65484,-0.447355 1.22864,-0.842018 1.27511,-0.877029 0.0465,-0.03501 -0.0619,-0.552265 -0.24083,-1.149454 -0.17892,-0.597189 -0.24492,-1.166189 -0.14667,-1.264445 0.0983,-0.09826 0.57944,0.209816 1.0693,0.684604 0.89065,0.863251 0.89065,0.863251 2.97893,0.203563 1.14855,-0.362828 2.53191,-0.742914 3.07413,-0.844635 0.54223,-0.101722 0.98586,-0.216689 0.98586,-0.255482 0,-0.03879 -0.17859,-0.497969 -0.39687,-1.02039 -0.55848,-1.336639 -0.53144,-2.619066 0.0529,-2.50654 0.36438,0.07017 1.5046,1.845045 1.96456,3.058047 0.0606,0.159716 0.80793,0.198409 1.91766,0.09928 1.79597,-0.160427 1.8221,-0.173863 2.11666,-1.088474 0.37479,-1.163703 1.0128,-1.195076 1.34515,-0.06615 0.23979,0.814496 0.31975,0.859896 1.51456,0.859896 1.13396,0 1.30288,-0.0802 1.67187,-0.79375 0.22576,-0.436562 0.52945,-0.79375 0.67487,-0.79375 0.14542,0 0.33584,0.357188 0.42315,0.79375 0.11769,0.588447 0.30681,0.79375 0.73119,0.79375 0.31485,0 1.04411,0.253332 1.62058,0.56296 0.57647,0.309629 1.40532,0.577519 1.84188,0.595313 0.595,0.02425 0.81384,0.173178 0.87399,0.594784 0.0441,0.309337 0.35059,0.816414 0.68102,1.126837 0.60078,0.564405 0.60078,0.564405 2.03643,-0.22691 1.41925,-0.782282 2.62627,-1.035515 2.62627,-0.550997 0,0.137448 -0.59338,0.761028 -1.31862,1.385735 -1.31862,1.13583 -1.31862,1.13583 0.19015,2.660513 1.50878,1.524682 1.50878,1.524682 0.44627,1.524682 -0.88973,0 -1.22938,-0.17091 -2.08886,-1.051095 -1.02637,-1.051095 -1.02637,-1.051095 -1.87087,-0.529167 -1.46751,0.906976 -1.88118,0.556837 -0.92635,-0.784093 0.51713,-0.726252 0.51713,-0.726252 -1.14952,-1.949991 -2.82954,-2.077598 -3.70695,-2.229489 -4.1592,-0.720015 -0.1732,0.578081 -0.56493,1.32033 -0.87052,1.649444 -0.55561,0.598387 -0.55561,0.598387 -0.63438,-1.051056 -0.0763,-1.596574 -0.10169,-1.649437 -0.79375,-1.649223 -1.22751,3.71e-4 -6.44839,0.514028 -8.38789,0.825229 -1.77375,0.284604 -5.15938,1.208461 -5.15938,1.407867 0,0.05246 0.29131,0.724157 0.64736,1.492652 0.35605,0.768495 0.58695,1.495014 0.51311,1.614488 -0.21122,0.341757 -1.03336,-0.213048 -2.01481,-1.35965 -0.90102,-1.052643 -0.90102,-1.052643 -1.94157,-0.363742 -0.5723,0.378895 -1.43406,1.059512 -1.91501,1.51248 -0.66478,0.626099 -1.1265,0.827548 -1.92558,0.840128 -1.05111,0.01655 -1.05111,0.01655 0.21301,-1.280025 z"
         id="path694" /><path
         style="fill:#000000;stroke-width:0.264583"
         d="m 284.20111,162.26014 c -1.0914,-0.0492 -3.57489,-0.21441 -5.51884,-0.36709 -5.10753,-0.40115 -6.00272,-0.9756 -6.67076,-4.2807 -0.15589,-0.77126 -0.51025,-2.11666 -0.78748,-2.98979 -0.27722,-0.87312 -1.16732,-4.98078 -1.978,-9.12812 -0.81068,-4.14734 -1.9946,-9.68375 -2.63093,-12.30313 -2.0382,-8.38995 -1.86799,-8.7441 0.62828,-1.3073 1.46404,4.36162 3.29405,11.4881 4.37826,17.05001 0.24112,1.23693 0.78803,3.55865 1.21535,5.15938 0.42733,1.60073 0.90125,3.41563 1.05318,4.03313 0.19677,0.79977 0.48272,1.2278 0.9941,1.48805 0.89401,0.45497 7.62782,1.12098 16.434,1.62541 3.69615,0.21172 6.76906,0.43373 6.82869,0.49335 0.30771,0.30772 -10.09247,0.70058 -13.94585,0.5268 z m 17.73193,-1.59712 c -0.005,-0.89567 0.6369,-3.7763 2.49637,-11.19983 0.63788,-2.54662 1.60014,-7.24958 2.13835,-10.45104 1.02586,-6.10219 1.88966,-9.57725 2.78445,-11.20177 0.53376,-0.96907 0.53376,-0.96907 0.40865,-0.043 -0.0688,0.50932 -0.4343,3.12869 -0.81219,5.82083 -0.37789,2.69213 -0.86873,6.20448 -1.09077,7.80521 -0.48521,3.49802 -1.03941,5.77197 -2.78395,11.42283 -1.66309,5.38706 -3.1339,9.0615 -3.14091,7.84679 z m -27.86033,-34.48895 c -1.13223,-0.108 -3.45395,-0.28722 -5.15937,-0.39827 -9.64681,-0.62815 11.6404,-1.44276 28.91381,-1.10646 1.01865,0.0198 3.46223,-0.0657 5.43017,-0.19 3.09265,-0.19538 7.37796,-0.0392 7.08069,0.25806 -0.0542,0.0542 -1.40298,0.22139 -2.99737,0.37163 -1.5944,0.15024 -4.35885,0.51901 -6.14324,0.8195 -2.84831,0.47965 -3.65573,0.515 -6.61458,0.28962 -2.07006,-0.15769 -5.81999,-0.16955 -9.72025,-0.0307 -7.23789,0.25757 -7.95902,0.25668 -10.78986,-0.0133 z m 37.55509,-1.8463 c -0.5403,-1.67819 -0.71508,-4.66089 -0.42163,-7.19496 0.17368,-1.4998 0.40162,-2.96063 0.50653,-3.24628 0.18055,-0.49163 0.21018,-0.48456 0.55487,0.13229 0.40685,0.7281 0.67864,6.66493 0.39247,8.57319 -0.19896,1.32684 -0.82499,2.37951 -1.03224,1.73576 z m -47.96105,-0.68345 c -0.25284,-1.00735 0.0909,-7.5539 0.41355,-7.87656 0.51677,-0.51677 1.14171,1.67322 1.12142,3.9298 -0.0293,3.25411 -1.05006,5.87881 -1.53497,3.94676 z m 33.76353,-8.61725 c -2.25557,-0.098 -7.73245,-0.25228 -12.17083,-0.34286 -4.43839,-0.0906 -9.73667,-0.33884 -11.77396,-0.5517 -2.03729,-0.21286 -5.01386,-0.39903 -6.61458,-0.4137 -2.91042,-0.0267 -2.91042,-0.0267 -1.7198,-0.44905 1.79805,-0.63785 22.48133,-0.49025 31.48201,0.22466 3.56339,0.28303 8.08776,0.52215 10.05417,0.53137 3.78662,0.0178 3.94639,0.24667 0.51774,0.74181 -2.7895,0.40283 -5.07715,0.46356 -9.77475,0.25947 z m -3.25471,-7.47242 c -2.50944,-0.69116 -4.58344,-2.81529 -5.72318,-5.86153 -0.65633,-1.754206 -0.68845,-2.987113 -0.12706,-4.877523 0.8384,-2.823176 2.45544,-3.539777 5.05948,-2.24213 1.97898,0.986171 2.37066,1.935906 1.89354,4.591488 -0.43599,2.426665 -0.37872,3.019465 0.42442,4.393025 0.96831,1.65605 1.82392,2.3337 2.77103,2.19469 1.1177,-0.16404 1.0377,0.35466 -0.18362,1.1905 -1.26638,0.86667 -2.51456,1.05217 -4.11461,0.61148 z m 1.24471,-2.18785 c -0.53312,-0.53312 -1.26864,-1.62314 -1.6345,-2.42227 -0.62219,-1.35905 -0.64562,-1.55917 -0.36243,-3.096097 0.43447,-2.357922 0.38346,-2.869275 -0.35545,-3.563444 -0.45965,-0.431822 -0.99143,-0.625319 -1.76281,-0.641433 -1.10248,-0.02303 -1.10653,-0.01951 -2.10912,1.834175 -1.00451,1.85725 -1.00451,1.85725 0.3686,3.831309 2.28834,3.28982 4.41187,5.00385 6.22088,5.02125 0.56138,0.005 0.53554,-0.0628 -0.36517,-0.96349 z m -18.14733,0.6955 c -1.48893,-0.78642 -1.47893,-1.04911 0.0399,-1.04911 1.62664,0 1.71435,-0.15726 1.94044,-3.47887 0.0857,-1.25853 0.3473,-2.74681 0.58143,-3.307288 0.77352,-1.851733 2.52545,-3.268011 4.04252,-3.268011 1.2649,0 2.57049,1.854559 2.87631,4.08572 0.14177,1.034339 0.0536,1.353939 -0.69612,2.522219 -1.59068,2.47887 -5.09912,5.0373 -6.88343,5.01955 -0.50932,-0.005 -1.36481,-0.24096 -1.90108,-0.52421 z m 6.90224,-4.43317 c 1.10566,-0.93679 2.04784,-1.802326 2.09372,-1.923418 0.0459,-0.121091 -0.33959,-0.881446 -0.85661,-1.689678 -0.69863,-1.092149 -1.09802,-1.469512 -1.55527,-1.469512 -0.63924,0 -1.73522,0.994942 -2.2976,2.085775 -0.33257,0.645073 -1.03664,4.170923 -1.05325,5.274423 -0.009,0.61334 -0.009,0.61334 0.82474,0.0195 0.45868,-0.32661 1.7386,-1.3603 2.84427,-2.29708 z m -11.25925,-9.993734 c -0.63616,-0.636159 -0.67199,-0.810612 -0.58329,-2.840188 0.0945,-2.162398 0.0945,-2.162398 -1.35396,-2.741555 -0.79665,-0.318536 -1.48865,-0.699737 -1.53778,-0.847114 -0.0491,-0.147377 0.2112,-0.464868 0.57851,-0.705535 0.55419,-0.363122 0.82351,-0.386198 1.58276,-0.135621 0.50322,0.166076 1.04848,0.462863 1.2117,0.659527 0.24823,0.299097 0.42999,0.2911 1.11154,-0.0489 0.86982,-0.433922 2.56532,-0.379161 7.48299,0.241683 3.27035,0.412873 2.24666,0.750976 -2.85114,0.941677 -4.47403,0.167366 -4.24517,0.02547 -4.57561,2.836956 -0.16611,1.413371 -0.16611,1.413371 1.91782,1.636365 5.49687,0.5882 7.01608,0.191188 8.17609,-2.136649 0.65471,-1.313834 0.65471,-1.313834 0.65471,-0.242679 0,1.420746 -0.88499,2.712642 -2.3733,3.464515 -1.05875,0.534864 -1.56349,0.595312 -4.97083,0.595312 -3.71684,0 -3.80593,-0.01351 -4.47021,-0.677792 z m 19.8303,0.400118 c -0.61169,-0.120832 -1.34547,-0.344553 -1.63061,-0.497157 -0.63173,-0.338092 -1.44442,-2.360811 -1.29609,-3.225863 0.10627,-0.619798 0.11285,-0.61775 0.42634,0.132646 0.17513,0.419188 0.57103,1.116922 0.87977,1.550519 0.56136,0.788359 0.56136,0.788359 5.08664,0.687036 2.4889,-0.05573 4.66956,-0.192129 4.8459,-0.303115 0.43062,-0.271026 0.031,-1.297969 -1.06557,-2.73843 -0.7497,-0.984791 -1.01749,-1.137891 -2.43005,-1.389296 -1.58583,-0.282244 -5.44942,-0.810669 -6.03841,-0.825878 -0.17138,-0.0044 -0.0988,-0.131865 0.1612,-0.283199 0.69126,-0.402292 6.46795,-0.397365 7.67902,0.0065 0.89346,0.297987 1.15469,0.273124 2.298,-0.218715 1.60317,-0.689663 2.9478,-0.716718 3.5321,-0.07107 0.70999,0.784525 0.51873,1.021069 -0.95118,1.176421 -0.76398,0.08074 -1.7322,0.279023 -2.15159,0.440618 -0.69513,0.267845 -0.72718,0.334137 -0.36263,0.750105 0.67799,0.773619 1.25745,2.112832 1.25745,2.906126 0,1.070679 -0.51339,1.642682 -1.72688,1.924024 -1.27894,0.296517 -6.97665,0.282248 -8.51341,-0.02132 z m -6.48074,-5.000516 c -1.14944,-0.223528 -1.9306,-0.782262 -1.58161,-1.131256 0.40475,-0.404754 4.05317,-0.556685 5.29147,-0.220353 0.92434,0.251058 1.08616,0.380476 0.84262,0.67392 -0.16578,0.199755 -0.89482,0.490451 -1.62008,0.645993 -1.44021,0.30887 -1.50359,0.309555 -2.9324,0.0317 z"
         id="path692" /></g></g></svg>
