<?xml version="1.0" encoding="UTF-8" standalone="no"?>
<!-- Created with Inkscape (http://www.inkscape.org/) -->

<svg
   width="747.9859mm"
   height="748.07318mm"
   viewBox="0 0 747.9859 748.07318"
   version="1.1"
   id="svg5"
   xml:space="preserve"
   inkscape:version="1.2.1 (9c6d41e410, 2022-07-14, custom)"
   sodipodi:docname="logo.svg"
   xmlns:inkscape="http://www.inkscape.org/namespaces/inkscape"
   xmlns:sodipodi="http://sodipodi.sourceforge.net/DTD/sodipodi-0.dtd"
   xmlns="http://www.w3.org/2000/svg"
   xmlns:svg="http://www.w3.org/2000/svg"><sodipodi:namedview
     id="namedview7"
     pagecolor="#ffffff"
     bordercolor="#666666"
     borderopacity="1.0"
     inkscape:showpageshadow="2"
     inkscape:pageopacity="0.0"
     inkscape:pagecheckerboard="0"
     inkscape:deskcolor="#d1d1d1"
     inkscape:document-units="mm"
     showgrid="false"
     inkscape:zoom="0.25795559"
     inkscape:cx="1356.8227"
     inkscape:cy="1573.9143"
     inkscape:window-width="1920"
     inkscape:window-height="1004"
     inkscape:window-x="0"
     inkscape:window-y="0"
     inkscape:window-maximized="1"
     inkscape:current-layer="layer1" /><defs
     id="defs2" /><g
     inkscape:label="Livello 1"
     inkscape:groupmode="layer"
     id="layer1"
     transform="translate(277.55379,229.88842)"><ellipse
       style="fill:#ffffff;stroke-width:0.271095"
       id="path501"
       cx="96.439209"
       cy="144.14809"
       rx="373.99301"
       ry="374.0365" /><path
       style="fill:#000000;stroke-width:0.264583"
       d="M 85.7995,517.94456 C 41.101242,516.75375 -2.7164313,507.5626 -44.583755,490.59551 c -15.53368,-6.29518 -34.88776,-15.9036 -49.34479,-24.49751 -38.494855,-22.88302 -72.046305,-51.86373 -100.312185,-86.6466 -24.60261,-30.27497 -44.96837,-65.59341 -58.89102,-102.12916 -21.09567,-55.35917 -28.68025,-115.20784 -22.14688,-174.7573 3.72413,-33.944193 12.17947,-67.288256 25.22681,-99.4833384 6.29517,-15.5336826 15.9036,-34.8877556 24.4975,-49.3447926 22.88302,-38.494844 51.86374,-72.046289 86.6466,-100.312169 30.27498,-24.60261 65.593405,-44.96837 102.129175,-58.89102 55.359168,-21.09567 115.207839,-28.68025 174.757295,-22.14688 33.94419,3.72413 67.28824,12.17947 99.48332,25.22681 15.53369,6.29517 34.88775,15.9036 49.3448,24.4975 38.49484,22.88302 72.04628,51.86374 100.31217,86.646591 24.6026,30.27498 44.96837,65.593403 58.89101,102.129169 21.09568,55.359169 28.68025,115.20784 22.14689,174.7573 -3.72414,33.94419 -12.17948,67.28825 -25.2268,99.48333 -6.29518,15.53369 -15.9036,34.88775 -24.49751,49.3448 -22.88302,38.49484 -51.86373,72.04628 -86.6466,100.31217 -30.27497,24.6026 -65.59341,44.96837 -102.12916,58.89101 -35.22314,13.42244 -71.6847,21.28054 -110.19895,23.74971 -4.53557,0.29078 -21.96267,0.82172 -24.73855,0.7537 -0.87312,-0.0214 -4.88706,-0.12682 -8.91987,-0.23427 z m 33.12925,-25.75367 c 27.53095,-1.94921 51.89773,-6.29504 77.12603,-13.75547 36.31867,-10.73999 72.18215,-28.32304 103.29556,-50.64342 46.5101,-33.36573 83.75531,-77.04024 109.25321,-128.11247 21.22548,-42.5146 32.72356,-85.63957 36.08313,-135.33438 0.4572,-6.76286 0.4572,-33.71839 0,-40.48125 C 442.73337,94.970601 438.4154,70.342576 430.77005,44.488894 420.03006,8.1702271 402.44701,-27.693243 380.12663,-58.806675 346.7609,-105.31675 303.08639,-142.56198 252.01416,-168.05987 c -42.5146,-21.22549 -85.63956,-32.72355 -135.33437,-36.08313 -6.76286,-0.4572 -33.718395,-0.4572 -40.481251,0 -28.893294,1.95331 -53.521319,6.27128 -79.3750013,13.91662 -36.3186627,10.74001 -72.1821327,28.32304 -103.2955777,50.64343 -46.51008,33.36574 -83.75531,77.040234 -109.2532,128.112468 -21.22549,42.5146 -32.72355,85.639568 -36.08313,135.334382 -0.4572,6.76286 -0.4572,33.71839 0,40.48125 1.95331,28.89329 6.27128,53.52132 13.91662,79.375 10.74001,36.31867 28.32304,72.18215 50.64343,103.29556 33.36574,46.5101 77.04024,83.75531 128.112485,109.25321 22.68275,11.3244 44.499871,19.46463 68.9239567,25.71639 24.2411523,6.2049 46.0572653,9.37376 73.5541673,10.68395 4.946011,0.23567 30.318661,-0.10538 35.586461,-0.47837 z M 85.98812,449.54191 C 81.275893,449.3416 73.567813,448.85074 69.451663,448.48887 23.149236,444.4181 -20.993584,430.0562 -60.987925,406.05023 c -34.02972,-20.42578 -64.594555,-48.23545 -88.411035,-80.44153 -18.7528,-25.35865 -33.80993,-54.16521 -43.70191,-83.60834 -7.86639,-23.41404 -12.73174,-46.6639 -14.83853,-70.90833 -0.90492,-10.41358 -1.06615,-14.49481 -1.06615,-26.98751 0,-12.49269 0.16123,-16.57392 1.06615,-26.9875 4.00754,-46.117775 18.42835,-90.447708 42.43284,-130.439586 20.4258,-34.029724 48.23547,-64.594548 80.441555,-88.411034 25.35865,-18.75279 54.16521,-33.80992 83.6083347,-43.7019 23.4140383,-7.86639 46.6639023,-12.73174 70.9083333,-14.83853 10.413577,-0.90492 14.494803,-1.06615 26.987497,-1.06615 12.4927,0 16.57393,0.16123 26.98751,1.06615 46.11777,4.00754 90.44769,18.42835 130.43957,42.43284 34.02973,20.42579 64.59456,48.235464 88.41103,80.441541 18.75279,25.358654 33.80994,54.16521 43.70191,83.608335 7.86639,23.414038 12.73173,46.663902 14.83853,70.908334 0.90492,10.41358 1.06616,14.49481 1.06616,26.9875 0,12.4927 -0.16124,16.57393 -1.06616,26.98751 -4.00754,46.11777 -18.42837,90.4477 -42.43285,130.43958 -20.42578,34.02973 -48.23545,64.59456 -80.44153,88.41103 -25.35865,18.75279 -54.16521,33.80994 -83.60834,43.70191 -25.77599,8.65992 -49.80632,13.39739 -78.16368,15.40958 -5.19117,0.36835 -25.33478,0.69389 -30.18319,0.48778 z M -65.014315,316.99571 c 1.14369,-0.47775 2.32761,-1.53461 2.85939,-2.55251 0.31646,-0.60576 0.37325,-6.77013 0.37325,-40.51432 0,-21.88994 0.0744,-40.17193 0.16537,-40.6267 0.0909,-0.45474 0.27072,-0.82682 0.39949,-0.82682 0.12877,0 1.10344,0.80367 2.16593,1.78594 2.99938,2.77291 6.56298,5.17051 10.89525,7.33036 6.00906,2.99582 9.98173,4.29633 17.06563,5.58662 4.957234,0.90295 10.553409,1.26767 16.801042,1.09503 15.4539697,-0.42703 28.285838,-4.9731 38.893752,-13.77928 0.873125,-0.7248 2.852473,-2.55993 4.398539,-4.07803 1.686216,-1.65568 2.882926,-2.64382 2.990691,-2.46946 0.09882,0.15989 0.670269,1.27405 1.269868,2.47592 2.780533,5.57331 7.303241,10.71975 11.713819,13.32926 9.118309,5.39482 21.235643,6.06573 33.602083,1.86044 3.605371,-1.22603 6.876571,-2.60966 10.186461,-4.30863 3.0989,-1.59065 4.72728,-3.07999 5.24052,-4.79309 0.38145,-1.27312 0.44032,-26.59478 0.0656,-28.20982 -0.29927,-1.28982 -1.47899,-2.77029 -2.81773,-3.536 -1.72323,-0.98568 -3.08065,-0.81984 -7.045512,0.8608 -5.036583,2.13492 -5.696057,2.31473 -8.090775,2.20585 -1.794801,-0.0816 -2.21189,-0.19682 -3.063293,-0.84621 -1.816602,-1.38563 -2.910152,-4.90794 -3.339756,-10.75762 -0.164438,-2.23874 -0.262599,-31.79392 -0.262996,-79.18709 0,-73.767243 -0.01296,-75.639249 -0.503343,-76.596882 -0.598382,-1.168453 -1.676373,-2.014353 -3.093138,-2.427156 -0.739563,-0.215476 -5.910685,-0.278659 -18.14351,-0.221694 l -17.10915,0.07969 -1.126781,0.79375 c -0.619733,0.436562 -1.403826,1.318498 -1.742413,1.959848 l -0.615633,1.166098 0.0029,59.820366 c 0.0029,58.63522 -0.05284,63.18216 -0.8382,68.28703 -0.478605,3.11097 -1.504712,8.09297 -2.098014,10.18646 -0.606346,2.13947 -2.700867,7.57028 -3.418443,8.86354 -0.242226,0.43656 -0.770308,1.38906 -1.173533,2.11667 -3.051069,5.50571 -8.662273,10.8513 -14.4352443,13.75193 -4.34636299,2.18384 -8.403246,3.37703 -15.7427087,4.63021 -2.17043,0.37057 -15.90286,0.22092 -18.653122,-0.20328 -2.22692,-0.34348 -7.40775,-1.70617 -9.26442,-2.43676 -2.42609,-0.95467 -6.11938,-2.89992 -7.87445,-4.14743 -2.44131,-1.73534 -5.88407,-5.29881 -7.54352,-7.80804 -3.54484,-5.36011 -5.53406,-10.95494 -7.03765,-19.79392 -0.70284,-4.13174 -0.82578,-15.10676 -0.82257,-73.43183 0.003,-55.410848 -0.0316,-60.299211 -0.43303,-61.145216 -0.53225,-1.121648 -1.7262,-2.058881 -3.13999,-2.464885 -0.76137,-0.218651 -5.85902,-0.281569 -18.16748,-0.224234 l -17.109155,0.07969 -1.12679,0.79375 c -0.61973,0.436562 -1.40382,1.318498 -1.74241,1.959848 l -0.61563,1.166098 V 177.71833 313.64265 l 0.8599,1.28667 c 0.55576,0.83158 1.27744,1.49722 2.04044,1.88198 l 1.18054,0.59531 h 17.018065 c 14.78686,0 17.14703,-0.0539 18.00175,-0.4109 z M 163.7167,243.04279 c 1.1675,-0.32422 2.67409,-1.56792 3.31359,-2.73534 0.41775,-0.76266 0.4613,-5.01679 0.61664,-60.21959 0.10649,-37.84476 0.26588,-60.26304 0.43923,-61.78021 0.49372,-4.32081 1.17867,-7.91337 2.16919,-11.37708 3.25691,-11.388919 8.86472,-20.024733 16.94288,-26.091233 5.64655,-4.24045 11.577,-6.803284 19.57218,-8.458067 2.25962,-0.467704 8.343,-1.021504 11.24479,-1.0237 6.68795,-0.005 14.17592,1.535404 18.72022,3.851222 3.81183,1.942571 8.82828,6.484303 11.16931,10.112323 2.9406,4.557209 5.38752,11.022753 6.62614,17.508405 1.35877,7.11491 1.27945,3.12079 1.43754,72.36355 l 0.14679,64.29375 0.61407,0.97967 c 0.70922,1.13149 2.66158,2.51481 3.85572,2.7319 0.45204,0.0822 8.38235,0.11414 17.62292,0.071 l 16.80104,-0.0784 1.10987,-0.72171 c 0.61228,-0.39814 1.44262,-1.28778 1.85209,-1.98437 l 0.74221,-1.26267 0.0808,-59.66355 c 0.0902,-66.60144 0.0282,-69.93586 -1.51487,-81.491674 -1.10972,-8.310426 -3.9982,-18.979749 -6.9667,-25.733186 -6.24731,-14.212994 -16.17363,-25.103271 -28.71647,-31.505182 -10.33325,-5.274098 -22.24373,-7.859263 -36.17238,-7.851167 -10.04265,0.0058 -17.67189,1.208273 -26.85521,4.232619 -7.50702,2.472294 -13.87326,5.852293 -20.37291,10.816485 -2.75365,2.10312 -3.83681,3.056863 -7.47447,6.581431 -1.56435,1.515719 -2.87288,2.716477 -2.90783,2.668376 -0.035,-0.04813 -0.12424,-20.744842 -0.19843,-45.992707 l -0.13489,-45.905209 -0.79375,-1.171335 c -0.48112,-0.709969 -1.26272,-1.41048 -1.98437,-1.778486 l -1.19063,-0.607148 -16.93333,-0.006 c -11.22797,-0.004 -17.27666,0.08935 -17.95233,0.276966 -1.33662,0.371141 -3.1325,2.182632 -3.55041,3.581259 -0.25562,0.855533 -0.32539,30.1056818 -0.32539,136.421918 0,74.43312 0.076,135.88723 0.16883,136.56475 0.12674,0.92461 0.4376,1.53715 1.24653,2.45612 2.03486,2.31172 0.97544,2.19454 19.8836,2.19946 10.83318,0.003 17.01864,-0.0928 17.66816,-0.27321 z"
       id="path179"
       sodipodi:nodetypes="ssssssssssssssssssssssssssssssssssssssssssssssssssssssssssssssssssssssssssssssssssssssssssssscssscsscsssssssssssssssscsscccsscssssssssssssssscssscsscsssssssssscsscsssssscss" /></g></svg>
