<?xml version="1.0" encoding="UTF-8" standalone="no"?>
<!-- Created with Inkscape (http://www.inkscape.org/) -->

<svg
   width="76mm"
   height="76mm"
   viewBox="0 0 76 76"
   version="1.1"
   id="svg5"
   xml:space="preserve"
   inkscape:version="1.2.1 (9c6d41e410, 2022-07-14, custom)"
   sodipodi:docname="logo_sticker_mule.svg"
   inkscape:export-filename="verdeacqua.png"
   inkscape:export-xdpi="500"
   inkscape:export-ydpi="500"
   xmlns:inkscape="http://www.inkscape.org/namespaces/inkscape"
   xmlns:sodipodi="http://sodipodi.sourceforge.net/DTD/sodipodi-0.dtd"
   xmlns="http://www.w3.org/2000/svg"
   xmlns:svg="http://www.w3.org/2000/svg"><sodipodi:namedview
     id="namedview7"
     pagecolor="#ffffff"
     bordercolor="#666666"
     borderopacity="1.0"
     inkscape:showpageshadow="2"
     inkscape:pageopacity="0.0"
     inkscape:pagecheckerboard="0"
     inkscape:deskcolor="#d1d1d1"
     inkscape:document-units="mm"
     showgrid="false"
     inkscape:zoom="1.664825"
     inkscape:cx="136.95133"
     inkscape:cy="154.37058"
     inkscape:window-width="1920"
     inkscape:window-height="1004"
     inkscape:window-x="0"
     inkscape:window-y="0"
     inkscape:window-maximized="1"
     inkscape:current-layer="layer1" /><defs
     id="defs2"><clipPath
       clipPathUnits="userSpaceOnUse"
       id="clipPath724"><path
         style="fill:#ff0000;stroke-width:0.0212224"
         d="m 583.06189,-233.61578 c -3.5855,-0.0955 -7.10035,-0.83269 -10.45875,-2.19356 -1.24604,-0.50491 -2.79854,-1.27556 -3.95821,-1.96485 -3.08788,-1.83535 -5.77923,-4.15978 -8.04659,-6.94958 -1.97351,-2.42824 -3.60716,-5.26099 -4.72397,-8.19138 -1.6922,-4.44013 -2.3006,-9.24036 -1.77652,-14.01658 0.29874,-2.72253 0.97698,-5.39692 2.02358,-7.97916 0.50497,-1.24589 1.27571,-2.79822 1.96507,-3.95775 1.83558,-3.08752 4.16028,-5.77855 6.9504,-8.04564 2.42852,-1.97328 5.2616,-3.60673 8.19234,-4.72342 4.44065,-1.692 9.24144,-2.30033 14.01823,-1.77632 2.72285,0.29871 5.39755,0.97688 7.98009,2.02335 1.24604,0.50491 2.79853,1.27557 3.95821,1.96484 3.08788,1.83537 5.77923,4.15979 8.04659,6.94959 1.97351,2.42823 3.60716,5.26098 4.72396,8.19137 1.6922,4.44014 2.3006,9.24036 1.77653,14.01659 -0.29874,2.72252 -0.97698,5.39692 -2.02358,7.97916 -0.50497,1.2459 -1.27571,2.79821 -1.96508,3.95776 -1.83557,3.08751 -4.16027,5.77854 -6.95039,8.04563 -2.42852,1.97328 -5.26161,3.60674 -8.19234,4.72341 -2.82543,1.07657 -5.75021,1.70683 -8.83965,1.90488 -0.36382,0.0233 -1.76175,0.0659 -1.98441,0.0605 -0.07,-0.002 -0.39202,-0.0102 -0.71551,-0.0188 z m 2.65747,-2.0656 c 2.20841,-0.15634 4.163,-0.5049 6.1867,-1.10327 2.91332,-0.86141 5.79012,-2.27168 8.28589,-4.06191 3.73083,-2.67613 6.71848,-6.17909 8.7638,-10.27539 1.70261,-3.40993 2.62493,-6.86881 2.89442,-10.85464 0.0367,-0.54241 0.0367,-2.70441 0,-3.24684 -0.15669,-2.31741 -0.50305,-4.29273 -1.11633,-6.36635 -0.86151,-2.91297 -2.27195,-5.78944 -4.06238,-8.28492 -2.67644,-3.7304 -6.17982,-6.71768 -10.2766,-8.76277 -3.41032,-1.70241 -6.86961,-2.62463 -10.8559,-2.89408 -0.54248,-0.0367 -2.70473,-0.0367 -3.24722,0 -2.31769,0.15666 -4.29323,0.50299 -6.3671,1.11619 -2.91332,0.86142 -5.79012,2.27168 -8.28589,4.06191 -3.73083,2.67614 -6.71848,6.1791 -8.7638,10.27539 -1.70261,3.40993 -2.62493,6.86881 -2.89442,10.85463 -0.0367,0.54243 -0.0367,2.70443 0,3.24684 0.15669,2.31742 0.50305,4.29274 1.11633,6.36636 0.86151,2.91298 2.27194,5.78944 4.06238,8.28493 2.67644,3.73038 6.17982,6.71768 10.2766,8.76276 1.8195,0.90829 3.56958,1.56118 5.52876,2.06261 1.94451,0.49767 3.6945,0.75183 5.90018,0.85691 0.39675,0.0189 2.43202,-0.008 2.85458,-0.0383 z m -2.64234,-3.42071 c -0.378,-0.016 -0.9963,-0.0554 -1.32649,-0.0845 -3.71416,-0.32649 -7.2551,-1.47841 -10.46326,-3.40383 -2.72971,-1.63827 -5.18148,-3.86878 -7.09193,-6.4519 -1.50426,-2.03391 -2.71208,-4.34437 -3.50557,-6.70589 -0.631,-1.87795 -1.02127,-3.74273 -1.19028,-5.68727 -0.0726,-0.83524 -0.0855,-1.16258 -0.0855,-2.16457 0,-1.00199 0.0129,-1.32932 0.0855,-2.16455 0.32147,-3.69893 1.47824,-7.25446 3.40378,-10.46205 1.63845,-2.72939 3.86922,-5.18087 6.45265,-7.0911 2.03415,-1.50408 4.34488,-2.71175 6.70668,-3.50515 1.87817,-0.63094 3.74316,-1.02116 5.68793,-1.19013 0.83533,-0.0726 1.16272,-0.0855 2.16482,-0.0855 1.0021,0 1.32949,0.0129 2.16481,0.0855 3.69937,0.32142 7.2553,1.47806 10.46327,3.40336 2.72971,1.63827 5.18148,3.86877 7.09192,6.45189 1.50427,2.03392 2.71209,4.34439 3.50558,6.7059 0.631,1.87794 1.02127,3.74273 1.19028,5.68728 0.0726,0.83523 0.0855,1.16256 0.0855,2.16455 0,1.00199 -0.0129,1.32933 -0.0855,2.16457 -0.32147,3.69892 -1.47824,7.25445 -3.40378,10.46203 -1.63845,2.72939 -3.86923,5.18088 -6.45265,7.0911 -2.03415,1.50409 -4.34488,2.71177 -6.70668,3.50516 -2.06762,0.69458 -3.99523,1.07455 -6.26993,1.23594 -0.41641,0.0295 -2.03224,0.0557 -2.42115,0.0391 z m -12.11273,-10.631 c 0.0917,-0.0384 0.18671,-0.12309 0.22937,-0.20473 0.0254,-0.0486 0.0299,-0.543 0.0299,-3.24949 0,-1.7557 0.006,-3.22203 0.0133,-3.25851 0.007,-0.0365 0.0217,-0.0663 0.0321,-0.0663 0.0103,0 0.0885,0.0645 0.17375,0.14325 0.24059,0.22241 0.52645,0.41471 0.87397,0.58794 0.48201,0.24028 0.80069,0.34459 1.36892,0.44807 0.39764,0.0724 0.84655,0.10169 1.34771,0.0879 1.23964,-0.0342 2.26895,-0.39888 3.11988,-1.10518 0.07,-0.0581 0.2288,-0.20532 0.35282,-0.32709 0.13527,-0.13279 0.23126,-0.21205 0.2399,-0.19806 0.007,0.0128 0.0537,0.10219 0.10187,0.19858 0.22304,0.44702 0.58582,0.85979 0.93963,1.06909 0.73143,0.4327 1.70343,0.4865 2.6954,0.14922 0.2892,-0.0983 0.55161,-0.20932 0.81711,-0.34558 0.24858,-0.12758 0.3792,-0.24703 0.42038,-0.38443 0.0306,-0.10212 0.0353,-2.13307 0.006,-2.2626 -0.024,-0.10346 -0.11864,-0.2222 -0.22602,-0.28362 -0.13824,-0.079 -0.24712,-0.0657 -0.56516,0.0691 -0.40402,0.17123 -0.45691,0.18565 -0.64901,0.17691 -0.14397,-0.007 -0.17743,-0.0157 -0.24573,-0.0679 -0.14571,-0.11114 -0.23343,-0.39365 -0.2679,-0.86283 -0.0132,-0.17956 -0.0211,-2.55006 -0.0211,-6.35128 0,-5.91658 -0.001,-6.06673 -0.0404,-6.14354 -0.048,-0.0937 -0.13447,-0.16156 -0.24811,-0.19467 -0.0594,-0.0172 -0.47414,-0.0223 -1.4554,-0.0178 l -1.37241,0.007 -0.0904,0.0637 c -0.0497,0.035 -0.1126,0.10576 -0.13976,0.1572 l -0.0494,0.0936 2.5e-4,4.79795 c 2.4e-4,4.7029 -0.005,5.06759 -0.0672,5.47704 -0.0384,0.24951 -0.12071,0.6491 -0.16829,0.81701 -0.0487,0.1716 -0.21666,0.60718 -0.27421,0.71091 -0.0194,0.035 -0.0618,0.11141 -0.0941,0.16977 -0.24474,0.44159 -0.69485,0.87033 -1.15793,1.10298 -0.34865,0.17517 -0.67407,0.27087 -1.2628,0.37138 -0.17411,0.0297 -1.27566,0.0177 -1.49627,-0.0163 -0.17864,-0.0276 -0.59422,-0.13684 -0.74316,-0.19544 -0.19461,-0.0766 -0.49087,-0.23259 -0.63165,-0.33265 -0.19582,-0.13919 -0.47199,-0.425 -0.60511,-0.62625 -0.28434,-0.42992 -0.44391,-0.87865 -0.56452,-1.58759 -0.0564,-0.33141 -0.0663,-1.21165 -0.066,-5.88969 2.4e-4,-4.44429 -0.003,-4.83635 -0.0348,-4.90421 -0.0426,-0.09 -0.13846,-0.16512 -0.25187,-0.19769 -0.061,-0.0175 -0.46999,-0.0226 -1.45732,-0.018 l -1.37241,0.007 -0.0904,0.0637 c -0.0497,0.035 -0.1126,0.10575 -0.13977,0.15719 l -0.0494,0.0936 v 10.90194 10.90195 l 0.069,0.10321 c 0.0446,0.0667 0.10248,0.12008 0.16368,0.15093 l 0.0947,0.0477 h 1.36511 c 1.18613,0 1.37545,-0.005 1.44402,-0.033 z m 18.34776,-5.93147 c 0.0937,-0.026 0.2145,-0.12576 0.2658,-0.21939 0.0335,-0.0611 0.037,-0.40238 0.0495,-4.82997 0.008,-3.03538 0.0214,-4.83346 0.0353,-4.95515 0.0396,-0.34656 0.0946,-0.6347 0.174,-0.91251 0.26125,-0.91346 0.71109,-1.6061 1.35908,-2.09267 0.45294,-0.34012 0.92865,-0.54566 1.56999,-0.6784 0.18126,-0.0375 0.66924,-0.0819 0.90201,-0.0821 0.53648,-4e-4 1.13713,0.12315 1.50165,0.3089 0.30577,0.1558 0.70816,0.52007 0.89595,0.81106 0.23588,0.36552 0.43216,0.88409 0.53152,1.40428 0.10899,0.57066 0.10263,0.25031 0.11531,5.80399 l 0.0118,5.15675 0.0492,0.0786 c 0.0569,0.0907 0.2135,0.2017 0.30929,0.21911 0.0363,0.007 0.6724,0.009 1.41363,0.006 l 1.34771,-0.007 0.0891,-0.0578 c 0.0491,-0.032 0.11572,-0.10328 0.14856,-0.15915 l 0.0595,-0.10128 0.007,-4.78537 c 0.008,-5.34184 0.002,-5.60928 -0.12151,-6.53613 -0.089,-0.66654 -0.32072,-1.52229 -0.55885,-2.06396 -0.50113,-1.13996 -1.29736,-2.01343 -2.3035,-2.5269 -0.82888,-0.42302 -1.78429,-0.63036 -2.90158,-0.62971 -0.80557,4.8e-4 -1.41756,0.0969 -2.1542,0.33948 -0.60218,0.19829 -1.11285,0.46939 -1.63422,0.86754 -0.22088,0.16869 -0.30777,0.24519 -0.59957,0.52788 -0.12548,0.12157 -0.23045,0.21788 -0.23326,0.21401 -0.003,-0.004 -0.01,-1.66385 -0.0159,-3.68889 l -0.0108,-3.68187 -0.0636,-0.094 c -0.0386,-0.0569 -0.10129,-0.11312 -0.15918,-0.14265 l -0.0955,-0.0487 -1.35832,-4.7e-4 c -0.90065,-3.2e-4 -1.38586,0.008 -1.44005,0.0222 -0.10723,0.0297 -0.25128,0.17506 -0.2848,0.28724 -0.0205,0.0686 -0.0262,2.41466 -0.0262,10.94186 0,5.96999 0.007,10.89897 0.0136,10.95331 0.0101,0.0742 0.0351,0.12329 0.1,0.197 0.16323,0.18542 0.0783,0.17601 1.59497,0.17641 0.86899,2.4e-4 1.36516,-0.007 1.41726,-0.0219 z"
         id="path726"
         sodipodi:nodetypes="ssssssssssssssssssssssssssssssssssssssssssssssssssssssssssssssssssssssssssssssssssssssssssssscssscsscsssssssssssssssscsscccsscssssssssssssssscssscsscsssssssssscsscsssssscss" /></clipPath></defs><g
     inkscape:label="Livello 1"
     inkscape:groupmode="layer"
     id="layer1"
     transform="translate(-564.47296,295.5965)"><circle
       style="fill:#1a1a1a;fill-opacity:1;stroke-width:1.37661"
       id="lettere___bordo"
       cx="602.47296"
       cy="-257.5965"
       r="38" /><ellipse
       style="fill:#fcee09;fill-opacity:1;stroke-width:0.500665"
       id="fondo"
       cx="583.91534"
       cy="-263.5965"
       clip-path="url(#clipPath724)"
       transform="matrix(1.3872125,0,0,1.4239578,-207.54168,117.75379)"
       rx="27.393064"
       ry="26.686184" /><path
       id="scritta"
       style="fill:#1a1a1a;fill-opacity:1;stroke-width:0.375164"
       d="m 597.9655,-243.74309 c -0.0945,8.8e-4 -0.19987,0.006 -0.31749,0.0129 -0.37408,0.0244 -0.51989,0.0677 -0.59811,0.17743 -0.0833,0.11699 -0.10414,0.66931 -0.10414,2.82402 v 2.67779 l 0.16707,0.12024 c 0.22122,0.15905 1.24343,0.1663 1.4515,0.0112 0.13129,-0.0983 0.1499,-0.23594 0.18371,-1.38974 0.0301,-1.02484 0.0603,-1.29584 0.15042,-1.35412 0.062,-0.0401 0.14604,-0.0614 0.18732,-0.0483 0.0442,0.0144 0.0906,0.56924 0.11277,1.35336 0.0449,1.59233 0.0182,1.54892 0.93369,1.54713 0.33278,-6.2e-4 0.64526,-0.0273 0.6943,-0.0593 0.13339,-0.0871 0.24376,-0.43835 0.2025,-0.6444 l -0.0361,-0.18112 0.1338,0.19226 c 0.2467,0.35421 0.54685,0.60094 0.83101,0.68299 0.35535,0.10251 1.08202,0.0484 1.36472,-0.10167 v -7.4e-4 c 0.19007,-0.10083 0.22651,-0.10062 0.30737,-7.5e-4 0.0976,0.12073 0.93668,0.16222 1.09424,0.0541 0.16692,-0.11437 0.25531,-0.40422 0.25531,-0.83741 v -0.44394 l 0.19889,0.40981 c 0.23864,0.49155 0.66965,0.80367 1.29384,0.93763 0.54042,0.11599 1.36512,-0.001 1.67717,-0.23832 l 0.21696,-0.1648 0.15116,0.19821 c 0.14095,0.18393 0.19566,0.19822 0.77022,0.19822 0.78718,0 0.88482,-0.0678 0.93154,-0.64588 l 0.0347,-0.43726 0.22925,0.3296 c 0.54269,0.78164 0.50395,0.76232 1.5159,0.76466 0.49577,0.001 1.07782,0.007 1.29384,0.0148 0.34963,0.0112 0.41931,-0.0147 0.63282,-0.23387 0.20195,-0.2073 0.24121,-0.30632 0.2459,-0.62432 0.0102,-0.66328 -0.31225,-1.01782 -0.92427,-1.01782 -0.42094,0 -0.6622,0.11339 -0.82377,0.38605 l -0.13954,0.23533 -0.42381,-0.57833 c -0.23304,-0.31779 -0.4238,-0.60616 -0.4238,-0.6414 0,-0.0354 0.27065,-0.36629 0.60099,-0.73571 0.6228,-0.69643 0.71686,-0.92412 0.48239,-1.1648 -0.0908,-0.0932 -0.28341,-0.12099 -0.83749,-0.12099 h -0.71961 l -0.36306,0.40462 -0.36378,0.40459 v -0.94803 c -4.5e-4,-0.91339 -0.007,-0.95473 -0.19239,-1.14476 -0.17889,-0.18363 -0.23193,-0.19538 -0.77673,-0.16999 -0.80506,0.0375 -0.83317,0.0706 -0.83317,0.9703 0,0.66612 -0.0109,0.72589 -0.13169,0.67482 -0.69143,-0.29492 -1.39183,-0.34456 -2.05107,-0.14551 -0.47636,0.14385 -1.09691,0.73377 -1.1709,1.11358 -0.0596,0.30621 -0.17491,0.36985 -0.17647,0.0973 -0.002,-0.50235 -0.52166,-1.08666 -1.11594,-1.2561 -0.78359,-0.22342 -2.17935,0.0519 -2.40763,0.47512 -0.10353,0.19195 -0.0965,0.23955 0.10269,0.6674 l 0.2148,0.46028 -0.27338,0.24647 c -0.15029,0.13547 -0.27338,0.29492 -0.27338,0.35412 0,0.0592 -0.0254,0.10777 -0.0564,0.10765 -0.031,-1.7e-4 -0.0614,-0.246 -0.0674,-0.54567 -0.025,-1.28175 -0.6809,-1.92857 -1.84713,-1.82105 l -0.43175,0.0401 v -0.56495 c 0,-0.70503 -0.12176,-0.88958 -0.78253,-0.88344 z m -0.56918,0.46102 h 0.45058 0.45057 v 0.93838 0.93837 l 0.16923,-0.15813 c 0.28016,-0.26195 0.47604,-0.33141 0.93368,-0.33111 0.55566,3.8e-4 0.88037,0.19261 1.07689,0.63697 0.12399,0.28049 0.14468,0.5115 0.1461,1.65552 l 10e-4,1.3296 h -0.4882 -0.48816 v -1.19969 c 0,-1.46208 -0.0649,-1.64853 -0.5757,-1.65106 -0.61541,-0.002 -0.72245,0.23916 -0.76156,1.71417 l -0.0303,1.13658 h -0.4419 -0.44262 v -2.5048 z m 11.41251,0 h 0.49252 0.49254 l -0.0231,1.50259 c -0.0202,1.31033 0.008,1.71122 0.10139,1.4276 0.014,-0.0417 0.31218,-0.40658 0.66246,-0.80994 l 0.63646,-0.73274 h 0.50842 c 0.45674,0 0.62438,0.0705 0.44191,0.18635 -0.0361,0.0231 -0.33921,0.34955 -0.67406,0.72604 l -0.60895,0.68522 0.71237,0.97178 c 0.39165,0.53454 0.71165,0.99149 0.71165,1.01559 0,0.0241 -0.24353,0.0333 -0.5417,0.0208 l -0.54242,-0.0223 -0.48238,-0.70749 -0.48167,-0.70674 -0.21481,0.16258 c -0.20207,0.15335 -0.21479,0.19621 -0.21479,0.72679 v 0.56346 h -0.48746 -0.48818 v -2.5048 z m -17.82319,0.92724 c -0.26852,-0.004 -0.53699,0.0426 -0.7601,0.14402 -0.35181,0.15974 -0.37389,0.1614 -0.63212,0.0335 -0.38417,-0.19035 -1.10605,-0.22518 -1.46668,-0.0705 -0.19912,0.0853 -0.31649,0.10052 -0.36885,0.0468 -0.0422,-0.0433 -0.31242,-0.0795 -0.60029,-0.0795 -0.8341,0 -0.79771,-0.0997 -0.79771,2.20859 0,2.35691 -0.0369,2.26205 0.8845,2.26205 0.40699,0 0.63441,-0.0366 0.75071,-0.12023 0.15971,-0.11476 0.16707,-0.16896 0.16707,-1.2665 0,-1.14835 0.0697,-1.58209 0.24444,-1.52264 0.0676,0.0231 0.10305,0.39748 0.13015,1.36079 0.0449,1.59335 0.018,1.54862 0.94165,1.54862 0.85431,0 0.84161,0.0213 0.87292,-1.48107 0.0213,-1.02178 0.0455,-1.23234 0.15478,-1.34445 0.0712,-0.0731 0.1561,-0.10629 0.18804,-0.0735 0.0319,0.0326 0.0686,0.63792 0.0817,1.34445 0.0299,1.58743 0.0109,1.55457 0.88307,1.55457 0.95317,0 0.95935,-0.0129 0.91921,-1.98143 -0.0329,-1.61062 -0.12735,-1.94151 -0.65597,-2.30065 -0.2465,-0.16742 -0.59133,-0.2575 -0.93657,-0.2628 z m 25.09235,0.001 c -0.57294,0.0155 -1.10199,0.23394 -1.46092,0.62584 -0.38817,0.42378 -0.50231,0.73315 -0.53807,1.46249 -0.0548,1.11674 0.30231,1.88236 1.04939,2.25016 0.77692,0.38249 1.62048,0.3354 2.29479,-0.12771 0.27149,-0.18645 0.41489,-0.36515 0.60029,-0.7461 l 0.24374,-0.50111 7.2e-4,0.66889 c 7.5e-4,0.87194 0.0374,0.9109 0.85484,0.9109 0.92146,0 0.9029,0.0289 0.94815,-1.4224 0.0419,-1.34332 0.0516,-1.36791 0.55472,-1.33333 0.27429,0.0188 0.29829,0.0407 0.38693,0.3504 0.0519,0.18149 0.1303,0.37329 0.17357,0.42688 0.0557,0.0688 0.0466,0.19198 -0.0296,0.41944 -0.0743,0.22132 -0.086,0.38058 -0.0383,0.50928 0.0553,0.14918 0.0374,0.21608 -0.0868,0.32964 -0.20224,0.18488 -0.36017,0.57382 -0.36017,0.88638 0,0.3782 0.27427,0.88356 0.58655,1.08166 0.54842,0.34794 1.53125,0.43354 2.37941,0.20713 v -7.5e-4 c 0.78144,-0.20859 1.28284,-0.73828 1.364,-1.44171 0.0785,-0.68035 -0.26375,-1.2998 -0.83243,-1.50704 -0.13239,-0.0482 -0.12442,-0.0721 0.0954,-0.30512 0.25978,-0.27512 0.3862,-0.62375 0.3862,-1.06234 0,-0.21516 0.0345,-0.28924 0.14898,-0.31996 0.28512,-0.0766 0.39353,-0.87324 0.15839,-1.16407 -0.13477,-0.16666 -2.4235,-0.23437 -2.90956,-0.0862 -0.21068,0.0642 -0.42457,0.16821 -0.47587,0.23164 -0.11822,0.14629 -0.22564,0.14837 -0.22564,0.004 0,-0.32281 -0.71985,-0.4513 -1.31267,-0.23461 -0.19198,0.0702 -0.32532,0.0825 -0.37173,0.0348 -0.0969,-0.0995 -1.06513,-0.095 -1.24829,0.006 -0.1261,0.0693 -0.14537,0.16586 -0.14537,0.73645 0,0.64281 -0.0852,0.80707 -0.17647,0.33927 -0.0757,-0.38862 -0.70603,-0.96899 -1.21791,-1.12175 -0.26641,-0.0795 -0.53584,-0.11463 -0.79627,-0.10765 z m -20.16283,0.0736 c -0.93018,0 -0.9214,-0.0129 -0.9214,1.35559 0,1.23666 -0.0606,1.51944 -0.31894,1.4818 -0.1659,-0.0241 -0.16922,-0.0476 -0.20612,-1.35707 -0.03,-1.06963 -0.0601,-1.34708 -0.15044,-1.40683 -0.062,-0.041 -0.41561,-0.0657 -0.78614,-0.0549 -0.89967,0.0261 -0.87734,-0.0217 -0.84762,1.83072 0.0201,1.25677 0.0412,1.4679 0.18081,1.78097 0.33533,0.75125 1.11532,1.05785 2.05467,0.80772 0.26263,-0.07 0.45439,-0.0838 0.53665,-0.0386 0.0704,0.0386 0.33316,0.0705 0.58365,0.0705 0.77056,0 0.75576,0.0431 0.75576,-2.21823 0,-2.35838 0.0412,-2.25167 -0.88088,-2.25167 z m 7.1556,0.3593 c 0.6088,-1.5e-4 1.01828,0.16616 1.26565,0.513 0.14141,0.19829 0.15737,0.34524 0.17864,1.6763 l 0.0231,1.45878 h -0.34643 c -0.31665,0 -0.35259,-0.0198 -0.42379,-0.2294 l -0.0781,-0.22939 -0.29724,0.24499 c -0.24936,0.20572 -0.37229,0.24983 -0.76302,0.27097 -0.33205,0.0179 -0.53874,-0.0129 -0.72033,-0.10828 -0.49282,-0.25745 -0.67404,-1.1029 -0.34642,-1.61618 0.18238,-0.28572 0.67241,-0.47734 1.37485,-0.53748 0.60584,-0.0518 0.61547,-0.0556 0.61547,-0.26056 0,-0.4403 -0.52556,-0.59218 -1.20129,-0.34746 -0.17556,0.0637 -0.32821,0.11513 -0.33918,0.11513 -0.0212,0 -0.26182,-0.5978 -0.26182,-0.65032 0,-0.10293 0.86711,-0.29984 1.3199,-0.29994 z m 16.32106,0.0171 0.0485,0.31254 c 0.0532,0.34122 0.13282,0.3936 0.25168,0.16557 0.13198,-0.25309 0.55711,-0.46921 0.92284,-0.46921 h 0.33848 l -0.0348,0.36601 c -0.0191,0.20135 -0.0414,0.39589 -0.05,0.4328 -0.008,0.0368 -0.13771,0.0745 -0.28712,0.0838 -0.14938,0.008 -0.37804,0.0623 -0.50769,0.11724 -0.3856,0.16394 -0.45348,0.40135 -0.45348,1.57757 v 1.04453 h -0.48962 -0.48962 l 0.0202,-1.79212 0.0202,-1.79137 0.35511,-0.0237 z m -26.28641,7.5e-4 0.47517,0.023 0.47516,0.0237 0.0376,1.28284 c 0.0423,1.44902 0.0986,1.60727 0.57064,1.60727 0.588,0 0.78036,-0.50765 0.78036,-2.05343 v -0.87528 h 0.45057 0.45057 v 1.81068 1.8114 h -0.36957 c -0.35186,0 -0.37164,-0.0112 -0.42019,-0.2383 l -0.0506,-0.23831 -0.19961,0.19451 c -0.10948,0.10715 -0.29384,0.23182 -0.41009,0.27692 -0.28897,0.11201 -0.86554,0.0979 -1.14774,-0.0281 -0.1282,-0.0573 -0.31401,-0.22061 -0.41296,-0.36302 -0.17245,-0.24821 -0.18114,-0.32039 -0.20468,-1.74609 z m -6.29496,0.008 h 0.34137 c 0.31224,0 0.34918,0.0197 0.42091,0.23089 0.0731,0.21509 0.21337,0.32069 0.21337,0.16036 0,-0.18501 0.51525,-0.39125 0.97635,-0.39125 0.4611,0 0.97635,0.20624 0.97635,0.39125 0,0.11015 0.20402,0.0833 0.24735,-0.0326 0.12053,-0.32226 1.18814,-0.47753 1.63881,-0.2383 0.42618,0.22621 0.51237,0.58405 0.51423,2.13361 l 10e-4,1.3682 h -0.48818 -0.48745 v -1.25463 c 0,-1.43625 -0.0496,-1.59687 -0.48673,-1.59687 -0.63228,0 -0.71455,0.19549 -0.71455,1.69116 v 1.16034 h -0.48818 -0.48817 v -1.1997 c 0,-1.43523 -0.0693,-1.64829 -0.5381,-1.65105 -0.56971,-0.002 -0.68163,0.26148 -0.72394,1.71417 l -0.0326,1.13658 h -0.4419 -0.44117 l 7.2e-4,-1.81142 z m 36.63577,0 h 1.20417 v 0.26578 c 0,0.24401 -0.0225,0.27067 -0.26687,0.31775 -0.25351,0.0488 -0.26377,0.0633 -0.21407,0.29249 0.1429,0.65897 -0.0513,1.12191 -0.59087,1.4083 -0.12553,0.0666 -0.44841,0.13375 -0.71744,0.14922 -0.47709,0.0274 -0.63596,0.11363 -0.56412,0.30586 0.0472,0.12629 0.38412,0.18857 1.01396,0.18857 0.89957,0 1.26421,0.27299 1.26421,0.94581 0,0.68 -0.31621,1.0412 -1.09497,1.24941 -0.4164,0.11139 -1.21534,0.14853 -1.4573,0.0676 -0.6652,-0.22256 -0.90115,-0.47625 -0.90115,-0.96956 0,-0.31084 0.1585,-0.55975 0.45781,-0.71863 l 0.22347,-0.11886 -0.1526,-0.19971 c -0.21046,-0.27465 -0.19237,-0.45875 0.0731,-0.73124 l 0.22635,-0.23237 -0.19815,-0.16035 c -0.59417,-0.47974 -0.48881,-1.54792 0.18731,-1.90198 0.26857,-0.14064 0.43966,-0.15812 1.5072,-0.15812 z m -16.41074,0.001 c 0.57,-0.001 1.12007,0.13259 1.07328,0.26207 -0.0166,0.0457 -0.0761,0.21493 -0.13239,0.37638 -0.0844,0.2425 -0.1289,0.2849 -0.25458,0.2435 -0.0837,-0.0275 -0.33773,-0.0677 -0.56484,-0.0891 -0.36924,-0.0347 -0.43122,-0.0178 -0.58798,0.15443 -0.3576,0.39303 -0.38325,1.33547 -0.047,1.73643 0.14707,0.17534 0.22916,0.20372 0.57207,0.20043 0.22031,-0.001 0.51542,-0.0622 0.65597,-0.13432 0.14054,-0.0722 0.26776,-0.13145 0.28206,-0.13145 0.0143,0 0.026,0.17287 0.026,0.38382 0,0.32742 -0.029,0.40231 -0.19455,0.51373 -0.23924,0.1609 -1.22996,0.21486 -1.60051,0.087 -0.35826,-0.12385 -0.73543,-0.5382 -0.84255,-0.92576 -0.0498,-0.18045 -0.0899,-0.57113 -0.0889,-0.86784 0.004,-1.19218 0.58197,-1.80552 1.70392,-1.8092 z m 9.117,0 c 0.7833,0.002 1.29232,0.30754 1.54265,0.92428 0.40086,0.98758 0.0817,2.20663 -0.67551,2.58275 -0.16017,0.0796 -0.50889,0.15745 -0.77818,0.17296 -0.4138,0.0238 -0.54891,-0.002 -0.8874,-0.17965 -0.47263,-0.2454 -0.72285,-0.59556 -0.84473,-1.18113 -0.15498,-0.74469 0.0406,-1.49912 0.50554,-1.95024 0.29592,-0.28717 0.55467,-0.37094 1.13763,-0.36897 z m 6.68912,0.53304 c -0.11786,-0.004 -0.24877,0.044 -0.37896,0.15219 -0.13855,0.11525 -0.1772,0.22281 -0.1772,0.49294 0,0.58026 0.42291,0.85495 0.84691,0.5501 0.1342,-0.0964 0.16634,-0.19477 0.16634,-0.5011 0,-0.42367 -0.19771,-0.68494 -0.45709,-0.69413 z m -14.41462,0.19747 0.002,0.82998 0.002,0.83073 -0.19311,-0.1306 c -0.18373,-0.1236 -0.20936,-0.12148 -0.52723,0.037 -0.42641,0.21265 -0.82303,0.22034 -0.92862,0.0178 h 10e-4 c -0.12636,-0.24231 -0.0939,-0.81529 0.057,-1.00668 0.13464,-0.17065 0.13548,-0.17083 0.59738,-0.0379 0.2546,0.0732 0.51355,0.11326 0.57497,0.0891 0.0614,-0.0241 0.17898,-0.17596 0.26181,-0.33705 z m 7.78192,0.0393 c -0.17068,-0.0112 -0.34702,0.0267 -0.473,0.11725 -0.30873,0.22196 -0.41334,1.02666 -0.20323,1.56567 0.16726,0.42905 0.54698,0.58152 0.96334,0.38679 0.4522,-0.21149 0.55337,-1.47948 0.15117,-1.89233 -0.10305,-0.10579 -0.26762,-0.16614 -0.43828,-0.17744 z m 6.60232,0.23014 c 0.0701,0 0.11277,0.0731 0.11277,0.19302 0,0.11985 -0.0427,0.19228 -0.11277,0.19228 -0.0701,0 -0.11275,-0.0724 -0.11275,-0.19228 0,-0.11986 0.0427,-0.19302 0.11275,-0.19302 z m -6.64355,0.16852 c 0.17176,-0.0192 0.29942,0.21463 0.29942,0.61321 0,0.21171 -0.0355,0.45179 -0.0781,0.53377 -0.0876,0.16801 -0.29719,0.19528 -0.43247,0.0564 -0.1359,-0.1395 -0.1158,-0.94958 0.0274,-1.0965 0.064,-0.0657 0.12652,-0.10052 0.1837,-0.10691 z m -12.61451,0.7847 -0.46721,0.0564 c -0.34737,0.0421 -0.50188,0.1001 -0.601,0.22567 -0.17432,0.22098 -0.1682,0.42418 0.0174,0.61469 0.20768,0.21317 0.54222,0.1948 0.82014,-0.0452 0.19087,-0.16486 0.23072,-0.25641 0.23072,-0.52561 z m -0.50844,0.43875 c 0.0381,0 0.0578,0.0244 0.0578,0.0726 0,0.0424 -0.0756,0.0764 -0.1685,0.0758 -0.13658,-9.5e-4 -0.14752,-0.0153 -0.0564,-0.0758 0.0729,-0.0483 0.12889,-0.0726 0.16706,-0.0726 z m 10.22498,0.268 c 0.16669,0.008 0.3254,0.06 0.38838,0.14848 0.14855,0.20854 0.13183,0.60962 -0.0318,0.76168 -0.18541,0.17226 -0.63164,0.16399 -0.78903,-0.0129 -0.16041,-0.18192 -0.16178,-0.65622 -0.002,-0.79213 0.0939,-0.0799 0.26871,-0.1135 0.43539,-0.10471 z m 9.60084,1.03785 c -0.69658,0 -0.92284,0.11463 -0.92284,0.46993 0,0.3852 0.57324,0.55658 1.23889,0.36972 0.37589,-0.10541 0.56266,-0.27294 0.56266,-0.50259 0,-0.25633 -0.21107,-0.33706 -0.87871,-0.33706 z" /></g></svg>
