<?xml version="1.0" encoding="UTF-8" standalone="no"?>
<!-- Created with Inkscape (http://www.inkscape.org/) -->

<svg
   width="76mm"
   height="76mm"
   viewBox="0 0 76 76"
   version="1.1"
   id="svg5"
   xml:space="preserve"
   inkscape:version="1.2.1 (9c6d41e410, 2022-07-14, custom)"
   sodipodi:docname="logo_sticker_mule.svg"
   inkscape:export-filename="verdeacqua.png"
   inkscape:export-xdpi="500"
   inkscape:export-ydpi="500"
   xmlns:inkscape="http://www.inkscape.org/namespaces/inkscape"
   xmlns:sodipodi="http://sodipodi.sourceforge.net/DTD/sodipodi-0.dtd"
   xmlns="http://www.w3.org/2000/svg"
   xmlns:svg="http://www.w3.org/2000/svg"><sodipodi:namedview
     id="namedview7"
     pagecolor="#ffffff"
     bordercolor="#666666"
     borderopacity="1.0"
     inkscape:showpageshadow="2"
     inkscape:pageopacity="0.0"
     inkscape:pagecheckerboard="0"
     inkscape:deskcolor="#d1d1d1"
     inkscape:document-units="mm"
     showgrid="false"
     inkscape:zoom="1.664825"
     inkscape:cx="136.35067"
     inkscape:cy="153.76992"
     inkscape:window-width="1920"
     inkscape:window-height="1004"
     inkscape:window-x="0"
     inkscape:window-y="0"
     inkscape:window-maximized="1"
     inkscape:current-layer="layer1" /><defs
     id="defs2"><clipPath
       clipPathUnits="userSpaceOnUse"
       id="clipPath724"><path
         style="fill:#ff0000;stroke-width:0.0212224"
         d="m 583.06189,-233.61578 c -3.5855,-0.0955 -7.10035,-0.83269 -10.45875,-2.19356 -1.24604,-0.50491 -2.79854,-1.27556 -3.95821,-1.96485 -3.08788,-1.83535 -5.77923,-4.15978 -8.04659,-6.94958 -1.97351,-2.42824 -3.60716,-5.26099 -4.72397,-8.19138 -1.6922,-4.44013 -2.3006,-9.24036 -1.77652,-14.01658 0.29874,-2.72253 0.97698,-5.39692 2.02358,-7.97916 0.50497,-1.24589 1.27571,-2.79822 1.96507,-3.95775 1.83558,-3.08752 4.16028,-5.77855 6.9504,-8.04564 2.42852,-1.97328 5.2616,-3.60673 8.19234,-4.72342 4.44065,-1.692 9.24144,-2.30033 14.01823,-1.77632 2.72285,0.29871 5.39755,0.97688 7.98009,2.02335 1.24604,0.50491 2.79853,1.27557 3.95821,1.96484 3.08788,1.83537 5.77923,4.15979 8.04659,6.94959 1.97351,2.42823 3.60716,5.26098 4.72396,8.19137 1.6922,4.44014 2.3006,9.24036 1.77653,14.01659 -0.29874,2.72252 -0.97698,5.39692 -2.02358,7.97916 -0.50497,1.2459 -1.27571,2.79821 -1.96508,3.95776 -1.83557,3.08751 -4.16027,5.77854 -6.95039,8.04563 -2.42852,1.97328 -5.26161,3.60674 -8.19234,4.72341 -2.82543,1.07657 -5.75021,1.70683 -8.83965,1.90488 -0.36382,0.0233 -1.76175,0.0659 -1.98441,0.0605 -0.07,-0.002 -0.39202,-0.0102 -0.71551,-0.0188 z m 2.65747,-2.0656 c 2.20841,-0.15634 4.163,-0.5049 6.1867,-1.10327 2.91332,-0.86141 5.79012,-2.27168 8.28589,-4.06191 3.73083,-2.67613 6.71848,-6.17909 8.7638,-10.27539 1.70261,-3.40993 2.62493,-6.86881 2.89442,-10.85464 0.0367,-0.54241 0.0367,-2.70441 0,-3.24684 -0.15669,-2.31741 -0.50305,-4.29273 -1.11633,-6.36635 -0.86151,-2.91297 -2.27195,-5.78944 -4.06238,-8.28492 -2.67644,-3.7304 -6.17982,-6.71768 -10.2766,-8.76277 -3.41032,-1.70241 -6.86961,-2.62463 -10.8559,-2.89408 -0.54248,-0.0367 -2.70473,-0.0367 -3.24722,0 -2.31769,0.15666 -4.29323,0.50299 -6.3671,1.11619 -2.91332,0.86142 -5.79012,2.27168 -8.28589,4.06191 -3.73083,2.67614 -6.71848,6.1791 -8.7638,10.27539 -1.70261,3.40993 -2.62493,6.86881 -2.89442,10.85463 -0.0367,0.54243 -0.0367,2.70443 0,3.24684 0.15669,2.31742 0.50305,4.29274 1.11633,6.36636 0.86151,2.91298 2.27194,5.78944 4.06238,8.28493 2.67644,3.73038 6.17982,6.71768 10.2766,8.76276 1.8195,0.90829 3.56958,1.56118 5.52876,2.06261 1.94451,0.49767 3.6945,0.75183 5.90018,0.85691 0.39675,0.0189 2.43202,-0.008 2.85458,-0.0383 z m -2.64234,-3.42071 c -0.378,-0.016 -0.9963,-0.0554 -1.32649,-0.0845 -3.71416,-0.32649 -7.2551,-1.47841 -10.46326,-3.40383 -2.72971,-1.63827 -5.18148,-3.86878 -7.09193,-6.4519 -1.50426,-2.03391 -2.71208,-4.34437 -3.50557,-6.70589 -0.631,-1.87795 -1.02127,-3.74273 -1.19028,-5.68727 -0.0726,-0.83524 -0.0855,-1.16258 -0.0855,-2.16457 0,-1.00199 0.0129,-1.32932 0.0855,-2.16455 0.32147,-3.69893 1.47824,-7.25446 3.40378,-10.46205 1.63845,-2.72939 3.86922,-5.18087 6.45265,-7.0911 2.03415,-1.50408 4.34488,-2.71175 6.70668,-3.50515 1.87817,-0.63094 3.74316,-1.02116 5.68793,-1.19013 0.83533,-0.0726 1.16272,-0.0855 2.16482,-0.0855 1.0021,0 1.32949,0.0129 2.16481,0.0855 3.69937,0.32142 7.2553,1.47806 10.46327,3.40336 2.72971,1.63827 5.18148,3.86877 7.09192,6.45189 1.50427,2.03392 2.71209,4.34439 3.50558,6.7059 0.631,1.87794 1.02127,3.74273 1.19028,5.68728 0.0726,0.83523 0.0855,1.16256 0.0855,2.16455 0,1.00199 -0.0129,1.32933 -0.0855,2.16457 -0.32147,3.69892 -1.47824,7.25445 -3.40378,10.46203 -1.63845,2.72939 -3.86923,5.18088 -6.45265,7.0911 -2.03415,1.50409 -4.34488,2.71177 -6.70668,3.50516 -2.06762,0.69458 -3.99523,1.07455 -6.26993,1.23594 -0.41641,0.0295 -2.03224,0.0557 -2.42115,0.0391 z m -12.11273,-10.631 c 0.0917,-0.0384 0.18671,-0.12309 0.22937,-0.20473 0.0254,-0.0486 0.0299,-0.543 0.0299,-3.24949 0,-1.7557 0.006,-3.22203 0.0133,-3.25851 0.007,-0.0365 0.0217,-0.0663 0.0321,-0.0663 0.0103,0 0.0885,0.0645 0.17375,0.14325 0.24059,0.22241 0.52645,0.41471 0.87397,0.58794 0.48201,0.24028 0.80069,0.34459 1.36892,0.44807 0.39764,0.0724 0.84655,0.10169 1.34771,0.0879 1.23964,-0.0342 2.26895,-0.39888 3.11988,-1.10518 0.07,-0.0581 0.2288,-0.20532 0.35282,-0.32709 0.13527,-0.13279 0.23126,-0.21205 0.2399,-0.19806 0.007,0.0128 0.0537,0.10219 0.10187,0.19858 0.22304,0.44702 0.58582,0.85979 0.93963,1.06909 0.73143,0.4327 1.70343,0.4865 2.6954,0.14922 0.2892,-0.0983 0.55161,-0.20932 0.81711,-0.34558 0.24858,-0.12758 0.3792,-0.24703 0.42038,-0.38443 0.0306,-0.10212 0.0353,-2.13307 0.006,-2.2626 -0.024,-0.10346 -0.11864,-0.2222 -0.22602,-0.28362 -0.13824,-0.079 -0.24712,-0.0657 -0.56516,0.0691 -0.40402,0.17123 -0.45691,0.18565 -0.64901,0.17691 -0.14397,-0.007 -0.17743,-0.0157 -0.24573,-0.0679 -0.14571,-0.11114 -0.23343,-0.39365 -0.2679,-0.86283 -0.0132,-0.17956 -0.0211,-2.55006 -0.0211,-6.35128 0,-5.91658 -0.001,-6.06673 -0.0404,-6.14354 -0.048,-0.0937 -0.13447,-0.16156 -0.24811,-0.19467 -0.0594,-0.0172 -0.47414,-0.0223 -1.4554,-0.0178 l -1.37241,0.007 -0.0904,0.0637 c -0.0497,0.035 -0.1126,0.10576 -0.13976,0.1572 l -0.0494,0.0936 2.5e-4,4.79795 c 2.4e-4,4.7029 -0.005,5.06759 -0.0672,5.47704 -0.0384,0.24951 -0.12071,0.6491 -0.16829,0.81701 -0.0487,0.1716 -0.21666,0.60718 -0.27421,0.71091 -0.0194,0.035 -0.0618,0.11141 -0.0941,0.16977 -0.24474,0.44159 -0.69485,0.87033 -1.15793,1.10298 -0.34865,0.17517 -0.67407,0.27087 -1.2628,0.37138 -0.17411,0.0297 -1.27566,0.0177 -1.49627,-0.0163 -0.17864,-0.0276 -0.59422,-0.13684 -0.74316,-0.19544 -0.19461,-0.0766 -0.49087,-0.23259 -0.63165,-0.33265 -0.19582,-0.13919 -0.47199,-0.425 -0.60511,-0.62625 -0.28434,-0.42992 -0.44391,-0.87865 -0.56452,-1.58759 -0.0564,-0.33141 -0.0663,-1.21165 -0.066,-5.88969 2.4e-4,-4.44429 -0.003,-4.83635 -0.0348,-4.90421 -0.0426,-0.09 -0.13846,-0.16512 -0.25187,-0.19769 -0.061,-0.0175 -0.46999,-0.0226 -1.45732,-0.018 l -1.37241,0.007 -0.0904,0.0637 c -0.0497,0.035 -0.1126,0.10575 -0.13977,0.15719 l -0.0494,0.0936 v 10.90194 10.90195 l 0.069,0.10321 c 0.0446,0.0667 0.10248,0.12008 0.16368,0.15093 l 0.0947,0.0477 h 1.36511 c 1.18613,0 1.37545,-0.005 1.44402,-0.033 z m 18.34776,-5.93147 c 0.0937,-0.026 0.2145,-0.12576 0.2658,-0.21939 0.0335,-0.0611 0.037,-0.40238 0.0495,-4.82997 0.008,-3.03538 0.0214,-4.83346 0.0353,-4.95515 0.0396,-0.34656 0.0946,-0.6347 0.174,-0.91251 0.26125,-0.91346 0.71109,-1.6061 1.35908,-2.09267 0.45294,-0.34012 0.92865,-0.54566 1.56999,-0.6784 0.18126,-0.0375 0.66924,-0.0819 0.90201,-0.0821 0.53648,-4e-4 1.13713,0.12315 1.50165,0.3089 0.30577,0.1558 0.70816,0.52007 0.89595,0.81106 0.23588,0.36552 0.43216,0.88409 0.53152,1.40428 0.10899,0.57066 0.10263,0.25031 0.11531,5.80399 l 0.0118,5.15675 0.0492,0.0786 c 0.0569,0.0907 0.2135,0.2017 0.30929,0.21911 0.0363,0.007 0.6724,0.009 1.41363,0.006 l 1.34771,-0.007 0.0891,-0.0578 c 0.0491,-0.032 0.11572,-0.10328 0.14856,-0.15915 l 0.0595,-0.10128 0.007,-4.78537 c 0.008,-5.34184 0.002,-5.60928 -0.12151,-6.53613 -0.089,-0.66654 -0.32072,-1.52229 -0.55885,-2.06396 -0.50113,-1.13996 -1.29736,-2.01343 -2.3035,-2.5269 -0.82888,-0.42302 -1.78429,-0.63036 -2.90158,-0.62971 -0.80557,4.8e-4 -1.41756,0.0969 -2.1542,0.33948 -0.60218,0.19829 -1.11285,0.46939 -1.63422,0.86754 -0.22088,0.16869 -0.30777,0.24519 -0.59957,0.52788 -0.12548,0.12157 -0.23045,0.21788 -0.23326,0.21401 -0.003,-0.004 -0.01,-1.66385 -0.0159,-3.68889 l -0.0108,-3.68187 -0.0636,-0.094 c -0.0386,-0.0569 -0.10129,-0.11312 -0.15918,-0.14265 l -0.0955,-0.0487 -1.35832,-4.7e-4 c -0.90065,-3.2e-4 -1.38586,0.008 -1.44005,0.0222 -0.10723,0.0297 -0.25128,0.17506 -0.2848,0.28724 -0.0205,0.0686 -0.0262,2.41466 -0.0262,10.94186 0,5.96999 0.007,10.89897 0.0136,10.95331 0.0101,0.0742 0.0351,0.12329 0.1,0.197 0.16323,0.18542 0.0783,0.17601 1.59497,0.17641 0.86899,2.4e-4 1.36516,-0.007 1.41726,-0.0219 z"
         id="path726"
         sodipodi:nodetypes="ssssssssssssssssssssssssssssssssssssssssssssssssssssssssssssssssssssssssssssssssssssssssssssscssscsscsssssssssssssssscsscccsscssssssssssssssscssscsscsssssssssscsscsssssscss" /></clipPath></defs><g
     inkscape:label="Livello 1"
     inkscape:groupmode="layer"
     id="layer1"
     transform="translate(-564.47296,295.5965)"><circle
       style="fill:#000000;fill-opacity:1;stroke-width:1.37661"
       id="path1627"
       cx="602.47296"
       cy="-257.5965"
       r="38" /><g
       id="g310"
       transform="matrix(1.0221566,0,0,1.0492321,-13.348716,12.681997)"
       style="fill:#ff7700;fill-opacity:1"><ellipse
         style="fill:#03bb85;fill-opacity:1;stroke-width:0.500665"
         id="path722"
         cx="583.91534"
         cy="-263.5965"
         clip-path="url(#clipPath724)"
         transform="matrix(1.3571428,0,0,1.3571428,-189.98357,100.14161)"
         rx="27.393064"
         ry="26.686184" /><path
         id="rect139"
         style="fill:#000000;fill-opacity:1;stroke-width:0.362265"
         d="m 598.06317,-244.3931 c -0.0924,8.4e-4 -0.19554,0.006 -0.31061,0.0123 -0.36597,0.0233 -0.50862,0.0645 -0.58514,0.16911 -0.0815,0.1115 -0.10189,0.6379 -0.10189,2.69151 v 2.55214 l 0.16345,0.1146 c 0.21643,0.15159 1.21648,0.1585 1.42004,0.0107 0.12844,-0.0937 0.14665,-0.22487 0.17973,-1.32453 0.0294,-0.97675 0.059,-1.23503 0.14716,-1.29058 0.0607,-0.0382 0.14287,-0.0585 0.18326,-0.046 0.0432,0.0137 0.0886,0.54253 0.11032,1.28986 0.0439,1.51762 0.0178,1.47624 0.91345,1.47454 0.32557,-5.9e-4 0.63128,-0.026 0.67925,-0.0565 0.1305,-0.083 0.23848,-0.41778 0.19811,-0.61416 l -0.0353,-0.17263 0.1309,0.18324 c 0.24135,0.33759 0.53499,0.57275 0.81299,0.65095 0.34765,0.0977 1.05857,0.0461 1.33514,-0.0969 v -7.1e-4 c 0.18595,-0.0961 0.2216,-0.0959 0.30071,-7.1e-4 0.0955,0.11506 0.91637,0.1546 1.07052,0.0516 0.1633,-0.10901 0.24977,-0.38526 0.24977,-0.79812 v -0.42311 l 0.19458,0.39058 c 0.23347,0.46849 0.65514,0.76596 1.2658,0.89363 0.5287,0.11055 1.33553,-0.001 1.64081,-0.22713 l 0.21226,-0.15707 0.14788,0.18891 c 0.1379,0.1753 0.19142,0.18892 0.75353,0.18892 0.77011,0 0.86564,-0.0646 0.91134,-0.61558 l 0.034,-0.41674 0.22428,0.31414 c 0.53093,0.74496 0.49303,0.72655 1.48304,0.72878 0.48503,0.001 1.05446,0.007 1.2658,0.0141 0.34205,0.0107 0.41022,-0.014 0.6191,-0.22289 0.19757,-0.19758 0.23598,-0.29195 0.24057,-0.59503 0.01,-0.63216 -0.30548,-0.97006 -0.90424,-0.97006 -0.41181,0 -0.64784,0.10807 -0.80591,0.36793 l -0.13651,0.22429 -0.41463,-0.55119 c -0.22799,-0.30288 -0.41461,-0.57772 -0.41461,-0.61131 0,-0.0337 0.26478,-0.3491 0.58796,-0.70118 0.6093,-0.66376 0.70132,-0.88076 0.47194,-1.11015 -0.0888,-0.0888 -0.27727,-0.11531 -0.81934,-0.11531 h -0.70401 l -0.35519,0.38563 -0.3559,0.38561 v -0.90355 c -4.4e-4,-0.87053 -0.007,-0.90993 -0.18822,-1.09104 -0.17501,-0.17502 -0.2269,-0.18622 -0.75989,-0.16202 -0.78761,0.0357 -0.81511,0.0673 -0.81511,0.92477 0,0.63487 -0.0107,0.69183 -0.12884,0.64316 -0.67644,-0.28108 -1.36166,-0.32839 -2.00661,-0.13868 -0.46603,0.1371 -1.07313,0.69934 -1.14552,1.06133 -0.0583,0.29184 -0.17111,0.35249 -0.17264,0.0927 -0.002,-0.47878 -0.51035,-1.03567 -1.09175,-1.19716 -0.76661,-0.21294 -2.13211,0.0495 -2.35544,0.45283 -0.10129,0.18294 -0.0944,0.22831 0.10046,0.63608 l 0.21015,0.43868 -0.26746,0.23491 c -0.14703,0.12911 -0.26745,0.28108 -0.26745,0.3375 0,0.0564 -0.0249,0.10272 -0.0552,0.1026 -0.0303,-1.6e-4 -0.0601,-0.23446 -0.0659,-0.52006 -0.0245,-1.22161 -0.66614,-1.83808 -1.80709,-1.73561 l -0.42239,0.0382 v -0.53844 c 0,-0.67195 -0.11912,-0.84784 -0.76557,-0.84199 z m -0.55684,0.43939 h 0.44081 0.4408 v 0.89435 0.89434 l 0.16557,-0.15071 c 0.27408,-0.24966 0.46572,-0.31586 0.91344,-0.31558 0.54361,3.6e-4 0.86128,0.18357 1.05354,0.60708 0.12131,0.26733 0.14155,0.4875 0.14294,1.57784 l 0.001,1.26722 h -0.47761 -0.47758 v -1.1434 c 0,-1.39348 -0.0635,-1.57118 -0.56322,-1.57359 -0.60207,-0.002 -0.70679,0.22794 -0.74505,1.63374 l -0.0297,1.08325 h -0.43232 -0.43302 v -2.38727 z m 11.16513,0 h 0.48184 0.48186 l -0.0226,1.43208 c -0.0198,1.24885 0.008,1.63093 0.0992,1.36062 0.0137,-0.0397 0.30541,-0.38751 0.6481,-0.77194 l 0.62266,-0.69836 h 0.4974 c 0.44684,0 0.61085,0.0672 0.43233,0.17761 -0.0353,0.022 -0.33186,0.33315 -0.65945,0.69197 l -0.59575,0.65307 0.69693,0.92618 c 0.38316,0.50946 0.69622,0.94497 0.69622,0.96794 0,0.023 -0.23825,0.0317 -0.52995,0.0198 l -0.53067,-0.0213 -0.47192,-0.67429 -0.47123,-0.67358 -0.21015,0.15495 c -0.19769,0.14616 -0.21014,0.187 -0.21014,0.69269 v 0.53702 h -0.47689 -0.4776 v -2.38727 z m -17.43685,0.88373 c -0.2627,-0.004 -0.52535,0.0406 -0.74363,0.13726 -0.34418,0.15225 -0.36578,0.15383 -0.61841,0.0319 -0.37585,-0.18142 -1.08208,-0.21461 -1.43489,-0.0672 -0.19481,0.0813 -0.30963,0.0958 -0.36086,0.0446 -0.0413,-0.0413 -0.30564,-0.0758 -0.58727,-0.0758 -0.81602,0 -0.78042,-0.095 -0.78042,2.10496 0,2.24632 -0.0361,2.15591 0.86532,2.15591 0.39817,0 0.62066,-0.0349 0.73444,-0.11459 0.15625,-0.10937 0.16345,-0.16103 0.16345,-1.20707 0,-1.09447 0.0682,-1.50785 0.23914,-1.45119 0.0661,0.022 0.10082,0.37883 0.12733,1.29694 0.0439,1.51858 0.0176,1.47595 0.92124,1.47595 0.83579,0 0.82337,0.0203 0.854,-1.41157 0.0208,-0.97384 0.0445,-1.17452 0.15142,-1.28137 0.0697,-0.0697 0.15272,-0.1013 0.18397,-0.0701 0.0312,0.0311 0.0671,0.60799 0.0799,1.28137 0.0292,1.51294 0.0107,1.48162 0.86392,1.48162 0.93251,0 0.93856,-0.0123 0.89929,-1.88845 -0.0322,-1.53505 -0.12459,-1.85041 -0.64175,-2.1927 -0.24116,-0.15957 -0.57851,-0.24542 -0.91627,-0.25047 z m 24.54844,10e-4 c -0.56052,0.0148 -1.07811,0.22296 -1.42926,0.59647 -0.37975,0.4039 -0.49142,0.69875 -0.5264,1.39387 -0.0536,1.06434 0.29576,1.79404 1.02664,2.14458 0.76008,0.36454 1.58536,0.31966 2.24505,-0.12172 0.2656,-0.1777 0.4059,-0.34802 0.58728,-0.71109 l 0.23845,-0.4776 7.1e-4,0.63751 c 7.3e-4,0.83102 0.0366,0.86816 0.83631,0.86816 0.90148,0 0.88333,0.0275 0.9276,-1.35566 0.041,-1.28029 0.0505,-1.30373 0.54269,-1.27077 0.26835,0.0179 0.29183,0.0388 0.37854,0.33396 0.0508,0.17297 0.12748,0.35577 0.16981,0.40685 0.0545,0.0656 0.0456,0.18297 -0.029,0.39976 -0.0727,0.21093 -0.0841,0.36272 -0.0375,0.48538 0.0541,0.14218 0.0366,0.20594 -0.0849,0.31417 -0.19786,0.17621 -0.35237,0.5469 -0.35237,0.84479 0,0.36046 0.26833,0.8421 0.57384,1.03091 0.53653,0.33161 1.49806,0.4132 2.32783,0.19741 v -7.1e-4 c 0.7645,-0.19881 1.25503,-0.70364 1.33444,-1.37407 0.0768,-0.64842 -0.25804,-1.23881 -0.81439,-1.43632 -0.12952,-0.0459 -0.12172,-0.0687 0.0933,-0.29081 0.25415,-0.26221 0.37783,-0.59448 0.37783,-1.01249 0,-0.20506 0.0338,-0.27567 0.14575,-0.30495 0.27894,-0.073 0.385,-0.83226 0.15496,-1.10945 -0.13185,-0.15884 -2.37097,-0.22337 -2.84649,-0.0821 -0.20612,0.0612 -0.41537,0.16031 -0.46556,0.22077 -0.11566,0.13942 -0.22075,0.14141 -0.22075,0.004 0,-0.30766 -0.70424,-0.43012 -1.28421,-0.2236 -0.18782,0.0669 -0.31827,0.0786 -0.36368,0.0332 -0.0948,-0.0948 -1.04204,-0.0905 -1.22123,0.006 -0.12336,0.066 -0.14222,0.15808 -0.14222,0.70189 0,0.61265 -0.0834,0.7692 -0.17264,0.32335 -0.0741,-0.37038 -0.69073,-0.92352 -1.19151,-1.06911 -0.26064,-0.0758 -0.52423,-0.10925 -0.77901,-0.1026 z m -19.72578,0.0701 c -0.91001,0 -0.90142,-0.0123 -0.90142,1.29198 0,1.17863 -0.0593,1.44815 -0.31203,1.41227 -0.1623,-0.023 -0.16555,-0.0454 -0.20165,-1.29339 -0.0294,-1.01944 -0.0588,-1.28387 -0.14718,-1.34082 -0.0607,-0.0391 -0.4066,-0.0626 -0.7691,-0.0523 -0.88017,0.0249 -0.85832,-0.0207 -0.82925,1.74482 0.0197,1.1978 0.0403,1.39903 0.17689,1.69741 0.32806,0.716 1.09115,1.00821 2.01014,0.76982 0.25693,-0.0667 0.44454,-0.0799 0.52501,-0.0368 0.0689,0.0368 0.32594,0.0672 0.571,0.0672 0.75386,0 0.73938,0.0411 0.73938,-2.11415 0,-2.24772 0.0403,-2.14601 -0.86179,-2.14601 z m 7.0005,0.34244 c 0.5956,-1.4e-4 0.9962,0.15836 1.23821,0.48893 0.13835,0.18898 0.15396,0.32904 0.17477,1.59764 l 0.0226,1.39033 h -0.33892 c -0.30979,0 -0.34495,-0.0189 -0.41461,-0.21863 l -0.0764,-0.21863 -0.2908,0.2335 c -0.24395,0.19606 -0.36422,0.2381 -0.74648,0.25825 -0.32485,0.0171 -0.52706,-0.0123 -0.70472,-0.1032 -0.48213,-0.24537 -0.65943,-1.05115 -0.33891,-1.54034 0.17843,-0.27232 0.65784,-0.45495 1.34505,-0.51226 0.59271,-0.0494 0.60213,-0.053 0.60213,-0.24834 0,-0.41964 -0.51417,-0.56439 -1.17525,-0.33115 -0.17175,0.0607 -0.3211,0.10972 -0.33183,0.10972 -0.0207,0 -0.25614,-0.56975 -0.25614,-0.6198 0,-0.0981 0.84831,-0.28577 1.29129,-0.28587 z m 15.96728,0.0163 0.0474,0.29787 c 0.052,0.32521 0.12994,0.37513 0.24622,0.1578 0.12912,-0.24121 0.54503,-0.44719 0.90284,-0.44719 h 0.33114 l -0.034,0.34884 c -0.0187,0.1919 -0.0405,0.37731 -0.0489,0.41249 -0.008,0.0351 -0.13473,0.071 -0.2809,0.0799 -0.14614,0.008 -0.36985,0.0594 -0.49669,0.11174 -0.37724,0.15625 -0.44365,0.38252 -0.44365,1.50355 v 0.99552 h -0.479 -0.47901 l 0.0198,-1.70803 0.0198,-1.70732 0.34742,-0.0226 z m -25.71662,7.1e-4 0.46487,0.0219 0.46486,0.0226 0.0368,1.22265 c 0.0414,1.38103 0.0965,1.53185 0.55827,1.53185 0.57526,0 0.76345,-0.48383 0.76345,-1.95708 v -0.83421 h 0.4408 0.44081 v 1.72572 1.72641 h -0.36156 c -0.34424,0 -0.36359,-0.0107 -0.41109,-0.22712 l -0.0495,-0.22713 -0.19528,0.18538 c -0.10711,0.10213 -0.28747,0.22095 -0.4012,0.26393 -0.28271,0.10675 -0.84678,0.0933 -1.12286,-0.0268 -0.12543,-0.0546 -0.30721,-0.21026 -0.40401,-0.34599 -0.16871,-0.23656 -0.17722,-0.30535 -0.20025,-1.66416 z m -6.15851,0.008 h 0.33397 c 0.30547,0 0.34161,0.0188 0.41179,0.22005 0.0715,0.205 0.20874,0.30565 0.20874,0.15284 0,-0.17633 0.50408,-0.37289 0.95519,-0.37289 0.4511,0 0.95518,0.19656 0.95518,0.37289 0,0.10498 0.1996,0.0794 0.24199,-0.0311 0.11792,-0.30714 1.16239,-0.45512 1.60329,-0.22712 0.41694,0.2156 0.50126,0.55665 0.50308,2.0335 l 10e-4,1.304 h -0.4776 -0.47688 v -1.19576 c 0,-1.36886 -0.0485,-1.52194 -0.47618,-1.52194 -0.61858,0 -0.69906,0.18632 -0.69906,1.61181 v 1.10589 h -0.4776 -0.47759 v -1.14341 c 0,-1.36788 -0.0678,-1.57095 -0.52643,-1.57358 -0.55737,-0.002 -0.66686,0.24921 -0.70825,1.63374 l -0.0319,1.08325 h -0.43232 -0.4316 l 7e-4,-1.72642 z m 35.84164,0 h 1.17807 v 0.25331 c 0,0.23256 -0.022,0.25797 -0.26109,0.30284 -0.24801,0.0465 -0.25805,0.0603 -0.20943,0.27876 0.13981,0.62805 -0.0502,1.06927 -0.57806,1.34222 -0.12281,0.0635 -0.43869,0.12748 -0.70189,0.14222 -0.46674,0.0261 -0.62217,0.1083 -0.55189,0.29151 0.0462,0.12036 0.3758,0.17972 0.99198,0.17972 0.88007,0 1.23681,0.26018 1.23681,0.90143 0,0.6481 -0.30936,0.99235 -1.07124,1.19079 -0.40737,0.10616 -1.18899,0.14156 -1.42571,0.0644 -0.65078,-0.21212 -0.88161,-0.45391 -0.88161,-0.92407 0,-0.29625 0.15506,-0.53348 0.44788,-0.68491 l 0.21863,-0.11328 -0.14929,-0.19034 c -0.2059,-0.26176 -0.1882,-0.43723 0.0715,-0.69693 l 0.22145,-0.22147 -0.19386,-0.15282 c -0.58129,-0.45723 -0.47821,-1.47529 0.18325,-1.81274 0.26275,-0.13404 0.43013,-0.1507 1.47453,-0.1507 z m -16.05501,0.001 c 0.55764,-0.001 1.09579,0.12637 1.05001,0.24977 -0.0162,0.0436 -0.0745,0.20485 -0.12952,0.35872 -0.0826,0.23112 -0.12611,0.27153 -0.24906,0.23208 -0.0819,-0.0262 -0.33041,-0.0645 -0.5526,-0.0849 -0.36123,-0.0331 -0.42187,-0.017 -0.57523,0.14718 -0.34985,0.37459 -0.37494,1.27281 -0.046,1.65495 0.14388,0.16712 0.22419,0.19416 0.55967,0.19103 0.21553,-0.001 0.50424,-0.0593 0.64175,-0.12802 0.13749,-0.0688 0.26195,-0.12528 0.27594,-0.12528 0.014,0 0.0254,0.16476 0.0254,0.36581 0,0.31206 -0.0284,0.38343 -0.19033,0.48962 -0.23406,0.15335 -1.2033,0.20478 -1.56582,0.0829 -0.35049,-0.11804 -0.71949,-0.51294 -0.82429,-0.88232 -0.0487,-0.17198 -0.088,-0.54433 -0.087,-0.82712 0.004,-1.13624 0.56936,-1.7208 1.66699,-1.72431 z m 8.91937,0 c 0.76632,0.002 1.26431,0.29311 1.50921,0.88091 0.39217,0.94124 0.0799,2.10309 -0.66086,2.46156 -0.1567,0.0759 -0.49786,0.15006 -0.76132,0.16485 -0.40483,0.0227 -0.53701,-0.002 -0.86816,-0.17122 -0.46239,-0.23389 -0.70718,-0.56762 -0.82642,-1.12571 -0.15162,-0.70975 0.0397,-1.42878 0.49458,-1.85873 0.28951,-0.2737 0.54265,-0.35354 1.11297,-0.35166 z m 6.54413,0.50803 c -0.11531,-0.004 -0.24338,0.0419 -0.37075,0.14505 -0.13555,0.10984 -0.17336,0.21235 -0.17336,0.46981 0,0.55303 0.41375,0.81483 0.82855,0.52428 0.1313,-0.0919 0.16274,-0.18563 0.16274,-0.47758 0,-0.40379 -0.19343,-0.6528 -0.44718,-0.66156 z m -14.10217,0.1882 0.002,0.79104 0.002,0.79175 -0.18892,-0.12447 c -0.17975,-0.1178 -0.20482,-0.11578 -0.5158,0.0353 -0.41717,0.20267 -0.80519,0.21 -0.90849,0.017 h 10e-4 c -0.12363,-0.23094 -0.0919,-0.77703 0.0558,-0.95944 0.13172,-0.16265 0.13254,-0.16282 0.58443,-0.0361 0.24908,0.0698 0.50242,0.10795 0.56251,0.0849 0.0601,-0.023 0.1751,-0.1677 0.25613,-0.32123 z m 7.61324,0.0375 c -0.16698,-0.0107 -0.3395,0.0254 -0.46275,0.11174 -0.30204,0.21155 -0.40438,0.97849 -0.19882,1.49221 0.16363,0.40892 0.53512,0.55423 0.94246,0.36864 0.44239,-0.20157 0.54137,-1.41006 0.14789,-1.80354 -0.10082,-0.10082 -0.26182,-0.15834 -0.42878,-0.16911 z m 6.45921,0.21934 c 0.0686,0 0.11032,0.0697 0.11032,0.18396 0,0.11423 -0.0418,0.18326 -0.11032,0.18326 -0.0686,0 -0.11031,-0.069 -0.11031,-0.18326 0,-0.11424 0.0418,-0.18396 0.11031,-0.18396 z m -6.49955,0.16061 c 0.16804,-0.0183 0.29293,0.20456 0.29293,0.58444 0,0.20177 -0.0347,0.43059 -0.0764,0.50872 -0.0857,0.16013 -0.29075,0.18612 -0.4231,0.0538 -0.13295,-0.13295 -0.11329,-0.90502 0.0268,-1.04505 0.0626,-0.0626 0.12377,-0.0958 0.17971,-0.10189 z m -12.34107,0.74788 -0.45708,0.0538 c -0.33984,0.0401 -0.491,0.0954 -0.58798,0.21508 -0.17054,0.21061 -0.16455,0.40428 0.017,0.58585 0.20318,0.20317 0.53046,0.18566 0.80236,-0.0431 0.18673,-0.15712 0.22572,-0.24438 0.22572,-0.50095 z m -0.49742,0.41816 c 0.0373,0 0.0565,0.0233 0.0565,0.0692 0,0.0404 -0.074,0.0728 -0.16485,0.0722 -0.13362,-9e-4 -0.14432,-0.0146 -0.0552,-0.0722 0.0713,-0.046 0.1261,-0.0692 0.16344,-0.0692 z m 10.00334,0.25543 c 0.16308,0.008 0.31835,0.0572 0.37996,0.14151 0.14533,0.19876 0.12897,0.58102 -0.0311,0.72594 -0.18139,0.16418 -0.61795,0.1563 -0.77193,-0.0123 -0.15693,-0.17339 -0.15827,-0.62543 -0.002,-0.75496 0.0919,-0.0762 0.26288,-0.10818 0.42595,-0.0998 z m 9.39273,0.98915 c -0.68148,0 -0.90284,0.10925 -0.90284,0.44788 0,0.36713 0.56082,0.53046 1.21204,0.35237 0.36774,-0.10046 0.55046,-0.26013 0.55046,-0.47901 0,-0.2443 -0.20649,-0.32124 -0.85966,-0.32124 z" /></g></g></svg>
