<?xml version="1.0" encoding="UTF-8" standalone="no"?>
<!-- Created with Inkscape (http://www.inkscape.org/) -->

<svg
   width="2704mm"
   height="2704mm"
   viewBox="0 0 1802.6667 1802.6667"
   version="1.1"
   id="svg5"
   xml:space="preserve"
   inkscape:version="1.2.1 (9c6d41e410, 2022-07-14, custom)"
   sodipodi:docname="pattern.svg"
   xmlns:inkscape="http://www.inkscape.org/namespaces/inkscape"
   xmlns:sodipodi="http://sodipodi.sourceforge.net/DTD/sodipodi-0.dtd"
   xmlns:xlink="http://www.w3.org/1999/xlink"
   xmlns="http://www.w3.org/2000/svg"
   xmlns:svg="http://www.w3.org/2000/svg"><sodipodi:namedview
     id="namedview7"
     pagecolor="#ffffff"
     bordercolor="#666666"
     borderopacity="1.0"
     inkscape:showpageshadow="2"
     inkscape:pageopacity="0.0"
     inkscape:pagecheckerboard="0"
     inkscape:deskcolor="#d1d1d1"
     inkscape:document-units="mm"
     showgrid="false"
     inkscape:zoom="0.064488897"
     inkscape:cx="5210.1992"
     inkscape:cy="4698.4832"
     inkscape:window-width="1920"
     inkscape:window-height="1004"
     inkscape:window-x="0"
     inkscape:window-y="0"
     inkscape:window-maximized="1"
     inkscape:current-layer="layer1" /><defs
     id="defs2" /><g
     inkscape:label="Livello 1"
     inkscape:groupmode="layer"
     id="layer1"
     transform="translate(108.64334,93.88883)"><g
       id="g1005"
       inkscape:tile-cx="225.29102"
       inkscape:tile-cy="166.65406"
       inkscape:tile-w="450.58203"
       inkscape:tile-h="333.30811"
       inkscape:tile-x0="4.0205623e-06"
       inkscape:tile-y0="1.5039821e-14"
       transform="translate(-429.71407,45.451964)"><g
         id="g197"
         transform="translate(-95.289656,-10.644142)"
         style="fill:#000000"><path
           style="fill:#000000;stroke-width:0.264583"
           d="m 74.332409,186.09766 c -1.689727,-0.78064 -5.202071,-2.54985 -7.805208,-3.93159 -2.603137,-1.38174 -6.118824,-3.19891 -7.812638,-4.03815 -3.079662,-1.5259 -3.079662,-1.5259 -3.216755,-2.73638 -0.177146,-1.56415 0.236331,-5.61409 0.871585,-8.53704 1.325347,-6.09821 4.019321,-8.36328 9.630246,-8.09701 2.127749,0.10098 2.625514,0.22588 4.261252,1.06922 1.018646,0.52519 2.983177,1.79436 4.365625,2.82039 1.382448,1.02602 3.168385,2.23076 3.96875,2.67719 1.342348,0.74875 1.383388,0.79839 0.529166,0.6401 -1.148028,-0.21274 -3.299376,-1.27961 -5.757217,-2.85505 -4.121063,-2.64153 -6.119998,-3.26735 -8.978024,-2.81078 -3.214738,0.51356 -4.739545,1.78167 -5.627517,4.68013 -0.666439,2.17535 -1.982185,9.6988 -1.785721,10.21077 0.09057,0.23603 1.152205,0.9243 2.359183,1.52949 1.206978,0.60519 4.516224,2.38277 7.35388,3.95019 2.837656,1.56741 6.319327,3.42437 7.737047,4.12657 3.079042,1.52506 2.931166,1.59436 4.301825,-2.01569 1.750136,-4.60951 4.485611,-9.14284 6.809462,-11.28488 2.00303,-1.84634 2.611723,-1.95855 1.094761,-0.20182 -2.359808,2.73278 -4.440034,6.40938 -5.951784,10.51919 -0.834452,2.26853 -1.652201,3.79857 -2.666776,4.98964 -0.60891,0.71484 -0.60891,0.71484 -3.681142,-0.70449 z m 20.931606,-13.90097 c -1.46811,-1.46811 0.60656,-4.67017 3.360639,-5.18684 1.874186,-0.3516 3.095396,1.51907 2.479256,3.79778 -0.35412,1.30968 -1.0774,1.55821 -1.0774,0.37021 0,-0.41485 -0.132062,-1.13312 -0.293479,-1.59616 -0.326787,-0.93742 -0.79506,-0.93506 -2.138265,0.0108 -1.339016,0.94287 -1.213059,2.06092 0.23332,2.07103 0.318834,0.002 0.661512,0.13642 0.761503,0.29821 0.533948,0.86394 -2.483411,1.07717 -3.325574,0.235 z m -9.260417,-3.8573 c -1.788265,-1.01521 -3.149065,-2.44346 -4.013535,-4.21249 -0.775766,-1.5875 -0.775766,-1.5875 -0.617348,-5.55625 0.09495,-2.37865 0.05672,-4.11879 -0.0954,-4.34323 -0.320572,-0.47297 -1.902388,-0.43087 -2.877853,0.0766 -0.929061,0.48333 -1.566315,1.19788 -2.979195,3.34059 -2.15741,3.27181 -2.969897,3.79917 -1.937019,1.25724 1.504055,-3.7015 2.658764,-5.42777 4.151347,-6.20619 1.963968,-1.02425 4.304245,-0.87444 5.090732,0.32589 0.737741,1.12594 0.870329,2.46908 0.564563,5.7191 -0.417497,4.43764 -0.08198,5.44655 2.737067,8.23052 2.175753,2.14867 2.16784,2.61218 -0.02336,1.36822 z"
           id="path201" /><path
           style="fill:#000000;stroke-width:0.264583"
           d="m 134.06216,207.78315 c -0.0918,-0.43657 -0.46371,-2.99641 -0.82638,-5.68855 -0.36268,-2.69213 -0.83938,-5.828 -1.05934,-6.96858 -0.21996,-1.14059 -0.39993,-2.12286 -0.39993,-2.18282 0,-0.06 -0.90833,-0.10901 -2.01851,-0.10901 -1.45825,0 -2.50474,0.17468 -3.77031,0.62935 -0.96349,0.34615 -2.2753,0.71675 -2.91512,0.82357 -1.16332,0.19421 -1.16332,0.19421 -1.01974,-0.8762 0.10695,-0.79741 0.0439,-1.10869 -0.24739,-1.22045 -0.75509,-0.28975 -0.88503,-0.1439 -0.45564,0.51144 0.56116,0.85644 0.37267,0.83377 -1.00878,-0.12133 -0.99833,-0.69021 -1.7267,-0.87779 -6.1593,-1.58626 -2.76489,-0.44192 -5.38427,-0.86462 -5.82083,-0.93933 -0.46986,-0.0804 -1.80484,-0.97808 -3.27156,-2.19987 -2.47782,-2.06403 -2.47782,-2.06403 -5.159378,-1.71953 -1.474859,0.18947 -3.643341,0.52402 -4.818848,0.74343 -1.175507,0.21941 -2.3066,0.39881 -2.513541,0.39866 -0.206942,-1.5e-4 -0.696376,-0.5657 -1.087634,-1.25677 -0.391258,-0.69108 -1.255826,-2.00064 -1.921264,-2.91015 -1.209886,-1.65365 -1.209886,-1.65365 -4.084195,-1.65365 -2.99607,0 -4.527955,-0.18309 -4.527955,-0.54118 0,-0.11574 0.803672,-0.28731 1.785938,-0.38125 0.982265,-0.0939 2.406525,-0.25225 3.16502,-0.35179 l 1.379082,-0.18098 -1.445228,-2.21905 c -0.794875,-1.22048 -1.445228,-2.3471 -1.445228,-2.5036 0,-0.37299 2.258816,1.86483 3.439583,3.40762 0.926041,1.20996 0.926041,1.20996 3.179071,1.05924 1.239169,-0.0829 3.230325,-0.30624 4.424791,-0.49631 2.171759,-0.34557 2.171759,-0.34557 5.248366,2.28005 3.07661,2.62562 3.07661,2.62562 6.31172,2.17358 3.23512,-0.45205 3.23512,-0.45205 7.38492,2.9003 4.1498,3.35234 4.1498,3.35234 6.41161,3.78837 1.97443,0.38063 2.29205,0.38698 2.49989,0.05 0.13095,-0.21232 1.19883,-1.75526 2.37307,-3.42875 3.71549,-5.29518 3.51975,-4.64338 2.50284,-8.33437 -0.48112,-1.74625 -0.94566,-3.59172 -1.03233,-4.10104 -0.15128,-0.88903 -0.14026,-0.90489 0.27559,-0.39688 1.15815,1.41484 3.69546,8.08478 5.01127,13.17334 0.40598,1.57002 0.82685,2.76065 0.93527,2.64583 0.10841,-0.11481 0.95241,-1.62793 1.87555,-3.36248 1.69426,-3.18347 3.50064,-5.53866 4.48852,-5.8522 0.88417,-0.28063 0.86538,0.0338 -0.0985,1.64823 -0.50467,0.84527 -1.55604,2.77057 -2.33638,4.27844 -0.78034,1.50786 -1.89615,3.28386 -2.47957,3.94666 -1.06076,1.2051 -1.06076,1.2051 -0.27189,1.02189 0.43388,-0.10076 1.77487,-0.66399 2.97998,-1.25161 2.5553,-1.24599 5.50461,-3.96993 8.28201,-7.64914 1.40954,-1.86721 1.71211,-2.14762 1.78249,-1.65196 0.1073,0.75568 -0.91558,3.00322 -2.28363,5.01777 -2.29425,3.37843 -6.28942,6.13844 -9.67735,6.68547 -0.8566,0.13832 -1.61591,0.30993 -1.68735,0.38138 -0.0714,0.0714 0.0171,1.05731 0.1968,2.19081 0.42583,2.6862 0.66264,11.64729 0.33064,12.51195 -0.25396,0.66146 -0.25396,0.66146 -0.42094,-0.13229 z m -2.55023,-15.93051 c 0,-0.10329 -0.438,-2.00077 -0.97332,-4.21662 -0.97332,-4.02881 -0.97332,-4.02881 -1.53181,-2.65647 -0.51223,1.25868 -1.97799,3.57299 -3.29896,5.2088 -0.70841,0.87726 -0.68129,1.05834 0.15853,1.05834 0.73922,0 2.85157,-1.22206 3.66392,-2.11969 0.26188,-0.28938 0.57676,-0.52615 0.69973,-0.52615 0.43096,0 0.21837,1.52276 -0.30559,2.18887 -0.68216,0.86722 -0.6705,0.92958 0.19843,1.06121 1.27497,0.19314 1.38907,0.19328 1.38907,0.002 z M 112.757,187.14565 c -1.75395,-1.34483 -3.17403,-2.244 -3.53233,-2.23661 -0.32956,0.007 -1.36171,0.15562 -2.29366,0.33073 l -1.69447,0.31838 1.54099,1.31564 c 1.51436,1.29291 1.59621,1.32544 4.73717,1.88308 1.75791,0.3121 3.41652,0.58326 3.68581,0.60259 0.26929,0.0193 -0.83029,-0.97689 -2.44351,-2.21381 z m -13.108668,-2.39504 c 0.790088,-0.0987 1.436518,-0.27306 1.436518,-0.38744 0,-0.11438 -0.87929,-1.02912 -1.953977,-2.03275 -1.953971,-1.8248 -1.953971,-1.8248 -4.43177,-1.49894 -1.362787,0.17922 -2.975748,0.33377 -3.584353,0.34345 -1.106559,0.0176 -1.106559,0.0176 0.330729,2.30692 0.790507,1.25914 1.437286,2.36961 1.437286,2.46771 0,0.0981 1.199036,-0.0911 2.664526,-0.42054 1.46549,-0.32941 3.310958,-0.67969 4.101041,-0.77841 z m 68.277978,21.44504 c -0.0926,-0.58209 -0.28848,-2.18943 -0.43538,-3.57188 -1.78621,-16.81086 -4.97637,-29.07064 -10.34094,-39.74023 -0.57074,-1.13516 -0.92076,-2.06393 -0.7778,-2.06393 0.47172,0 3.14205,4.05024 4.62265,7.01145 3.26697,6.53395 5.62494,14.65889 6.91072,23.8125 0.49664,3.53566 0.80823,14.00869 0.44476,14.94896 -0.24399,0.63119 -0.2634,0.61302 -0.42401,-0.39687 z m 4.66218,-5.87527 c -0.54289,-0.10456 -0.86453,-0.60045 -0.39688,-0.61187 0.97894,-0.0239 5.79642,-0.85942 6.94531,-1.20454 3.30656,-0.99326 5.90025,-2.92433 7.24408,-5.39339 0.72053,-1.32385 0.72053,-1.32385 -0.32967,-2.87034 -2.05966,-3.03297 -4.52386,-4.60478 -8.32584,-5.31068 -1.27914,-0.2375 -1.27914,-0.2375 -3.00092,1.37315 -1.51224,1.41462 -1.92424,2.03171 -3.38531,5.07052 -1.56821,3.26164 -2.52363,4.70593 -2.51935,3.80846 0.004,-0.88204 1.69203,-6.30693 2.33345,-7.50002 2.23635,-4.15978 7.99834,-7.28916 13.4022,-7.27885 2.51667,0.005 3.40601,0.35536 1.83672,0.72398 -3.4249,0.80451 -4.64167,1.13999 -6.0451,1.66674 l -1.56787,0.58847 1.70016,0.42837 c 3.09049,0.77866 5.52574,2.7086 6.66359,5.28089 0.53818,1.21664 0.53818,1.21664 0.86265,0.11772 0.17846,-0.60441 0.4671,-1.91123 0.64143,-2.90405 0.72515,-4.12989 0.85641,-4.64121 1.12303,-4.37459 0.14792,0.14792 0.25893,1.59397 0.25098,3.26943 -0.0469,9.8737 -5.26836,15.388 -14.4561,15.2667 -1.30969,-0.0173 -2.64914,-0.083 -2.97656,-0.1461 z m -62.28944,-25.22669 c -2.87558,-0.25586 -5.74219,-0.84223 -7.70183,-1.57542 -1.73063,-0.64751 -2.02546,-1.18435 -0.52018,-0.94719 3.0114,0.47446 6.31066,0.67983 10.95217,0.68177 5.98448,0.002 9.15449,-0.26473 14.46658,-1.21953 2.08399,-0.37458 3.852,-0.61813 3.92892,-0.54121 0.20713,0.20713 -2.17758,1.34478 -4.14612,1.97794 -4.79246,1.54145 -11.11179,2.14573 -16.97954,1.62364 z m -6.17149,-8.31799 c 2.46637,-1.43684 3.35346,-2.07544 5.66964,-4.08149 6.2768,-5.43636 12.97837,-17.09379 14.96524,-26.03218 0.25244,-1.13568 0.53059,-1.99326 0.61811,-1.90575 0.0875,0.0875 0.37323,1.43073 0.63492,2.98492 0.74162,4.40454 2.24139,7.13428 4.52783,8.24113 3.67681,1.77991 7.99993,-1.28084 9.99355,-7.0754 0.38251,-1.1118 1.55841,-6.44844 1.55841,-7.07263 0,-0.0654 0.0973,-0.11886 0.21626,-0.11886 0.11895,0 0.43107,0.68461 0.6936,1.52135 0.66167,2.10889 1.63383,3.96175 3.80893,7.2595 2.54282,3.85525 3.09612,4.97748 2.45407,4.97748 -0.39498,0 -3.1646,-2.85597 -4.44761,-4.58629 -0.66533,-0.89728 -1.47212,-2.1912 -1.79287,-2.87537 -0.58319,-1.24396 -0.58319,-1.24396 -1.03162,0.84283 -0.92274,4.29405 -3.70681,8.0894 -6.67612,9.10115 -4.41797,1.50535 -8.19503,-0.79252 -9.88661,-6.01477 -0.33004,-1.01891 -0.33004,-1.01891 -1.32129,1.98438 -1.19924,3.63341 -1.97528,5.39137 -3.7458,8.48531 -2.71652,4.74702 -6.7378,9.47857 -10.30661,12.12704 -2.14912,1.59489 -5.3971,3.16405 -6.9119,3.33927 -1.1368,0.13149 -1.1368,0.13149 0.97987,-1.10162 z m 24.88191,-4.02668 c -0.64871,-1.65026 -0.28999,-8.51078 0.48556,-9.28632 0.62561,-0.62562 1.07577,1.2633 1.02815,4.3142 -0.0587,3.7576 -0.90209,6.52804 -1.51371,4.97212 z m 9.40751,-0.3814 c -0.58025,-1.66449 -0.19928,-8.32668 0.51861,-9.06934 0.1425,-0.14741 0.41076,0.16931 0.67232,0.79375 0.74604,1.78115 0.19286,9.10883 -0.68765,9.10883 -0.11705,0 -0.34353,-0.37496 -0.50328,-0.83324 z m 18.33509,-4.06782 c 1.17897,-1.04115 2.16437,-1.29435 4.40619,-1.13219 0.8703,0.063 1.49131,0.0355 1.38,-0.0609 -0.11131,-0.0965 -1.03581,-0.74975 -2.05446,-1.45175 -1.01865,-0.70199 -2.18075,-1.577 -2.58246,-1.94445 -0.73037,-0.66809 -0.73037,-0.66809 0.26459,-1.69917 0.54722,-0.5671 1.29261,-1.15355 1.65641,-1.30321 0.66146,-0.27213 0.66146,-0.27213 -0.13229,-0.62462 -0.43656,-0.19387 -1.05389,-0.35787 -1.37184,-0.36443 -0.9323,-0.0192 -1.93545,-0.4965 -1.93545,-0.92081 0,-0.54568 1.84762,-1.05257 3.02889,-0.83097 1.06088,0.19903 2.3965,1.2937 2.6459,2.16859 0.13569,0.47596 -0.13016,0.73337 -1.75323,1.69762 l -1.91317,1.13659 2.49675,2.31377 c 2.49676,2.31377 2.49676,2.31377 1.44321,2.49271 -0.57946,0.0984 -2.1655,0.46617 -3.52454,0.81725 -1.35904,0.35107 -2.60919,0.63336 -2.77812,0.6273 -0.16893,-0.006 0.1567,-0.42064 0.72362,-0.92129 z m -2.15775,-10.82626 c 0.13247,-1.17523 0.13247,-1.17523 -1.75153,-1.12448 -1.52082,0.041 -1.88399,-0.0258 -1.88399,-0.34612 0,-0.55481 2.32265,-1.64684 3.80577,-1.78934 1.29924,-0.12485 3.20569,0.46469 3.20569,0.9913 0,0.56471 -2.51505,3.43955 -3.01097,3.44171 -0.43229,0.002 -0.48009,-0.15175 -0.36497,-1.17307 z"
           id="path199" /></g><path
         style="fill:#000000;stroke-width:0.264583"
         d="m 36.632282,-5.3559603 c -5.18728,-0.4588302 -6.22081,-1.0500402 -6.87982,-3.9354803 -0.17411,-0.7622904 -0.54869,-2.1599004 -0.83243,-3.1057804 -0.28372,-0.94589 -1.28702,-5.58181 -2.22954,-10.30206 -0.94253,-4.72025 -2.12853,-10.186749 -2.63557,-12.147789 -0.89438,-3.45909 -1.441,-6.69333 -1.07434,-6.3566 0.0991,0.091 0.83533,1.99599 1.63613,4.23333 1.44216,4.02924 3.66459,12.512589 5.01661,19.149159 0.3854,1.89177 0.86084,3.91583 1.05654,4.49792 0.1957,0.58208 0.55172,1.92566 0.79116,2.98572 0.33247,1.4719304 0.5884,2.0276804 1.08302,2.3517604 0.77235,0.50607 7.66084,1.2117901 16.23908,1.6636801 3.1287,0.16481 6.10526,0.37361 6.61458,0.464 0.92604,0.16434 0.92604,0.16434 0.13229,0.3977603 -1.36555,0.4015699 -14.72455,0.4752799 -18.91771,0.1043799 z m 22.88144,-1.0058102 c -0.15852,-0.41311 1.09294,-6.1652005 2.6371,-12.1208705 0.50936,-1.96453 1.40588,-6.36984 1.99228,-9.78958 1.06408,-6.205469 1.69376,-8.804019 2.70881,-11.178649 0.50796,-1.18836 1.19024,-1.78798 0.90318,-0.79375 -0.20491,0.70967 -0.87935,5.27652 -1.49415,10.117399 -0.80204,6.31513 -1.42637,9.25456 -3.17116,14.93017 -1.29237,4.20392 -2.92986,8.6893705 -3.32999,9.1215505 -0.053,0.0572 -0.16369,-0.0716 -0.24607,-0.28627 z M 30.414572,-41.26453 c -1.01864,-0.0941 -3.01294,-0.18592 -4.43177,-0.20399 -1.41882,-0.0181 -2.57968,-0.14349 -2.57968,-0.27869 0,-0.50838 3.04799,-0.84449 8.38081,-0.92417 3.0304,-0.0453 8.12919,-0.20725 11.33064,-0.35993 4.05697,-0.19347 6.62259,-0.19365 8.46667,-5.3e-4 1.69362,0.17733 3.93133,0.19475 6.21771,0.0484 4.2167,-0.26989 7.55973,-0.26362 9.39271,0.0176 1.78385,0.27371 1.02106,0.54091 -2.24896,0.78778 -1.38245,0.10437 -3.40651,0.37157 -4.49792,0.59378 -1.60159,0.32608 -4.51072,0.41239 -15.08125,0.44745 -7.20328,0.0239 -13.93031,-0.0336 -14.94896,-0.1277 z m 38.54091,-3.34571 c -0.38353,-2.51972 -0.37221,-4.62055 0.0387,-7.18856 0.33751,-2.1092 0.70026,-2.55586 1.19458,-1.47095 0.49073,1.07704 0.41667,8.94287 -0.0935,9.92942 -0.22202,0.42933 -0.49907,0.78061 -0.61568,0.78061 -0.11661,0 -0.35246,-0.92274 -0.52412,-2.05052 z m -47.57687,1.19062 c -0.23437,-0.67048 -0.19543,-5.88842 0.0553,-7.40833 0.0907,-0.54955 0.31602,-0.99219 0.50518,-0.99219 1.0887,0 1.49332,5.37782 0.58227,7.73906 -0.53556,1.38807 -0.82932,1.55811 -1.14273,0.66146 z m 31.12868,-8.9233 c -1.6735,-0.11074 -5.90022,-0.21965 -9.39272,-0.242 -3.4925,-0.0224 -8.0764,-0.21874 -10.18645,-0.4364 -2.11006,-0.21766 -5.56074,-0.47168 -7.66818,-0.56448 -3.83173,-0.16874 -3.83173,-0.16874 -2.77813,-0.5906 0.92457,-0.3702 2.65747,-0.41215 14.15047,-0.34252 9.18904,0.0557 14.47844,0.20365 17.72709,0.49592 2.54661,0.2291 6.81948,0.41961 9.49525,0.42335 4.06405,0.006 4.76076,0.0614 4.23165,0.33866 -1.74401,0.91378 -9.09642,1.34706 -15.57898,0.91807 z m 10.61022,-1.78276 c -0.0148,-0.17665 0.3379,-2.54037 0.78376,-5.25272 0.44586,-2.71235 0.7589,-4.9833 0.69565,-5.04655 -0.0632,-0.0633 -0.42855,0.0279 -0.81177,0.20247 -0.38322,0.1746 -0.77009,0.24414 -0.85972,0.15452 -0.34142,-0.34142 0.20461,-1.51303 1.1578,-2.48431 0.99176,-1.01058 0.99176,-1.01058 0.98353,-3.92099 -0.005,-1.60073 -0.16636,-3.56526 -0.35963,-4.36563 -0.38367,-1.58883 -1.83609,-4.77996 -2.64198,-5.80473 -0.47694,-0.60648 -0.5719,-0.62607 -1.57607,-0.32522 -1.06856,0.32015 -1.06856,0.32015 -0.27699,1.82495 0.85522,1.62579 0.85103,2.45516 -0.0168,3.33988 -1.02761,1.04756 -8.97795,1.16998 -11.15696,0.1718 -0.86541,-0.39642 -1.5581,-1.81215 -1.5581,-3.18441 0,-1.33187 0.35591,-1.34806 0.74959,-0.0341 0.47174,1.57453 1.11928,1.99615 3.25081,2.11659 2.24964,0.12711 6.61219,-0.17706 7.13008,-0.49713 0.32081,-0.19827 0.30319,-0.37184 -0.1169,-1.15191 -1.20978,-2.24642 -1.60183,-2.47958 -4.92816,-2.93083 -4.83353,-0.65573 -4.87247,-0.6645 -4.51926,-1.01783 0.44525,-0.44541 7.62453,-0.42784 8.40843,0.0206 0.48291,0.27624 0.74169,0.25665 1.52136,-0.11515 0.51671,-0.2464 0.93947,-0.52165 0.93947,-0.61167 0,-0.09 -0.39917,-0.55057 -0.88703,-1.02343 -0.88704,-0.85974 -0.88704,-0.85974 -1.86893,-0.28041 -1.27277,0.75095 -1.64048,0.4068 -0.94727,-0.88659 0.52361,-0.97694 0.52361,-0.97694 -1.36766,-2.30511 -2.38809,-1.67709 -3.18678,-1.7462 -3.6162,-0.31293 -0.34537,1.15272 -1.18056,2.04166 -1.64724,1.75323 -0.21437,-0.13249 -0.26053,-0.6445 -0.14597,-1.6192 0.16181,-1.37681 0.14711,-1.42128 -0.43077,-1.30329 -0.32907,0.0672 -1.81563,0.1941 -3.30347,0.28202 -4.52538,0.26741 -10.12713,1.38363 -10.12713,2.01796 0,0.14099 0.23812,0.72311 0.52917,1.2936 1.10428,2.16458 0.34203,2.49655 -1.46448,0.6378 -1.18014,-1.21429 -1.18014,-1.21429 -2.88739,0.004 -0.93898,0.67004 -1.77649,1.3303 -1.86112,1.46724 -0.0846,0.13694 0.15369,0.4505 0.5296,0.69681 0.51462,0.33719 0.75856,0.37275 0.98739,0.14391 0.38143,-0.38143 3.24731,-0.39182 6.39787,-0.0232 3.3859,0.39616 3.72722,0.48144 3.3673,0.84137 -0.18218,0.18218 -1.89811,0.35751 -4.39097,0.44868 -2.74479,0.10037 -4.20096,0.25866 -4.4231,0.4808 -0.18214,0.18214 -0.37963,1.09239 -0.43888,2.02278 -0.10771,1.69161 -0.10771,1.69161 2.715,1.88401 4.87256,0.33211 6.06312,-0.0264 7.08714,-2.13414 0.72415,-1.49053 1.11847,-1.51995 0.88599,-0.0661 -0.24913,1.55799 -1.07924,2.77305 -2.36383,3.46002 -1.00341,0.53661 -1.43102,0.58348 -4.97276,0.54506 -2.19011,-0.0238 -4.10784,-0.16668 -4.41058,-0.3287 -0.99555,-0.5328 -1.35758,-3.13877 -0.68099,-4.90193 0.0655,-0.17062 -0.3007,-0.51037 -0.81371,-0.75501 -0.93274,-0.44479 -0.93274,-0.44479 -1.73026,1.13508 -0.43863,0.86892 -0.97053,2.32152 -1.18199,3.22798 -0.38448,1.64812 -0.38448,1.64812 0.53339,2.40471 1.83135,1.50955 1.82568,2.69051 -0.009,1.92383 -0.54625,-0.22823 -1.05607,-0.41497 -1.13294,-0.41497 -0.23124,0 0.17869,5.51069 0.61014,8.20208 0.22161,1.38245 0.7622,3.8674 1.2013,5.52211 0.43911,1.65472 0.74708,3.05987 0.68439,3.12256 -0.13234,0.13233 -1.63361,-3.40141 -1.90279,-4.47884 -0.11969,-0.47909 -0.49809,-0.8789 -1.1039,-1.16638 -1.5699,-0.74497 -1.951,-2.73199 -0.4518,-2.35572 0.56867,0.14273 0.65631,0.0931 0.53488,-0.30266 -0.43053,-1.4034 -0.9567,-5.46281 -0.96609,-7.45333 -0.0101,-2.13671 -0.0601,-2.33819 -0.79375,-3.1965 -0.88752,-1.03832 -1.05997,-2.00343 -0.31997,-1.79066 0.25466,0.0732 0.65054,0.21092 0.87973,0.30598 0.32928,0.13658 0.50961,-0.16127 0.85944,-1.41955 0.428,-1.53942 0.42517,-1.62118 -0.085,-2.45793 -0.57497,-0.94303 -0.69771,-2.18568 -0.24362,-2.46633 0.15735,-0.0972 0.62385,0.14679 1.03667,0.5423 0.75059,0.71911 0.75059,0.71911 1.15938,-0.0714 0.63682,-1.23147 2.94556,-3.62724 4.38658,-4.55194 1.19272,-0.76536 1.28422,-0.89527 1.05509,-1.49793 -0.64884,-1.70659 -0.0381,-2.1868 1.17326,-0.92244 0.72939,0.76132 0.72939,0.76132 1.96773,0.29474 0.68108,-0.25663 1.95271,-0.61943 2.82583,-0.80623 0.87313,-0.18681 1.62582,-0.36768 1.67266,-0.40195 0.0468,-0.0343 -0.10882,-0.63362 -0.34589,-1.3319 -0.42004,-1.23721 -0.36483,-2.48474 0.10996,-2.48474 0.39193,0 1.54951,1.52607 1.90656,2.51345 0.31096,0.85995 0.41145,0.9239 1.40622,0.89483 2.06465,-0.0603 2.60664,-0.29354 2.84806,-1.22547 0.29774,-1.1493 1.17966,-1.18645 1.5702,-0.0661 0.25061,0.71888 0.38592,0.79375 1.43465,0.79375 1.02437,0 1.20631,-0.0935 1.57714,-0.81063 0.49908,-0.9651 0.99826,-0.89476 1.18378,0.16681 0.11243,0.64337 0.29091,0.79322 1.1017,0.92501 0.53215,0.0865 1.2876,0.36698 1.67878,0.62329 0.39119,0.25631 0.93931,0.40638 1.21806,0.33349 0.58555,-0.15313 1.29125,0.44725 1.29125,1.09853 0,0.24564 0.2455,0.59994 0.54554,0.78732 0.47217,0.29487 0.76255,0.23226 2.15893,-0.46552 0.88736,-0.44342 1.76593,-0.80622 1.95239,-0.80622 0.82989,0 0.59291,0.66821 -0.64158,1.80909 -1.33573,1.23442 -1.33573,1.23442 0.63178,3.30669 1.08214,1.13975 1.96752,2.25935 1.96752,2.488 0,0.36983 0.0534,0.36739 0.48386,-0.0222 0.26612,-0.24083 0.74237,-0.43788 1.05833,-0.43788 0.44621,0 0.57448,0.15781 0.57448,0.70677 0,0.38872 -0.20095,0.92882 -0.44656,1.20021 -0.46658,0.51557 -0.46516,0.52471 0.47535,3.05115 0.22056,0.59251 0.22056,0.59251 1.19114,-0.0661 1.2495,-0.84793 1.69049,-0.83908 1.69049,0.0339 0,0.45524 -0.36269,1.05527 -1.05834,1.75092 -1.05833,1.05833 -1.05833,1.05833 -1.05833,4.06991 0,2.50057 0.0673,3.01158 0.39688,3.01158 0.56652,0 0.49026,0.68886 -0.17604,1.59008 -0.37965,0.51351 -0.82492,2.00481 -1.32002,4.42106 -0.69069,3.37076 -2.25158,8.82726 -2.31351,8.08749 z m -11.40569,-5.6006 c -2.05027,-0.6669 -3.96267,-2.43566 -5.13516,-4.74946 -0.94582,-1.86649 -1.18358,-3.16157 -0.90571,-4.93353 0.63434,-4.04508 2.8157,-5.26302 5.96206,-3.32882 1.74676,1.0738 1.86196,1.61557 1.2513,5.88474 -0.20806,1.45453 0.47401,3.14354 1.80822,4.47776 0.69451,0.6945 0.93812,0.78481 1.72093,0.63795 1.15423,-0.21653 1.06439,0.19098 -0.28243,1.28105 -0.75261,0.60914 -1.2876,0.80523 -2.36437,0.86665 -0.76542,0.0436 -1.69009,-0.0177 -2.05484,-0.13634 z m 1.27409,-2.34646 c -0.52343,-0.54571 -1.21761,-1.5232 -1.54263,-2.17222 -0.50302,-1.00449 -0.56605,-1.43744 -0.42369,-2.91042 0.092,-0.95171 0.23893,-2.05171 0.32655,-2.44444 0.30649,-1.37366 -2.26549,-2.90128 -3.30335,-1.96202 -0.25312,0.22906 -0.79675,1.12062 -1.20809,1.98123 -0.74789,1.56476 -0.74789,1.56476 0.65497,3.59406 1.66116,2.40297 3.31694,3.93347 4.83882,4.47273 1.63745,0.58021 1.69948,0.52748 0.65742,-0.55892 z m -16.92443,1.26346 c -2.16842,-0.65508 -3.19466,-2.04314 -1.32518,-1.79239 1.60091,0.21473 1.8036,-0.0386 2.0062,-2.5075 0.23938,-2.91715 0.79395,-4.77322 1.75228,-5.8647 1.31898,-1.50223 3.31976,-2.0125 4.4407,-1.13253 0.53505,0.42004 1.32557,2.10761 1.63586,3.49215 0.25189,1.124 0.2159,1.34992 -0.376,2.35992 -0.90859,1.55038 -3.94404,4.3206 -5.5575,5.0719 -1.4565,0.67821 -1.5309,0.68899 -2.57636,0.37315 z m 5.60877,-4.9248 c 2.38575,-1.98566 2.38575,-1.98566 1.91504,-2.78723 -0.2589,-0.44085 -0.78805,-1.17946 -1.1759,-1.64134 -0.69375,-0.82617 -0.71734,-0.8327 -1.45521,-0.40314 -1.07188,0.62402 -1.86668,2.19345 -2.19203,4.32846 -0.15502,1.01722 -0.3443,2.12361 -0.42063,2.45866 -0.12397,0.54417 -0.0811,0.57829 0.4021,0.31971 0.29749,-0.15921 1.61448,-1.18301 2.92663,-2.27512 z m -11.56859,0.88829 c -0.82446,-0.90494 -1.14229,-1.65609 -1.14229,-2.69966 0,-0.76028 0.10057,-0.94344 0.51801,-0.94344 0.73532,0 1.92375,2.10083 1.8148,3.20809 -0.10508,1.06786 -0.48686,1.20736 -1.19052,0.43501 z m 29.64429,-2.98363 c -0.44877,-1.16948 0.8983,-3.89789 2.00267,-4.05629 0.58763,-0.0843 0.6157,-0.0262 0.47912,0.99211 -0.0798,0.5949 -0.45909,1.61745 -0.84288,2.27234 -0.70622,1.20507 -1.35926,1.52058 -1.63891,0.79184 z m -16.69752,-12.6956 c -0.99586,-0.43283 -1.12449,-1.06041 -0.26458,-1.29086 0.32742,-0.0877 1.61435,-0.16116 2.85984,-0.16315 2.28365,-0.004 3.44533,0.37806 3.058,1.00479 -0.50134,0.81118 -4.1529,1.10134 -5.65326,0.44922 z"
         id="path233" /><g
         id="g271"
         transform="translate(32.563125,-93.717597)"
         style="fill:#000000"><path
           style="fill:#000000;stroke-width:0.264583"
           d="m 54.677606,160.54928 c -0.722901,-0.84171 -0.770576,-1.42896 -0.210015,-2.58692 0.570632,-1.17877 2.001098,-2.34856 3.242781,-2.65186 0.941628,-0.23 2.146299,0.27139 2.574525,1.07154 0.387058,0.72322 0.23673,3.17647 -0.222804,3.63601 -0.409825,0.40982 -0.533852,0.21988 -0.805349,-1.23338 -0.297443,-1.59213 -0.577483,-1.88786 -1.39081,-1.46872 -0.860856,0.44363 -2.078926,1.61232 -2.078926,1.99465 0,0.17378 0.565546,0.45853 1.25677,0.63277 1.174625,0.29611 1.223201,0.3414 0.74318,0.69287 -0.734896,0.5381 -2.617744,0.48544 -3.109352,-0.087 z M 169.03911,137.21931 c -0.62006,-1.1586 -0.84902,-10.86743 -0.25628,-10.86743 0.3504,0 0.97194,1.34033 1.16981,2.52269 0.30631,1.83028 0.30668,1.83039 1.81619,0.54077 1.43498,-1.22594 2.02377,-1.48256 2.02059,-0.88064 -0.002,0.46264 -0.9304,1.82076 -1.57767,2.309 -0.53508,0.40362 -0.52818,0.42954 0.65159,2.44494 1.15093,1.96612 1.44888,2.85283 0.95862,2.85283 -0.44249,0 -2.19985,-2.1772 -2.79604,-3.46402 -0.59716,-1.28891 -0.59716,-1.28891 -0.74519,1.19237 -0.0818,1.3715 -0.32043,2.8103 -0.53347,3.2169 -0.38542,0.73561 -0.38542,0.73561 -0.70815,0.13259 z m -4.66954,-2.25039 c -1.00675,-0.43822 -2.59159,-1.98847 -3.16353,-3.09448 -0.54755,-1.05885 -0.54219,-2.91156 0.0109,-3.75563 0.66329,-1.01231 2.10336,-1.58429 3.62149,-1.43842 2.03403,0.19545 2.01743,0.67854 -0.0431,1.2525 -2.75196,0.76658 -2.80872,2.41614 -0.19116,5.55587 1.50092,1.80033 1.43638,2.20751 -0.2346,1.48016 z m -17.11793,-1.15224 c -0.7559,-0.83527 -1.28618,-2.48604 -1.43633,-4.47134 -0.14635,-1.93512 -0.14635,-1.93512 -1.3915,-1.93512 -1.24514,0 -1.24514,0 -1.48316,2.55959 -0.13091,1.40777 -0.36633,2.60148 -0.52316,2.65268 -0.75943,0.24795 -1.56305,-3.98681 -1.29037,-6.79977 0.21108,-2.17756 0.59469,-3.70417 0.9308,-3.70417 0.38513,0 0.777,1.20962 0.777,2.39847 0,1.04111 0,1.04111 1.52894,1.04111 1.52894,0 1.52894,0 1.82292,-1.86702 0.32532,-2.06603 0.47129,-2.35313 0.95203,-1.87249 0.22148,0.22143 0.37915,1.87331 0.49078,5.14173 0.0905,2.64852 0.25279,5.38104 0.36077,6.07226 0.21011,1.34514 -0.0148,1.58393 -0.73872,0.78407 z m 9.75946,-1.70504 c -0.66587,-0.7612 -1.53831,-2.01544 -1.93874,-2.7872 -0.72667,-1.40052 -0.7303,-1.40306 -1.89905,-1.32799 -1.17099,0.0752 -1.17099,0.0752 -1.47256,1.59188 -0.16586,0.83416 -0.38504,1.60012 -0.48707,1.70215 -0.44857,0.44858 -0.84203,-0.61289 -0.92788,-2.50322 -0.0716,-1.57569 0.0384,-2.42962 0.48411,-3.75851 0.67022,-1.99844 1.5304,-3.50744 1.87719,-3.29311 0.30374,0.18772 0.30316,2.04951 -0.001,3.35947 -0.22291,0.95992 -0.20699,0.99219 0.48966,0.99219 0.63291,0 0.70819,-0.0881 0.62199,-0.7276 -0.12146,-0.90115 0.48852,-3.03207 0.90796,-3.17188 0.18448,-0.0615 0.37501,0.30487 0.47114,0.90593 0.3729,2.33162 0.77685,3.55048 2.13742,6.44935 1.99987,4.26096 1.91784,5.0617 -0.26312,2.56854 z"
           id="path275" /><path
           style="fill:#000000;stroke-width:0.264583"
           d="m 93.536393,196.46646 c -0.08755,-0.21828 -0.403963,-2.30187 -0.703149,-4.6302 -1.032187,-8.03277 -2.087176,-13.11809 -4.791223,-23.09493 -0.879056,-3.24336 -1.55362,-6.10086 -1.499031,-6.35 0.165844,-0.75689 2.453995,4.30492 3.866256,8.55286 2.308905,6.94495 3.42315,12.92392 3.646921,19.56915 0.131781,3.91339 -0.130953,6.92256 -0.519774,5.95312 z m 33.850257,-1.85208 c -0.0911,-0.50932 -0.41044,-3.1287 -0.70956,-5.82083 -1.61474,-14.53327 -4.3289,-25.09901 -9.11921,-35.49948 -1.05037,-2.2805 -1.77562,-4.09333 -1.61167,-4.02852 1.28086,0.50633 5.79142,8.99207 7.58,14.26029 2.89189,8.51799 4.50388,18.20131 4.47062,26.85521 -0.0162,4.20832 -0.28318,6.06075 -0.61018,4.23333 z m 4.73265,-6.0095 c -0.69301,-0.16669 -1.15724,-0.6035 -0.64823,-0.60993 1.07082,-0.0135 5.85749,-0.82212 7.13052,-1.20453 3.30655,-0.99327 5.90024,-2.92433 7.24407,-5.3934 0.72053,-1.32384 0.72053,-1.32384 -0.34146,-2.8877 -1.9115,-2.8148 -3.91366,-4.19566 -7.36236,-5.07768 -2.00442,-0.51265 -2.00442,-0.51265 -2.86318,0.14236 -2.26441,1.72715 -3.16143,3.0048 -5.01094,7.13732 -0.89676,2.0037 -1.58103,3.05514 -1.98828,3.05514 -0.32643,0 1.47871,-6.16154 2.24709,-7.67003 1.08378,-2.12772 3.39441,-4.25603 6.01166,-5.53731 2.80379,-1.37259 4.81243,-1.87493 7.4768,-1.86985 2.21112,0.004 3.486,0.36096 2.24572,0.62842 -2.75722,0.59456 -5.51929,1.34926 -6.63495,1.81291 -1.32726,0.55158 -1.32726,0.55158 0.34564,0.97308 3.06251,0.77163 5.50231,2.71041 6.63598,5.27325 0.50859,1.14975 0.55043,1.18182 0.76945,0.58975 0.12739,-0.34437 0.52949,-2.23893 0.89356,-4.21014 0.67326,-3.64527 0.81061,-4.1107 1.01973,-3.45555 0.50076,1.56884 0.23583,6.5653 -0.47505,8.95908 -0.63751,2.14675 -2.0172,4.5464 -3.37354,5.86752 -1.54336,1.50328 -4.45887,2.97685 -6.6901,3.38135 -1.55615,0.28211 -5.6141,0.34081 -6.63213,0.0959 z M 84.709224,188.2215 c -0.621223,-0.77065 -1.909614,-3.64525 -2.589673,-5.77795 -0.876993,-2.75031 -1.180208,-6.84744 -0.667694,-9.02208 0.452136,-1.91846 1.33723,-3.59806 2.54005,-4.8201 0.969095,-0.98458 2.425001,-1.9182 2.646264,-1.69693 0.06068,0.0607 -0.311449,0.6627 -0.826947,1.33783 -2.339956,3.06454 -3.077768,6.07524 -2.563336,10.45986 0.423262,3.60753 0.603361,3.93993 1.022202,1.88661 0.444831,-2.18073 1.368658,-4.03549 2.832028,-5.68582 1.918505,-2.16361 1.929585,-1.46327 0.04736,2.99353 -0.868336,2.05607 -1.404488,4.50464 -1.63294,7.45751 -0.210029,2.71475 -0.396518,3.37715 -0.807315,2.86754 z M 69.892686,163.39814 c -1.336928,-0.11798 -3.420522,-0.41286 -4.630208,-0.65529 -2.1622,-0.43331 -5.198427,-1.59787 -4.912199,-1.8841 0.08026,-0.0803 1.02113,-0.0118 2.090811,0.1522 1.069681,0.16397 4.644071,0.36639 7.943088,0.44983 6.718122,0.1699 10.775486,-0.11254 16.340388,-1.13749 1.954252,-0.35994 3.740189,-0.60819 3.96875,-0.55168 0.592748,0.14655 -2.764589,1.6649 -5.064353,2.29033 -4.374864,1.18977 -11.010629,1.75323 -15.736277,1.3362 z m 54.529654,-3.40528 c 0.0767,-0.12412 1.51551,-1.26958 3.19732,-2.54545 4.49717,-3.41171 5.87012,-5.24086 6.63211,-8.83585 0.5001,-2.3594 0.49222,-2.38419 -0.37664,-1.18476 -2.47714,3.4196 -9.2162,6.97092 -13.22816,6.97092 -1.34124,0 -0.9013,-0.31535 2.90086,-2.0793 3.92779,-1.82223 5.90954,-3.05643 7.84136,-4.88346 1.64604,-1.55676 2.48383,-2.86734 3.24241,-5.0722 0.48668,-1.41456 0.53075,-2.23068 0.53459,-9.90074 0.004,-7.75169 0.28365,-13.90463 0.67908,-14.93509 0.12428,-0.32389 0.34046,-0.38354 0.86567,-0.23884 0.38501,0.10607 1.83112,0.18186 3.21356,0.16843 2.03273,-0.0198 3.34641,-0.23734 6.8675,-1.1375 8.62676,-2.20542 11.2506,-1.80302 16.28354,2.49728 1.30969,1.11904 2.8575,2.25769 3.43959,2.53033 2.17608,1.01926 4.04899,0.52101 7.01146,-1.86524 2.74972,-2.2149 3.76202,-2.71037 5.84149,-2.85916 3.71416,-0.26574 6.61451,1.85487 7.26273,5.31019 0.24609,1.31177 -0.0164,1.23628 -0.69092,-0.19868 -1.18257,-2.51582 -3.80489,-4.08494 -6.26357,-3.74794 -1.55481,0.21311 -2.47784,0.73729 -5.0914,2.8914 -2.78808,2.29794 -3.88385,2.81549 -5.97701,2.82304 -2.12378,0.008 -4.03341,-0.95616 -6.85528,-3.45997 -4.0971,-3.63529 -6.39884,-4.07369 -13.64892,-2.59963 -4.98376,1.01328 -8.54005,1.15848 -10.55012,0.43075 -0.64917,-0.23503 -1.20277,-0.40283 -1.23023,-0.37289 -0.0275,0.0299 0.06,1.18552 0.19429,2.56797 0.13431,1.38244 0.33073,5.78776 0.43647,9.78958 l 0.19226,7.27604 2.64583,-0.0208 c 2.17134,-0.0171 3.42876,-0.21646 7.01146,-1.11155 5.47041,-1.36672 7.20991,-1.54742 9.75233,-1.01306 2.28056,0.47933 3.50735,1.1508 5.85809,3.20637 4.91718,4.29976 6.37973,4.42989 10.93426,0.97287 3.03994,-2.30739 3.85801,-2.71921 5.74077,-2.88994 2.11626,-0.19189 3.99303,0.47592 5.45994,1.94283 0.64631,0.64631 1.14836,0.98147 1.14836,0.76662 0,-0.20996 -0.8754,-1.66534 -1.94532,-3.23418 -2.54645,-3.73388 -3.11404,-4.89199 -3.26886,-6.66975 -0.10965,-1.25908 -0.017,-1.68684 0.63438,-2.92957 0.98358,-1.87643 2.80677,-3.18225 4.41126,-3.15944 0.95011,0.0135 1.02925,0.0572 0.59966,0.33073 -1.80779,1.1512 -2.21275,1.49729 -2.90574,2.48329 -0.5128,0.72963 -0.81397,1.53289 -0.89135,2.37734 -0.13285,1.44986 0.33298,2.49591 2.89866,6.50918 1.73629,2.71591 2.17202,4.2624 1.78135,6.32238 -0.37033,1.95272 -0.6418,2.07281 -1.30341,0.57661 -1.31199,-2.96698 -3.95298,-4.40354 -6.92411,-3.76634 -1.05426,0.22609 -1.88172,0.72327 -3.89339,2.33935 -3.33096,2.67593 -4.5006,3.26665 -6.52334,3.29459 -2.12075,0.0293 -3.80102,-0.82143 -6.88652,-3.48667 -2.68179,-2.31652 -3.65743,-2.86059 -5.86778,-3.2722 -1.88011,-0.35012 -3.56018,-0.19052 -8.67695,0.82426 -4.14898,0.82284 -6.97239,0.98932 -8.68991,0.51241 -0.55935,-0.15532 -1.04839,-0.24395 -1.08676,-0.19696 -0.0384,0.047 -0.2126,3.18106 -0.38717,6.9646 -0.17458,3.78354 -0.38348,7.2649 -0.46423,7.73636 -0.19104,1.11539 -0.61672,0.84329 -0.61672,-0.39423 0,-0.961 0,-0.961 -0.94314,0.61093 -1.2152,2.02539 -2.22109,3.0598 -4.36733,4.49117 -2.7794,1.85363 -6.51842,3.44982 -5.95836,2.54362 z m -61.227,-4.83072 c 6.824558,-3.71502 12.989031,-10.94054 17.508807,-20.52246 1.462519,-3.10054 3.234624,-8.22448 3.530856,-10.20928 0.237856,-1.59364 0.582129,-1.82579 0.790814,-0.53327 0.841859,5.21418 1.506558,7.14972 3.06484,8.92451 3.727043,4.24486 9.655148,1.23501 11.960943,-6.07288 0.22957,-0.72761 0.61117,-2.33495 0.84799,-3.57188 0.55709,-2.90965 0.65049,-3.21231 0.93677,-3.03538 0.13109,0.081 0.37209,0.6483 0.53556,1.26062 0.44329,1.66049 1.78858,4.20531 3.94538,7.4633 1.9131,2.88986 2.80168,4.56768 2.55154,4.81782 -0.22479,0.22479 -1.93759,-1.22673 -3.13265,-2.65478 -1.72134,-2.05692 -2.44319,-3.08519 -3.19009,-4.54429 -0.41541,-0.81152 -0.72168,-1.16949 -0.79229,-0.92604 -0.0633,0.21828 -0.30859,1.20227 -0.54509,2.18665 -1.250162,5.20359 -4.53136,8.57014 -8.639342,8.86406 -2.040564,0.146 -3.492412,-0.35753 -5.099568,-1.76863 -1.046885,-0.91918 -2.460247,-3.48715 -2.740007,-4.97839 -0.16265,-0.86701 -0.243512,-0.71831 -1.202946,2.21206 -3.04623,9.30399 -9.473153,18.10771 -16.122584,22.08501 -1.96709,1.17661 -4.363272,2.09274 -5.459093,2.08719 -0.601333,-0.003 -0.375073,-0.19923 1.25016,-1.08394 z m 25.1613,-4.50807 c -0.575561,-1.65105 -0.212347,-8.34656 0.490929,-9.04983 0.176668,-0.17667 0.409633,0.081 0.7,0.77424 0.746049,1.78115 0.192866,9.10882 -0.687646,9.10882 -0.117049,0 -0.343527,-0.37496 -0.503283,-0.83323 z m 9.497372,0.17177 c -0.588677,-1.5277 -0.303633,-8.08019 0.392938,-9.03281 0.307641,-0.42072 0.358037,-0.40829 0.664226,0.16382 0.803153,1.50071 0.527333,7.92175 -0.394182,9.17648 -0.334719,0.45575 -0.376314,0.43646 -0.662982,-0.30749 z m 17.618978,-3.66724 c 0.45708,-1.19114 3.35751,-2.13501 5.40151,-1.75779 0.65485,0.12086 1.21803,0.19275 1.25151,0.15976 0.0335,-0.033 -0.97854,-0.79298 -2.24896,-1.68888 -3.68537,-2.59895 -3.42609,-2.27152 -2.62762,-3.31837 0.37663,-0.49379 1.12393,-1.10619 1.66065,-1.36088 1.17543,-0.55778 0.93742,-0.78755 -1.27215,-1.2281 -0.83423,-0.16633 -1.63937,-0.45013 -1.7892,-0.63067 -0.48265,-0.58157 0.48161,-1.05991 2.13662,-1.05991 1.76381,0 2.7925,0.59226 3.3341,1.91959 0.33491,0.82076 0.33491,0.82076 -1.3663,1.77213 -0.93567,0.52326 -1.76645,1.05693 -1.84618,1.18594 -0.0797,0.12901 0.94135,1.22742 2.26908,2.44091 2.40176,2.19512 2.41018,2.20726 1.65469,2.38439 -0.41765,0.0979 -1.83092,0.43978 -3.14061,0.75969 -3.76102,0.91866 -3.60002,0.89877 -3.41714,0.42219 z m -1.42361,-11.48652 c 0.12137,-1.26313 0.12137,-1.26313 -1.38136,-1.01461 -2.60052,0.43009 -3.2452,-0.36993 -1.12727,-1.3989 1.67112,-0.81189 3.63312,-0.99925 4.9039,-0.46828 0.54465,0.22757 0.99027,0.52848 0.99027,0.66871 0,0.46531 -2.68441,3.47622 -3.09927,3.47622 -0.32715,0 -0.38367,-0.2494 -0.28627,-1.26314 z"
           id="path273" /></g><g
         id="g335"
         transform="translate(88.534592,-168.34263)"
         style="fill:#000000"><path
           style="fill:#000000;stroke-width:0.264583"
           d="m 173.81071,173.97827 c -0.93406,-0.99859 -1.84756,-2.32583 -2.72056,-3.95277 -0.016,-0.0297 -0.5151,-0.13176 -1.10925,-0.22677 -1.08025,-0.17274 -1.08025,-0.17274 -1.26934,1.08819 -0.104,0.69351 -0.30692,1.56946 -0.45093,1.94656 -0.25051,0.65597 -0.27769,0.66405 -0.6281,0.18689 -0.57937,-0.78897 -0.74044,-2.66027 -0.38919,-4.52181 0.38962,-2.06493 1.71251,-4.99331 2.18334,-4.83312 0.37302,0.12691 0.42815,1.6506 0.1148,3.17295 -0.18313,0.88969 -0.14832,0.99218 0.33693,0.99218 0.45568,0 0.54116,-0.16851 0.54116,-1.06683 0,-1.14058 0.61063,-2.90192 1.00605,-2.90192 0.13162,0 0.38054,0.85514 0.55315,1.90031 0.32878,1.99085 0.50097,2.46226 2.15698,5.9049 1.12239,2.3333 1.50771,3.57188 1.11121,3.57188 -0.14139,0 -0.78769,-0.56729 -1.43625,-1.26064 z m 3.56596,0.94663 c -0.29211,-0.36352 -3.87879,-9.88735 -4.1804,-11.10036 -0.52448,-2.10928 1.58288,0.0285 3.01403,3.05752 0.97649,2.06674 1.54526,3.98091 1.76809,5.95045 0.1898,1.67763 -0.10665,2.70849 -0.60172,2.09239 z m -14.48809,-3.20603 c -0.86675,-1.32283 -1.19443,-3.96703 -0.66437,-5.3612 0.25992,-0.68363 0.29257,-0.69436 0.77746,-0.25554 0.93912,0.84989 1.42408,4.84436 0.70718,5.82479 -0.34457,0.47122 -0.3813,0.4619 -0.82027,-0.20805 z m 15.58869,-3.42528 c 0.72719,-2.37959 0.74384,-2.58387 0.30431,-3.73475 -0.53152,-1.39178 -1.33968,-1.87971 -2.79096,-1.68506 -0.59017,0.0792 -1.12892,0.0535 -1.19722,-0.057 -0.23318,-0.3773 1.10458,-1.35683 2.06615,-1.51287 3.40461,-0.5525 5.39088,4.26152 2.81933,6.83307 -0.92022,0.92022 -1.45631,0.9901 -1.20161,0.15662 z m -18.35658,-3.18993 c -0.49839,-0.17369 -0.95252,-0.45779 -1.00917,-0.63135 -0.11896,-0.3644 0.59589,-0.50966 4.21694,-0.85688 1.53051,-0.14676 3.06573,-0.46704 3.80395,-0.79359 2.08461,-0.92212 2.47944,-0.67123 1.24758,0.79275 -1.1256,1.3377 -2.49554,1.82457 -5.10417,1.81399 -1.23693,-0.005 -2.65674,-0.15123 -3.15513,-0.32492 z m -3.28616,-21.83402 c -0.73055,-0.80725 -0.55745,-2.27197 0.39697,-3.35899 1.71894,-1.95776 4.14897,-2.48784 5.11067,-1.11481 0.70927,1.01263 0.41452,4.1639 -0.38946,4.1639 -0.13539,0 -0.32486,-0.59323 -0.42104,-1.3183 -0.22308,-1.68164 -0.60481,-2.02381 -1.65307,-1.48173 -0.75741,0.39167 -1.89445,1.59839 -1.89445,2.01055 0,0.10862 0.56555,0.34006 1.25677,0.51431 1.17463,0.2961 1.2232,0.34139 0.74318,0.69286 -0.7482,0.54785 -2.61401,0.48399 -3.14957,-0.10779 z m 80.51614,-24.85 c -0.61148,-0.69123 -1.45959,-1.86978 -1.88468,-2.61901 -0.69895,-1.23189 -0.87312,-1.37179 -1.82025,-1.46212 -1.01702,-0.097 -1.05195,-0.0729 -1.20647,0.83307 -0.46199,2.70861 -0.89626,3.27672 -1.40005,1.83154 -0.66219,-1.89957 -0.18341,-4.99049 1.19452,-7.71161 0.9689,-1.91337 1.2625,-1.64278 1.07655,0.99219 -0.14558,2.06275 -0.11852,2.24896 0.32675,2.24896 0.40997,0 0.50253,-0.26796 0.59518,-1.72309 0.0717,-1.12672 0.26023,-1.87361 0.54459,-2.15796 0.40343,-0.40344 0.4439,-0.38885 0.55993,0.20174 0.0688,0.35013 0.26707,1.35098 0.44061,2.2241 0.17354,0.87313 0.95762,2.94437 1.74241,4.60276 1.969,4.16082 1.91155,5.09141 -0.16909,2.73943 z m 3.58832,1.00507 c -0.39293,-0.63576 -4.10901,-10.95107 -4.10901,-11.406 0,-2.19908 3.40108,3.27611 4.35878,7.01693 0.64555,2.52155 0.47275,5.55813 -0.24977,4.38907 z m -65.26282,-1.79882 c 0.50541,-0.94309 3.70406,-3.75926 5.8831,-5.17963 1.2364,-0.80592 5.45678,-3.11554 9.37862,-5.13247 3.92185,-2.01694 8.30608,-4.4115 9.74272,-5.32126 1.43665,-0.90975 2.67983,-1.58636 2.76261,-1.50358 0.30249,0.30249 -3.65777,3.8554 -5.93945,5.32853 -1.29011,0.83295 -5.5227,3.1468 -9.40575,5.1419 -3.88305,1.9951 -8.26271,4.41542 -9.73258,5.37849 -1.46987,0.96307 -2.7321,1.75104 -2.80495,1.75104 -0.0728,0 -0.0208,-0.20836 0.11568,-0.46302 z m 50.90228,-1.18182 c -0.6877,-0.84362 -1.13978,-4.46449 -0.70037,-5.60956 0.46487,-1.21144 1.34773,0.10234 1.69311,2.51953 0.33297,2.33028 -0.21689,4.04179 -0.99274,3.09003 z m -66.53007,-1.73675 c -0.64635,-0.691 -1.51833,-1.84993 -1.93773,-2.57541 -0.91183,-1.57727 -1.07408,-1.70663 -2.14706,-1.71187 -0.81264,-0.004 -0.83671,0.0319 -1.15506,1.71903 -0.17881,0.94769 -0.43292,1.78969 -0.56467,1.87112 -0.52833,0.32653 -1.09007,-1.83203 -0.93535,-3.5942 0.26004,-2.96183 1.75395,-6.45066 2.55117,-5.95794 0.31954,0.19748 0.29376,0.71717 -0.16102,3.24596 -0.13443,0.74745 -0.0816,0.8599 0.40396,0.8599 0.48948,0 0.5591,-0.15554 0.56252,-1.25677 0.004,-1.31285 0.46866,-2.55684 0.92214,-2.46916 0.14552,0.0281 0.41961,0.8968 0.6091,1.93035 0.20886,1.13924 0.87017,2.98266 1.67951,4.68165 2.1753,4.56646 2.222,5.44843 0.17249,3.25734 z m 3.39197,0.78792 c -0.3847,-0.62245 -4.13328,-10.99493 -4.13328,-11.43695 0,-0.82077 0.45677,-0.61616 1.34613,0.60302 2.17005,2.97477 4.01224,8.44366 3.51354,10.4306 -0.15516,0.61823 -0.48157,0.79947 -0.72639,0.40333 z m 13.06463,-2.31043 c 0,-0.86563 3.4632,-3.53134 7.14375,-5.49872 1.23693,-0.66118 4.57341,-2.20437 7.41441,-3.42932 2.841,-1.22494 6.34979,-2.83417 7.79731,-3.57607 1.44753,-0.741895 2.68681,-1.293955 2.75397,-1.226799 0.22788,0.227882 -1.65568,1.959049 -3.3983,3.123349 -2.19715,1.46798 -4.46156,2.60161 -10.4481,5.23062 -2.62941,1.15471 -6.18903,2.86876 -7.91028,3.80901 -3.18097,1.73763 -3.35276,1.81797 -3.35276,1.56793 z m 65.74154,-0.586 c 0.92613,-3.61214 -0.1401,-5.61549 -2.76529,-5.1957 -1.24551,0.19916 -1.38697,-0.13405 -0.38987,-0.91837 2.18976,-1.72246 5.05973,-0.16618 5.3547,2.90366 0.14457,1.50458 -0.27094,2.68286 -1.20528,3.41781 -0.917,0.72131 -1.21637,0.65886 -0.99426,-0.2074 z m -93.05295,0.006 c -0.93483,-1.0514 -1.34878,-4.78457 -0.63828,-5.75624 0.34611,-0.47334 0.37782,-0.46721 0.7831,0.15131 0.90439,1.38028 1.23158,5.11505 0.51122,5.8354 -0.142,0.14201 -0.40791,0.0486 -0.65604,-0.23047 z m 75.38363,-2.72714 c -1.41367,-0.35619 -2.1428,-0.7826 -1.84588,-1.07951 0.1351,-0.13511 1.66593,-0.37478 3.40184,-0.5326 2.74851,-0.24988 3.83219,-0.50564 6.00047,-1.41616 0.34771,-0.14601 0.46302,-0.0679 0.46302,0.31354 0,0.60224 -1.10072,1.69046 -2.34593,2.31929 -1.05725,0.53391 -4.24274,0.75594 -5.67352,0.39544 z m -59.97462,-0.71869 c 0.002,-0.10914 0.17291,-0.68348 0.37953,-1.27632 0.46185,-1.32518 0.19147,-2.79108 -0.68735,-3.72654 -0.50891,-0.54171 -0.82604,-0.64092 -1.8715,-0.58543 -0.69231,0.0367 -1.25996,-0.0154 -1.26143,-0.11594 -0.001,-0.10051 -0.003,-0.29875 -0.003,-0.44054 0,-0.4153 1.48669,-1.06521 2.43426,-1.06413 1.18671,0.001 2.41159,0.80247 2.94473,1.92598 0.85011,1.79148 0.39387,4.53445 -0.86642,5.20893 -0.5988,0.32047 -1.07456,0.3534 -1.06914,0.074 z M 146.36236,105.837 c -1.03729,-0.36149 -1.32913,-0.86288 -0.62975,-1.08195 0.26267,-0.0823 1.81962,-0.26654 3.45988,-0.40948 1.93886,-0.16896 3.40863,-0.44848 4.20082,-0.7989 1.55361,-0.68723 1.93434,-0.68766 1.75503,-0.002 -0.1946,0.74414 -1.75475,1.97352 -2.96446,2.33596 -1.29725,0.38866 -4.6532,0.36349 -5.82152,-0.0437 z m 57.80557,-9.487174 c 1.55944,-1.671603 2.21785,-2.70129 5.68564,-8.891742 2.06405,-3.684607 3.70715,-5.754657 5.39701,-6.799421 1.18155,-0.730494 1.49976,-0.801866 3.56699,-0.800047 4.1199,0.0036 4.89662,0.675285 1.21137,1.047517 -3.646,0.368269 -4.97869,1.488014 -8.0708,6.781199 -4.34083,7.430807 -6.17203,9.600487 -8.59795,10.187199 -0.74885,0.18111 -0.70315,0.09486 0.80774,-1.524705 z m 17.14582,0.723202 c -0.60304,-0.188642 -2.32945,-0.924817 -3.83646,-1.635947 -3.18815,-1.504428 -4.61961,-1.651125 -6.52018,-0.668187 -0.62388,0.322659 -1.87403,0.813263 -2.77812,1.090229 l -1.6438,0.503576 1.41938,-1.318632 c 2.12202,-1.971408 3.75943,-2.733009 5.85666,-2.724076 1.64063,0.007 1.93758,0.118751 6.45124,2.428077 2.6023,1.331414 4.79503,2.484335 4.87275,2.562047 0.28447,0.284479 -2.75745,0.09576 -3.82147,-0.237087 z"
           id="path339" /><path
           style="fill:#000000;stroke-width:0.264583"
           d="m 197.73139,171.3363 c -0.72972,-1.71549 -1.08732,-3.61553 -1.46175,-7.76655 -0.31778,-3.52309 -0.31778,-3.52309 -1.90528,-3.86411 -0.87313,-0.18757 -2.98531,-0.45723 -4.69373,-0.59925 -3.40766,-0.28327 -5.69302,-0.64699 -17.57222,-2.79663 -4.38814,-0.79407 -8.05634,-1.44377 -8.15155,-1.44377 -0.0952,0 -0.0891,-0.13594 0.0136,-0.3021 0.38458,-0.62227 7.80869,0.055 19.02681,1.73566 2.47386,0.37063 5.74808,0.78991 7.27604,0.93175 1.52797,0.14183 4.20688,0.61984 5.95313,1.06224 1.74625,0.4424 3.3724,0.80468 3.61366,0.80507 0.24126,2.7e-4 1.59618,-0.77319 3.01093,-1.71908 1.41474,-0.94588 2.68161,-1.71979 2.81526,-1.71979 0.13365,0 0.7135,-0.22732 1.28856,-0.50515 0.57505,-0.27784 1.04555,-0.41766 1.04555,-0.31071 0,0.26251 -1.05943,1.21143 -1.74768,1.56538 -0.30638,0.15756 -1.67408,1.1985 -3.03934,2.3132 -2.48229,2.02673 -2.48229,2.02673 -4.09604,1.8972 -1.61375,-0.12954 -1.61375,-0.12954 -1.27586,1.35788 0.2534,1.11546 1.16309,9.2886 1.16309,10.4498 0,0.0912 -0.16394,0.16573 -0.3643,0.16573 -0.20036,0 -0.60486,-0.56554 -0.89888,-1.25677 z m 32.13405,-3.63802 c -0.0956,-0.58208 -0.3586,-2.54661 -0.58453,-4.36562 -0.82553,-6.64672 -2.81394,-19.78093 -3.46378,-22.8796 -1.78804,-8.52595 -3.91515,-13.79406 -7.74803,-19.18915 -0.87876,-1.23693 -2.03003,-2.8752 -2.55837,-3.6406 -0.52834,-0.7654 -1.79347,-2.28345 -2.8114,-3.37343 -1.01793,-1.08999 -1.73296,-1.9818 -1.58896,-1.9818 1.14781,0 5.41493,4.29892 8.92928,8.99583 5.0753,6.78311 7.71683,15.32238 9.37138,30.29479 1.01616,9.19549 1.30013,14.90699 0.82219,16.53646 -0.17698,0.60338 -0.20927,0.56853 -0.36778,-0.39688 z m 7.626,0.75846 c -1.96479,-0.28815 -3.57188,-0.68118 -3.57188,-0.87354 0,-0.11542 1.38844,-0.29536 3.0854,-0.39986 5.51467,-0.3396 8.60904,-1.48561 10.96159,-4.05968 1.69473,-1.85431 1.79536,-2.33017 0.86177,-4.07518 -1.54862,-2.89457 -4.56254,-5.22247 -7.82516,-6.04401 -1.16781,-0.29406 -1.27602,-0.27144 -2.39917,0.5013 -1.75816,1.20965 -3.42534,3.20436 -4.6572,5.57216 -1.10661,2.12703 -2.25873,3.72556 -2.68515,3.72556 -0.24984,0 1.28691,-4.44832 2.182,-6.31608 0.88308,-1.84271 3.40188,-4.33542 5.48902,-5.43218 2.37575,-1.24842 5.38344,-2.01047 7.92766,-2.0086 1.96299,0.001 4.19415,0.41432 3.88884,0.71962 -0.0843,0.0843 -1.30373,0.31257 -2.70975,0.50717 -3.0185,0.41776 -5.70138,1.12554 -5.50022,1.45102 0.0786,0.12712 0.34419,0.2323 0.59026,0.23372 0.80789,0.005 3.14526,1.24919 4.29215,2.28534 1.29877,1.17336 2.14837,2.43487 2.63222,3.90841 0.3401,1.03575 0.34089,1.03621 0.67582,0.39687 0.18442,-0.35204 0.65264,-1.83071 1.04046,-3.28591 1.10971,-4.16379 1.22685,-4.48015 1.50586,-4.06655 0.13683,0.20283 0.16889,1.35256 0.0728,2.61134 -0.56072,7.34611 -3.85094,12.33832 -9.22601,13.99851 -1.67632,0.51776 -5.18788,0.86227 -6.63131,0.65057 z m -58.56811,-13.94293 c -0.58624,-0.70637 -0.87794,-2.97775 -0.58555,-4.55944 0.79129,-4.28044 3.96067,-8.01946 7.16304,-8.45045 1.19062,-0.16023 1.19062,-0.16023 0.15249,0.71394 -2.85019,2.40006 -4.60615,4.83789 -5.44806,7.56369 -0.8361,2.70697 -0.68175,3.07056 0.52165,1.2288 2.20175,-3.36967 5.45039,-5.66153 8.03246,-5.66677 1.31158,-0.003 2.41509,0.38718 2.17869,0.76968 -0.0736,0.11911 -0.62365,0.29488 -1.22231,0.39061 -2.38278,0.38102 -4.34555,1.78682 -7.58198,5.43044 -2.52786,2.84591 -2.80472,3.06835 -3.21043,2.5795 z m 18.76396,-0.18599 c -6.24434,-0.52181 -9.02586,-0.88112 -11.32655,-1.46316 -1.99967,-0.50587 -3.57674,-1.20852 -3.31036,-1.4749 0.11712,-0.11712 2.23443,-0.0402 4.70513,0.17101 2.4707,0.21118 4.89204,0.3864 5.38076,0.38938 0.83584,0.005 0.87828,-0.0378 0.71507,-0.72218 -0.28955,-1.2142 -1.90667,-4.46434 -3.71253,-7.46156 -1.85938,-3.08604 -2.78591,-5.04429 -2.78591,-5.88808 0,-0.47306 0.0548,-0.49483 0.44438,-0.1765 1.72132,1.40659 6.93773,9.66143 6.9761,11.03949 0.007,0.23987 0.34879,-0.29099 0.76025,-1.17968 1.33027,-2.87315 3.91832,-5.15012 8.21599,-7.22843 4.12034,-1.99255 3.83991,-1.29899 -0.95426,2.36001 -3.82454,2.91896 -5.31421,4.57409 -6.02295,6.69191 -0.78036,2.33185 -0.61684,2.46012 1.22997,0.96481 3.57437,-2.89405 6.76714,-4.47978 9.01974,-4.47978 0.66897,0 0.72376,0.0539 0.42306,0.41621 -0.18998,0.22892 -0.80472,0.65053 -1.36608,0.93691 -0.56136,0.28639 -2.60032,1.56627 -4.53102,2.8442 l -3.51038,2.3235 2.52895,0.43729 c 3.01988,0.52219 4.99319,1.08371 5.70856,1.6244 0.4827,0.36485 0.38731,0.3946 -1.19523,0.37285 -0.94588,-0.013 -4.27259,-0.23697 -7.39269,-0.4977 z m -31.50106,-1.76395 c 0,-0.24752 0.7018,-1.13251 1.55955,-1.96665 2.06126,-2.00452 3.07397,-2.29913 5.99425,-1.74384 2.48411,0.47235 4.19638,1.12506 3.95901,1.50915 -0.0998,0.16144 -1.57127,0.27133 -3.65707,0.27311 -3.49011,0.003 -3.49011,0.003 -5.47449,1.18764 -2.2233,1.3273 -2.38125,1.37642 -2.38125,0.74059 z m -2.089,-11.16893 c -0.25593,-0.16206 0.10938,-0.3249 1.19063,-0.53074 10.4676,-1.99274 18.83608,-5.34293 25.27899,-10.12006 1.14438,-0.8485 2.1426,-1.54273 2.21828,-1.54273 0.39085,0 -0.80112,1.63718 -2.16743,2.97697 -5.19407,5.09328 -16.14774,9.46674 -23.67928,9.45439 -1.35959,-0.002 -2.63812,-0.10925 -2.84119,-0.23783 z m -3.46506,-4.17187 c 0.001,-0.11905 1.20268,-1.70473 2.66996,-3.52374 1.46728,-1.81902 3.38152,-4.37886 4.25386,-5.68855 4.58341,-6.8813 7.47428,-15.6921 8.82701,-26.90305 0.46612,-3.863007 0.7703,-5.510526 1.22942,-6.65901 0.29913,-0.748246 0.30959,-0.73686 1.43638,1.564602 1.86857,3.816498 4.15186,5.671418 6.98118,5.671418 4.29685,0 7.25748,-4.389075 7.18354,-10.649476 -0.015,-1.273307 0.025,-2.315104 0.0889,-2.315104 0.0639,0 0.61856,0.744141 1.23255,1.653646 1.83037,2.711338 2.60184,3.569629 5.44912,6.062417 1.49307,1.307178 2.71467,2.501951 2.71467,2.655051 0,0.455587 -1.52794,0.01991 -3.14325,-0.896268 -0.81783,-0.463854 -2.2721,-1.624594 -3.23172,-2.579421 l -1.74476,-1.73605 -0.27943,1.638498 c -1.06177,6.225977 -6.16447,9.668117 -11.11918,7.500687 -1.82881,-0.80001 -3.75119,-2.90629 -4.6435,-5.087712 -0.6832,-1.670223 -0.6832,-1.670223 -0.6961,1.316767 -0.0466,10.805925 -3.33664,21.966535 -8.66045,29.378665 -2.48072,3.45383 -8.55793,9.56548 -8.54817,8.59663 z m 24.43382,-15.18717 c -1.46611,-0.56383 -3.79851,-2.43259 -3.79851,-3.04344 0,-0.63982 1.17875,-0.42058 3.12703,0.58162 3.82141,1.96574 4.3417,3.87329 0.67148,2.46182 z m 7.71087,-3.53672 c -1.01865,-0.4971 -2.37005,-1.41785 -3.00311,-2.04611 -1.20391,-1.19476 -2.04553,-2.53184 -1.76821,-2.80916 0.39279,-0.39279 7.88723,4.57268 8.03139,5.32123 0.14087,0.73152 -1.19851,0.54008 -3.26007,-0.46596 z m 17.76638,-8.48708 c 0.0853,-0.22214 0.70659,-0.72815 1.38076,-1.12448 1.03693,-0.60957 1.52092,-0.71892 3.14161,-0.70975 1.05372,0.006 1.82762,-0.0692 1.7198,-0.16714 -0.10783,-0.0979 -1.23175,-0.90794 -2.49759,-1.8001 -1.26585,-0.89216 -2.36797,-1.7296 -2.44917,-1.86097 -0.24612,-0.39823 1.22179,-1.91627 2.33489,-2.41462 1.04566,-0.46816 1.04566,-0.46816 0.011,-0.75293 -0.56909,-0.15662 -1.54073,-0.40985 -2.15919,-0.56273 -1.97852,-0.48905 -1.19652,-1.58047 1.1324,-1.58047 1.42636,0 2.51561,0.555908 3.13121,1.59804 0.63253,1.07079 0.56119,1.23837 -0.82656,1.9416 -0.69261,0.35097 -1.53847,0.8642 -1.8797,1.1405 -0.6204,0.50237 -0.6204,0.50237 1.72232,2.58458 1.2885,1.14521 2.37841,2.16982 2.42203,2.2769 0.0436,0.10707 -0.54997,0.28123 -1.31909,0.38701 -0.76913,0.10579 -2.35263,0.47246 -3.5189,0.81484 -2.52808,0.74217 -2.54297,0.74362 -2.34577,0.22972 z M 203.2279,99.519436 c 0,-0.665715 2.59715,-2.805544 4.0773,-3.359335 1.60817,-0.601694 4.08068,-0.744595 4.93864,-0.285431 0.47923,0.256477 0.41189,0.402311 -0.98279,2.128487 -1.69374,2.096313 -2.36358,2.297803 -2.31443,0.696196 0.0166,-0.540848 -0.0849,-0.98336 -0.2256,-0.98336 -0.14067,0 -1.27206,0.47625 -2.5142,1.058333 -2.36975,1.110503 -2.97892,1.262874 -2.97892,0.74511 z"
           id="path337" /></g><g
         id="g452"
         transform="translate(46.482574,54.79859)"
         style="fill:#000000"><path
           style="fill:#000000;stroke-width:0.264583"
           d="m 182.60639,123.34259 c -0.0896,-0.0896 0.0718,-0.75861 0.3588,-1.48663 0.68075,-1.7271 0.381,-2.18549 -1.28023,-1.9578 -0.62998,0.0863 -1.39144,0.28867 -1.69214,0.4496 -0.53507,0.28636 -0.5292,0.3107 0.27525,1.14068 0.45209,0.46643 0.82198,0.9317 0.82198,1.03391 0,0.37076 -1.2107,0.17162 -2.04342,-0.33611 -2.3731,-1.44693 -0.38748,-4.23911 3.01531,-4.24014 2.61733,-7.9e-4 3.78929,1.93572 2.40155,3.96825 -0.65221,0.95525 -1.60066,1.68467 -1.8571,1.42824 z m 68.33366,-45.260454 c 0,-0.151283 0.61228,-1.572543 1.36064,-3.158356 1.46801,-3.110841 2.60871,-6.215914 2.60712,-7.096825 -0.003,-1.532804 -1.91076,-3.062512 -3.81985,-3.062512 -1.69046,0 -4.01523,1.448577 -4.82577,3.006963 -0.45689,0.878419 -0.62472,0.752267 -1.24575,-0.936373 -1.10071,-2.992896 -3.19208,-4.536367 -5.34779,-3.946759 -2.75711,0.754098 -4.44983,2.959706 -4.9934,6.506377 -0.15388,1.004078 -0.0938,1.125643 1.17214,2.371304 1.24737,1.227403 1.33433,1.39861 1.33433,2.627048 0,1.798968 -0.48777,3.071315 -1.17764,3.071897 -0.49634,4.24e-4 -0.54216,-0.160559 -0.54216,-1.904989 0,-1.905447 0,-1.905447 -1.5875,-3.19161 -0.87312,-0.70739 -2.41213,-1.788271 -3.42002,-2.401958 -2.27004,-1.382188 -2.56654,-1.919365 -0.91465,-1.657058 0.63782,0.101281 1.76954,0.462666 2.51493,0.803079 1.35526,0.618932 1.35526,0.618932 1.491,-1.072166 0.43658,-5.438845 5.82574,-8.927928 9.76419,-6.321587 0.9972,0.659914 2.16533,2.355982 2.46626,3.580867 0.16394,0.667327 0.16394,0.667327 1.3746,-0.460087 2.44187,-2.273979 5.63212,-2.456651 7.96907,-0.456306 1.27992,1.095567 1.76153,2.367923 1.55533,4.108986 -0.18091,1.527542 -1.56534,4.615673 -3.02859,6.755664 -1.12108,1.63957 -2.70649,3.299904 -2.70649,2.834401 z m -25.54018,-2.535923 c 1.30902,-5.794582 2.24142,-10.04709 2.36989,-10.80854 0.16074,-0.952812 0.16074,-0.952812 -2.42355,-1.133416 -3.0112,-0.210439 -5.31006,-0.527926 -8.80199,-1.215608 -1.38245,-0.272252 -3.43261,-0.577094 -4.55592,-0.677427 -2.43094,-0.21713 -2.30996,-0.366937 -2.99994,3.714679 -0.62599,3.703089 -1.9721,7.890449 -2.39923,7.463317 -0.16401,-0.164007 1.37869,-9.480564 1.82736,-11.035657 0.34338,-1.19016 0.34338,-1.19016 2.18503,-1.339615 2.94123,-0.238688 7.3339,0.200542 11.89582,1.189483 2.32834,0.50474 4.67982,0.988629 5.22552,1.075309 0.87507,0.138996 0.99219,0.24579 0.99219,0.904703 0,1.924393 -1.39688,8.311179 -2.41002,11.019032 -0.52916,1.414317 -1.16873,2.01049 -0.90516,0.84374 z m 11.25268,-9.065864 c 0,-0.386954 0.37396,-1.07341 0.89376,-1.64061 0.8117,-0.885718 1.02362,-0.976463 2.30796,-0.988302 1.65605,-0.01527 2.07035,0.566657 0.84296,1.184003 -0.40556,0.203988 -1.34503,0.762244 -2.08769,1.24057 -1.6213,1.044219 -1.95699,1.07927 -1.95699,0.204339 z"
           id="path456" /><path
           style="fill:#000000;stroke-width:0.264583"
           d="m 241.74024,174.50038 c 0.0167,-12.42285 -0.41949,-18.06465 -2.07697,-26.86477 -0.37588,-1.99565 -0.7371,-4.16424 -0.80272,-4.81909 -0.11657,-1.1634 -0.11003,-1.1755 0.28603,-0.52916 1.3131,2.14284 3.2587,10.05846 3.99951,16.27187 0.52392,4.39421 0.60747,14.47397 0.15462,18.65313 -0.3907,3.60557 -1.08904,7.40833 -1.36048,7.40833 -0.11747,0 -0.20747,-4.55414 -0.19999,-10.12031 z m -37.61912,8.50201 c -0.007,-0.23521 0.28367,-1.99846 0.64544,-3.91833 2.40914,-12.78503 2.96433,-24.09469 1.82302,-37.13639 -0.37734,-4.31179 1.10198,0.18581 1.92215,5.84394 0.55156,3.80509 0.61787,13.32544 0.12383,17.77908 -0.72888,6.57071 -2.42569,13.87322 -3.86611,16.63841 -0.3498,0.67153 -0.64155,1.02851 -0.64833,0.79329 z m 44.96685,-1.45055 c -1.79201,-0.33052 -1.98589,-0.40724 -1.58377,-0.62663 0.21623,-0.11797 1.16705,-0.29625 2.11293,-0.39618 6.19878,-0.6549 10.1672,-2.69083 12.28334,-6.30174 0.71526,-1.22051 0.71526,-1.22051 -0.18314,-2.62493 -1.82939,-2.8598 -4.75874,-4.86392 -8.05297,-5.50945 -1.64132,-0.32163 -1.64132,-0.32163 -2.74253,0.55054 -1.73635,1.37522 -2.98615,3.16029 -4.18467,5.97694 -1.09733,2.57884 -2.00575,4.02777 -2.32506,3.70846 -0.2703,-0.2703 1.20371,-5.47224 2.04725,-7.22495 1.86472,-3.87453 6.77827,-6.91818 12.32208,-7.63277 1.47458,-0.19007 3.80028,0.0588 3.80028,0.40668 0,0.11868 -0.6846,0.34846 -1.52135,0.51063 -2.24064,0.43426 -5.67684,1.51228 -6.28385,1.97142 -0.508,0.38424 -0.49517,0.40059 0.3208,0.40867 0.46749,0.005 1.53905,0.26588 2.38125,0.58057 1.82431,0.68165 4.55524,3.23694 5.1156,4.7866 0.19714,0.54518 0.43945,0.99124 0.53846,0.99124 0.23752,0 0.64391,-1.67336 1.15662,-4.7625 0.61234,-3.68942 0.66525,-3.87973 0.95244,-3.42579 0.38726,0.61215 0.28781,5.85946 -0.15057,7.94342 -1.08991,5.18126 -4.26341,8.71165 -9.12398,10.15004 -1.46022,0.43212 -5.64143,0.74802 -6.87916,0.51973 z m -6.33269,-39.69408 c -0.79084,-0.31891 -2.36814,-0.7992 -3.50511,-1.0673 -2.25951,-0.53282 -2.54927,-0.96927 -0.73093,-1.10094 1.68691,-0.12216 2.68517,0.1286 3.98368,1.00069 0.63185,0.42436 1.18915,0.73124 1.23843,0.68196 0.0493,-0.0493 -0.27721,-0.81624 -0.72552,-1.70434 -0.44832,-0.88811 -1.04504,-2.19805 -1.32605,-2.91097 -0.51092,-1.29623 -0.51092,-1.29623 0.33478,-1.64997 0.46513,-0.19456 1.41088,-0.35519 2.10165,-0.35695 0.69077,-0.002 1.25632,-0.0593 1.25677,-0.12783 5.3e-4,-0.0685 -0.66836,-0.80085 -1.48625,-1.62736 -0.88164,-0.89094 -1.40998,-1.62747 -1.29772,-1.8091 0.24284,-0.39293 1.58442,-0.12017 2.68066,0.54502 0.82192,0.49873 0.82192,0.49873 1.37459,-1.4176 1.72509,-5.98154 2.22696,-8.08318 2.70059,-11.30905 0.69097,-4.70616 0.67498,-4.91624 -0.24686,-3.24425 -1.15434,2.09366 -2.42784,3.70837 -4.56645,5.78993 -1.80271,1.75462 -3.77409,3.27516 -4.24624,3.27516 -0.49674,0 -0.0482,-0.67694 2.22357,-3.35597 4.05613,-4.7832 6.3027,-8.60397 7.50156,-12.75797 0.31906,-1.10551 0.68626,-1.98541 0.81601,-1.95534 0.32518,0.0754 0.55401,1.54663 0.77338,4.9724 0.21073,3.29093 -0.15702,7.56939 -0.93615,10.89127 -0.63339,2.70051 -2.65711,7.77903 -3.58416,8.99446 -0.61715,0.80913 -0.66246,1.00263 -0.38923,1.66227 0.17007,0.4106 0.27086,1.14762 0.22398,1.63782 -0.0853,0.89127 -0.0853,0.89127 -2.26807,0.96811 -1.54135,0.0543 -2.18281,0.17506 -2.18281,0.41104 0,0.1838 0.41779,1.57477 0.92842,3.09103 0.51062,1.51627 0.89758,2.82362 0.85989,2.90523 -0.0377,0.0816 -0.71557,-0.11255 -1.50641,-0.43145 z m -38.33613,-3.93824 c -6.73758,-1.74094 -14.60308,-6.04811 -19.12687,-10.47394 -1.56925,-1.53526 -2.51543,-2.80821 -2.26987,-3.05377 0.0836,-0.0836 0.84384,0.37237 1.68948,1.01319 6.82862,5.17473 14.96547,9.48169 22.83649,12.08773 2.58612,0.85624 2.7825,1.08388 0.92605,1.0734 -0.87313,-0.005 -2.69801,-0.2959 -4.05528,-0.64661 z m 17.35159,-6.41393 c -0.78774,-0.88584 -2.36844,-4.04607 -2.21881,-4.43598 0.19296,-0.50286 3.87994,-2.91686 4.81248,-3.15091 1.72261,-0.43235 0.70323,0.84821 -1.8759,2.35655 -0.94103,0.55033 -1.71096,1.02752 -1.71096,1.06041 0,0.0329 0.41672,0.85929 0.92604,1.83644 1.19411,2.29092 1.23306,3.6446 0.0671,2.33349 z m 19.64431,-1.48035 c 0,-0.34125 0.23812,-0.83595 0.52917,-1.09934 0.72337,-0.65465 0.67852,-0.7676 -0.46302,-1.16609 -1.38478,-0.4834 -2.18282,-1.02663 -2.18282,-1.48584 0,-0.47824 1.98031,-0.53589 3.53922,-0.10304 1.22766,0.34088 3.22832,2.10704 3.01538,2.66195 -0.13984,0.36442 -3.42664,1.81281 -4.11375,1.81281 -0.1783,0 -0.32418,-0.2792 -0.32418,-0.62045 z m -30.2951,-3.34879 c -0.2401,-0.3885 1.03632,-0.79326 2.50154,-0.79326 1.27615,0 1.27615,0 0.65051,-1.52135 -0.65083,-1.58262 -0.84618,-3.87513 -0.35601,-4.17807 0.1552,-0.0959 0.34047,-0.11612 0.41171,-0.0449 0.17114,0.17114 1.64256,6.11519 1.54233,6.23046 -0.42283,0.48624 -4.47735,0.74837 -4.75008,0.3071 z m 26.71395,-2.75902 c -0.69969,-1.6746 -1.2212,-4.71553 -1.25212,-7.30112 l -0.0301,-2.52001 -2.00006,2.01867 c -2.64282,2.66739 -4.78008,3.72974 -7.83355,3.89375 -1.78329,0.0958 -2.35262,0.0183 -3.50352,-0.47679 -3.31729,-1.42706 -4.90776,-5.11763 -3.95631,-9.1803 0.3843,-1.64094 0.3843,-1.64094 -1.76015,0.35614 -6.96602,6.48726 -17.77691,11.20667 -25.67144,11.20667 -2.06136,0 -5.05768,-0.56659 -5.53946,-1.04748 -0.12578,-0.12555 1.17089,-0.22775 2.91042,-0.22938 5.42348,-0.005 10.24566,-1.28635 16.66426,-4.42771 5.71416,-2.7966 11.49469,-6.93407 15.15608,-10.8481 0.90475,-0.96718 1.70607,-1.69743 1.78071,-1.62278 0.0746,0.0746 -0.31615,1.30739 -0.86844,2.73944 -0.91809,2.38055 -1.00485,2.8305 -1.01225,5.24955 -0.007,2.17978 0.0893,2.83226 0.54464,3.70417 1.23438,2.36351 3.91197,3.25956 7.13403,2.38739 2.89869,-0.78464 5.14696,-2.48242 8.76744,-6.62072 0.89118,-1.01865 1.67828,-1.79256 1.7491,-1.7198 0.0708,0.0728 -0.0493,0.96573 -0.26694,1.98438 -0.31616,1.47977 -0.3612,2.97764 -0.22404,7.45126 0.17881,5.83247 0.009,6.9107 -0.78826,5.00277 z m -42.67997,-5.84747 c -1.7559,-2.23226 -2.33488,-6.70967 -1.39134,-10.75957 0.61795,-2.65239 1.7738,-5.10741 2.40462,-5.10741 0.26808,0 0.89778,1.45303 2.0066,4.63021 1.97621,5.66259 2.0193,5.76775 3.16163,7.71685 1.56121,2.66381 1.08696,2.95646 -1.14961,0.70941 -1.80374,-1.81221 -3.96369,-6.90306 -4.0313,-9.5015 -0.0364,-1.39889 -0.49976,0.54034 -0.82239,3.44181 -0.2792,2.51096 -0.25954,3.2846 0.15486,6.09227 0.26107,1.76884 0.41635,3.27439 0.34507,3.34567 -0.0713,0.0713 -0.37645,-0.1842 -0.67814,-0.56774 z m 56.8739,-12.98707 c -4.30407,-0.6258 -12.4037,-1.40025 -21.7871,-2.08316 -13.87996,-1.01016 -31.0211,-2.59353 -37.47881,-3.462013 -1.16043,-0.156062 -1.16043,-0.156062 -1.01565,-2.317274 0.0796,-1.188665 0.51439,-4.182115 0.96614,-6.652112 0.82255,-4.497302 1.3039,-9.451136 1.3761,-14.162222 0.0385,-2.513541 0.0385,-2.513541 0.25523,-0.79375 0.6665,5.289533 0.11348,13.100875 -1.49308,21.089366 -0.21094,1.04889 -0.38353,1.954543 -0.38353,2.012558 0,0.05802 1.10133,0.187915 2.4474,0.288666 1.34607,0.10075 3.93568,0.294166 5.75469,0.42981 1.81901,0.135647 7.8912,0.490495 13.49375,0.788551 11.26762,0.59945 16.5316,1.01332 25.4,1.99702 5.40465,0.5995 14.22452,1.83196 14.99494,2.09535 0.43423,0.14846 2.25489,-7.494337 4.42668,-18.582432 l 1.12688,-5.753264 -3.72581,-0.05713 c -15.5251,-0.238051 -26.04329,-1.326623 -48.30235,-4.999012 -16.39241,-2.704488 -14.09729,-2.666515 8.50129,0.140655 23.34172,2.899482 28.89356,3.438736 39.84555,3.870233 2.51024,0.0989 4.56406,0.237677 4.56406,0.308392 0,1.165473 -3.3823,17.981709 -5.16387,25.673838 -0.15876,0.6855 -0.22328,0.68835 -3.80251,0.16793 z m -24.08691,-9.06514 c -1.06718,-0.298222 -0.95601,-0.79716 0.21949,-0.985131 1.91344,-0.305974 2.02439,-0.54977 1.06683,-2.344205 -0.4596,-0.861272 -1.00321,-2.040888 -1.20801,-2.621365 -0.75639,-2.143845 0.47946,-3.606773 3.04693,-3.606773 2.25068,0 2.48058,0.582255 0.46163,1.169177 -2.11967,0.616207 -2.15871,0.753288 -0.95138,3.341235 1.4539,3.11649 1.37468,4.400259 -0.30776,4.986758 -0.91833,0.320133 -1.35725,0.331505 -2.32773,0.0603 z m 5.7295,-0.05678 c -0.68437,-0.398423 -0.35986,-0.684318 1.00991,-0.889728 0.66511,-0.09974 1.27303,-0.347448 1.35094,-0.550465 0.0779,-0.203015 -0.29832,-1.093372 -0.83605,-1.97857 -1.30039,-2.14068 -1.4779,-3.435339 -0.59241,-4.320831 0.76429,-0.764286 2.6826,-1.153271 3.81914,-0.774425 1.09226,0.364088 0.84624,0.674047 -0.95638,1.204905 -0.88372,0.260252 -1.60677,0.596876 -1.60677,0.748051 0,0.151175 0.47625,1.178814 1.05833,2.283645 1.22896,2.332635 1.3012,3.024584 0.4089,3.916876 -0.51231,0.512312 -0.91732,0.647734 -1.91823,0.641387 -0.69783,-0.0044 -1.47965,-0.130805 -1.73738,-0.280845 z m -13.09359,-1.120076 c -1.36843,-0.759984 -2.03628,-2.555082 -1.63104,-4.384064 0.91766,-4.1417 5.12847,-5.773663 6.48992,-2.515264 0.47965,1.147966 0.46599,2.108319 -0.0516,3.627321 -0.48292,1.417272 -1.68707,2.564307 -2.69201,2.564307 -0.69065,0 -0.69065,0 0.003,-0.727604 0.38177,-0.400182 0.82076,-1.062776 0.97554,-1.472433 0.39656,-1.049583 0.34961,-2.897232 -0.0889,-3.496879 -0.33615,-0.459713 -0.43572,-0.471365 -1.08026,-0.126417 -0.81266,0.434924 -1.92155,2.199531 -1.99675,3.1775 -0.10299,1.33918 0.0221,1.82863 0.66179,2.588813 0.87118,1.035343 0.57892,1.414018 -0.59022,0.76472 z m -8.13304,-0.478764 c -0.0961,-0.383058 0.0819,-2.168853 0.39572,-3.968432 0.31378,-1.79958 0.70093,-4.071663 0.86032,-5.049073 0.28981,-1.777113 0.28981,-1.777113 1.89782,-1.612768 1.89778,0.193958 3.32853,0.637863 3.25091,1.008629 -0.0596,0.284565 -0.30012,0.288076 -2.63507,0.03846 -1.52136,-0.16264 -1.52136,-0.16264 -1.52136,1.25485 0,1.417489 0,1.417489 1.34268,1.546502 0.76628,0.07363 1.53296,0.322186 1.78593,0.579001 0.41488,0.421169 0.40938,0.475457 -0.0859,0.84768 -0.35481,0.266663 -0.98127,0.370303 -1.90134,0.314561 -1.37217,-0.08314 -1.37217,-0.08314 -1.92899,2.328402 -0.30624,1.326346 -0.72086,2.63589 -0.92136,2.910096 -0.34707,0.474639 -0.37295,0.465143 -0.53936,-0.197908 z M 261.2588,78.685326 c 0,-0.05612 1.32032,-0.919321 2.93405,-1.918229 3.99699,-2.474167 7.12011,-4.992869 7.12011,-5.742154 0,-0.319777 -0.27976,-0.996004 -0.62169,-1.502727 -0.34193,-0.506723 -0.85631,-1.554375 -1.14307,-2.328115 -0.28676,-0.77374 -0.61529,-1.409739 -0.73006,-1.413331 -0.11477,-0.0036 -1.0589,1.00199 -2.09807,2.234627 -1.03917,1.232638 -2.41794,2.681719 -3.06394,3.220181 -1.15443,0.96226 -3.43822,2.260115 -3.97703,2.260115 -0.15091,0 1.43709,-1.66766 3.52889,-3.705911 3.68556,-3.591216 5.62367,-5.306724 5.95854,-5.274167 0.0891,0.0087 0.78942,0.801358 1.55619,1.761539 1.00762,1.261794 1.5509,2.261933 1.95962,3.607574 0.56551,1.861791 0.56551,1.861791 -0.82839,3.143479 -0.76664,0.704929 -2.11012,1.768073 -2.98552,2.362544 -2.71605,1.844436 -7.60963,3.963102 -7.60963,3.294575 z m -68.65937,-7.741075 c -1.16549,-1.63171 -3.83132,-4.117276 -8.04695,-7.502798 -2.75528,-2.212734 -2.75528,-2.212734 -1.85303,-2.965966 0.49624,-0.414278 1.82063,-1.206353 2.94309,-1.760167 2.04085,-1.006935 2.04085,-1.006935 3.37996,0.64355 2.12103,2.614217 6.42001,5.870073 12.3832,9.37848 2.61482,1.538415 2.7818,1.912863 0.52147,1.169345 -5.46505,-1.797681 -10.41625,-5.255693 -13.05529,-9.118055 -1.26728,-1.854739 -1.26728,-1.854739 -2.21766,-0.926723 -0.71209,0.695341 -1.26342,0.970923 -2.19894,1.099151 -0.68671,0.09412 -1.24856,0.259344 -1.24856,0.367156 0,0.107812 1.1408,0.876799 2.53511,1.70886 4.0391,2.410343 7.25359,5.835812 8.0358,8.56322 0.3462,1.207109 0.0248,1.028123 -1.1782,-0.656053 z"
           id="path454" /></g><g
         id="g516"
         transform="translate(-299.26363,-83.689689)"
         style="fill:#000000"><path
           style="fill:#000000;stroke-width:0.264583"
           d="m 211.14514,148.79044 c -0.0786,-0.0786 -0.0338,-0.52089 0.0996,-0.98288 0.25039,-0.86729 0.1297,-1.10941 -1.96617,-3.94475 -0.35743,-0.48353 -0.54126,-1.15777 -0.55424,-2.03277 -0.0164,-1.10705 0.10319,-1.43825 0.77434,-2.14438 0.86299,-0.90797 1.98433,-1.58162 2.63269,-1.58162 0.61984,0 0.50401,0.3241 -0.56012,1.5673 -1.24927,1.4595 -1.24533,2.23157 0.0211,4.13901 1.14363,1.72243 1.44671,3.021 0.93029,3.98593 -0.37164,0.69441 -1.12999,1.2417 -1.37753,0.99416 z m -3.79219,-2.59628 c -3.70736,-2.49668 -3.868,-4.9986 -0.51519,-8.02376 1.94758,-1.75724 2.37331,-2.52271 2.53126,-4.55117 0.13493,-1.7329 0.13493,-1.7329 0.72661,-0.80686 0.74841,1.17133 0.7735,2.84358 0.0635,4.23523 -0.29157,0.57152 -1.22781,1.78717 -2.08054,2.70143 -0.85272,0.91427 -1.63232,1.92424 -1.73245,2.24439 -0.22632,0.72362 0.31434,1.80194 1.43271,2.85749 1.05614,0.99682 1.75769,2.24896 1.26003,2.24896 -0.18758,0 -0.94626,-0.40757 -1.68596,-0.90571 z m -16.22362,-11.69768 c -0.72645,-0.92353 -0.69331,-1.35195 0.21537,-2.78481 0.79056,-1.24657 2.52124,-2.33888 3.70577,-2.33888 0.32906,0 0.94631,0.34802 1.37168,0.7734 0.85291,0.8529 1.0432,2.3137 0.46634,3.57977 -0.52763,1.15803 -0.77789,0.88579 -1.1353,-1.23504 -0.0911,-0.5406 -0.27763,-1.05212 -0.41451,-1.13671 -0.52155,-0.32234 -2.90563,1.4533 -2.90563,2.16408 0,0.18828 0.32742,0.4152 0.7276,0.50426 1.80581,0.40187 1.80841,0.40354 1.25566,0.80772 -0.2733,0.19984 -1.00129,0.36335 -1.61776,0.36335 -0.89573,0 -1.23098,-0.14001 -1.66922,-0.69714 z"
           id="path520" /><path
           style="fill:#000000;stroke-width:0.264583"
           d="m 230.00388,170.52047 c 0,-0.07 -0.29839,-2.32825 -0.66308,-5.01826 -1.15818,-8.5428 -2.30112,-13.95005 -5.00593,-23.68303 -1.21669,-4.37814 -1.41851,-5.46264 -0.96432,-5.18193 0.50834,0.31417 2.23771,4.39196 3.59557,8.47824 2.1583,6.49509 3.31487,12.29366 3.72378,18.66949 0.19409,3.02619 -0.0541,6.86281 -0.44401,6.86281 -0.13311,0 -0.24201,-0.0573 -0.24201,-0.12732 z m 34.05471,-1.1956 c -0.0851,-0.21828 -0.34626,-2.18281 -0.58041,-4.36563 -1.78939,-16.68158 -4.96236,-28.89143 -10.23125,-39.37073 -0.57832,-1.15022 -0.99474,-2.14806 -0.92539,-2.21742 0.1985,-0.19849 2.19775,2.44655 3.38243,4.475 5.05133,8.64908 8.44753,22.07092 8.85534,34.99649 0.1307,4.14236 -0.12458,7.44725 -0.50072,6.48229 z m 4.70674,-6.53867 c -1.14048,-0.27432 -0.91594,-0.56758 0.5652,-0.73818 5.02052,-0.57828 8.44011,-1.69793 10.6059,-3.47263 1.29472,-1.06093 2.98411,-3.40938 2.98411,-4.14828 0,-0.5952 -1.31005,-2.53424 -2.54975,-3.77394 -1.67235,-1.67235 -3.89693,-2.78352 -6.52661,-3.26002 -1.24247,-0.22514 -1.30292,-0.20446 -2.67874,0.91628 -1.73381,1.41235 -2.7537,2.92257 -3.99325,5.91307 -0.93632,2.25896 -2.04468,4.00714 -2.34943,3.70569 -0.2228,-0.22037 1.5823,-6.39787 2.25452,-7.71553 0.31373,-0.61496 1.29813,-1.8416 2.18757,-2.72587 2.77751,-2.76139 6.27582,-4.3145 10.25623,-4.55333 2.32642,-0.13959 3.93297,0.0591 3.50388,0.43343 -0.13019,0.11356 -1.24008,0.41497 -2.46641,0.6698 -1.22634,0.25483 -3.06396,0.77256 -4.08362,1.15051 -1.85391,0.68718 -1.85391,0.68718 -0.41613,0.97676 3.0748,0.6193 5.80143,2.64737 6.98038,5.192 0.34109,0.7362 0.68523,1.23325 0.76477,1.10456 0.16827,-0.27226 1.11515,-4.91014 1.3787,-6.75297 0.0991,-0.69301 0.27951,-1.3214 0.40089,-1.39641 0.39598,-0.24473 0.58659,1.74129 0.44234,4.60881 -0.23665,4.70429 -1.6394,8.11338 -4.40155,10.69705 -1.58959,1.48687 -2.95155,2.18954 -5.5144,2.845 -1.89729,0.48525 -5.93422,0.66344 -7.3446,0.3242 z m -59.26666,-1.30753 c -0.29104,-0.0615 -0.78198,-0.16528 -1.09099,-0.23053 -0.83047,-0.17535 -1.09517,-1.11744 -1.68369,-5.99259 -0.76375,-6.32675 -1.0303,-5.61391 2.24907,-6.0147 2.73965,-0.33484 4.66779,-0.16595 5.94957,0.52111 0.35277,0.1891 0.35277,0.22678 0,0.33913 -0.98453,0.31355 -6.15096,0.7601 -7.07835,0.6118 -1.03011,-0.16472 -1.03011,-0.16472 -0.4062,2.5429 0.45977,1.99524 0.60408,3.31593 0.5485,5.01971 -0.0721,2.20963 -0.052,2.30436 0.45376,2.13756 0.29104,-0.096 1.51143,-0.16644 2.71198,-0.15655 2.18281,0.018 2.18281,0.018 2.18281,-0.9917 0,-1.11624 1.15652,-7.19493 1.58162,-8.31304 0.33401,-0.8785 0.79963,-0.64731 0.79963,0.39705 0,0.75346 0.0399,0.77778 1.25677,0.76709 1.25677,-0.011 1.25677,-0.011 3.60188,-3.37343 1.28981,-1.84932 2.56798,-3.74935 2.84038,-4.2223 0.71154,-1.23538 1.12917,-1.10949 0.97112,0.29276 -0.19123,1.69659 -1.21304,3.71363 -3.20133,6.31941 -2.41063,3.15928 -2.35688,3.41779 0.42377,2.03817 0.89627,-0.44469 2.13002,-1.21859 2.74167,-1.71979 1.31157,-1.07474 1.42022,-1.09893 1.41891,-0.31596 -0.003,1.51321 -2.10434,3.50479 -4.5594,4.32023 -0.74095,0.2461 -1.60736,0.74993 -1.92536,1.11962 -0.46804,0.54414 -0.87603,0.69371 -2.14197,0.78528 -1.5638,0.11312 -1.5638,0.11312 -2.0356,1.99553 -0.2595,1.03532 -0.61554,1.97376 -0.79122,2.08541 -0.32897,0.20908 -3.87578,0.23693 -4.81733,0.0378 z m 6.90197,-5.58546 c 0.15807,-0.10691 0.42973,-0.60994 0.60371,-1.11784 0.27375,-0.79919 0.25497,-0.9683 -0.13952,-1.25677 -0.89667,-0.65566 -1.14845,-0.4097 -1.14845,1.12189 0,1.43117 0.11343,1.63883 0.68426,1.25272 z m 23.27114,3.76734 c -1.03753,-1.03753 -1.67737,-2.1891 -2.42174,-4.3586 -0.90946,-2.65069 -0.56187,-12.96458 0.43693,-12.96458 0.3052,0 0.47822,1.49295 0.78191,6.74687 0.2726,4.71612 0.71212,7.17108 1.57711,8.80902 0.51783,0.98057 0.51783,0.98057 0.52953,-0.10925 0.0182,-1.69433 0.72184,-5.32964 1.43814,-7.42985 1.22367,-3.58783 4.20898,-8.53726 4.80057,-7.959 0.10696,0.10455 -0.52506,2.06908 -1.40448,4.36563 -1.75774,4.59021 -2.38933,6.61638 -3.23972,10.39325 -0.77181,3.42782 -0.7759,3.43958 -1.19495,3.43958 -0.20363,0 -0.79011,-0.41988 -1.3033,-0.93307 z M 209.89554,137.7416 c 0,-0.0818 0.20065,-0.56953 0.44588,-1.08379 0.43969,-0.92203 0.4687,-0.93502 2.08864,-0.93502 2.52774,0 6.73642,-0.47121 10.91185,-1.22171 2.08399,-0.37457 3.85359,-0.61653 3.93244,-0.53768 0.25716,0.25716 -1.51268,1.16304 -3.65658,1.87161 -1.15425,0.38148 -3.43403,0.91728 -5.06616,1.19065 -3.07547,0.51513 -8.65607,0.97669 -8.65607,0.71594 z m -6.81702,-0.56293 c -2.70327,-0.49002 -5.48523,-1.3735 -5.90048,-1.87385 -0.31643,-0.38127 -0.23344,-0.4077 0.82503,-0.26275 3.16748,0.43378 6.1685,0.67658 8.38675,0.67855 1.34606,0.001 2.44739,0.0731 2.44739,0.15976 0,0.0867 -0.24623,0.5034 -0.54718,0.92604 -0.48863,0.68622 -0.6939,0.76589 -1.91823,0.74457 -0.75408,-0.0131 -2.23605,-0.18068 -3.29328,-0.37232 z m -3.23714,-7.81005 c 5.14612,-2.86659 9.41346,-7.11165 13.56039,-13.48958 3.2186,-4.95018 5.94829,-11.05914 7.09349,-15.875 0.32874,-1.38245 0.68268,-2.611665 0.78652,-2.731592 0.10385,-0.119927 0.32948,0.743919 0.50139,1.919657 0.57566,3.936955 1.63815,6.609695 3.23615,8.140715 2.47499,2.37125 5.55267,2.14577 8.30702,-0.60859 2.21385,-2.21384 3.28564,-4.79669 4.43555,-10.688942 0.18459,-0.945885 0.44182,-1.697523 0.57161,-1.670307 0.12979,0.02722 0.49091,0.801123 0.80248,1.719792 0.73906,2.179111 1.12507,2.904086 3.56599,6.697387 2.48595,3.86328 2.70485,4.27199 2.59367,4.84251 -0.19987,1.02575 -4.29926,-3.54384 -6.12982,-6.83291 -0.82786,-1.487475 -0.9542,-1.613998 -0.95683,-0.958205 -0.01,2.465125 -1.77074,6.431805 -3.73535,8.414615 -1.6141,1.62904 -3.14378,2.37865 -5.18898,2.54282 -3.59328,0.28844 -6.32436,-1.81189 -7.71889,-5.9362 -0.28704,-0.8489 -0.57391,-1.36487 -0.63749,-1.14659 -2.43295,8.35279 -6.40548,15.30082 -11.76188,20.57175 -3.25905,3.20704 -7.4508,5.73542 -10.01366,6.04004 -1.29574,0.154 -1.29574,0.154 0.68864,-0.95137 z m 24.14323,-1.31585 c -0.67545,-0.41183 -0.8599,-0.70201 -0.8599,-1.35279 0,-0.73846 0.0647,-0.80807 0.59531,-0.64061 1.44143,0.45493 2.08054,0.45785 2.57345,0.0118 0.58341,-0.52798 1.06457,-0.33623 1.06457,0.42424 0,0.86682 -0.46463,1.48023 -1.35681,1.79124 -1.07311,0.37409 -1.00694,0.38176 -2.01662,-0.23385 z m 9.66065,0.11211 c -0.76551,-0.41536 -1.23481,-1.56908 -0.81076,-1.99314 0.15946,-0.15945 0.58439,-0.11153 1.15803,0.13062 0.83329,0.35174 0.97744,0.33857 1.79295,-0.16384 0.73606,-0.45345 0.92652,-0.48361 1.12043,-0.17738 0.39395,0.62215 0.27378,1.03904 -0.53168,1.8445 -0.85286,0.85286 -1.63055,0.95524 -2.72897,0.35924 z m -8.65759,-3.12912 c -0.32626,-0.85813 -0.34732,-6.15208 -0.031,-7.78894 0.50267,-2.60106 1.33129,-1.71221 1.53915,1.65102 0.15187,2.45733 -0.30799,5.93247 -0.85828,6.48587 -0.3235,0.32534 -0.41189,0.27801 -0.64988,-0.34795 z m 9.53886,0.14991 c -0.73548,-1.37425 -0.5556,-7.55575 0.26446,-9.08804 0.30647,-0.57264 0.31132,-0.5713 0.71759,0.19775 0.73283,1.38723 0.49806,7.86771 -0.32584,8.99446 -0.32837,0.44906 -0.36308,0.44355 -0.65621,-0.10417 z m 17.43776,-3.70937 c 0,-0.32071 0.78536,-0.96423 1.8115,-1.48432 0.65639,-0.3327 1.39233,-0.42651 2.84488,-0.36264 1.07769,0.0474 1.95916,0.0618 1.95882,0.0319 -3.4e-4,-0.0298 -1.19124,-0.89839 -2.64645,-1.93016 -1.45521,-1.03177 -2.64583,-1.9805 -2.64583,-2.10829 0,-0.46558 1.41125,-1.89314 2.34515,-2.37226 0.95819,-0.49158 0.95819,-0.49158 -0.23046,-0.78681 -3.32651,-0.82623 -3.57452,-0.96122 -2.84229,-1.54703 1.15234,-0.92193 3.52199,-0.66927 4.69148,0.50022 1.22538,1.22539 1.05898,1.79241 -0.84358,2.87459 -0.89544,0.50932 -1.67168,1.06165 -1.72498,1.2274 -0.0533,0.16575 0.99666,1.23666 2.33327,2.3798 2.409,2.0603 2.42353,2.07999 1.66591,2.25724 -0.42036,0.0983 -2.04249,0.48595 -3.60473,0.86135 -3.22435,0.77479 -3.11269,0.75833 -3.11269,0.45897 z m -1.50679,-10.79565 c -0.092,-0.23974 -0.0349,-0.7865 0.12682,-1.21501 0.29408,-0.77911 0.29408,-0.77911 -1.26084,-0.59864 -1.59203,0.18477 -2.65085,0.0211 -2.65085,-0.40967 0,-0.42482 2.6416,-1.59881 3.92322,-1.74357 1.26636,-0.14304 3.23859,0.34057 3.39962,0.83361 0.12905,0.39514 -2.51885,3.56917 -2.97753,3.56917 -0.21625,0 -0.46844,-0.19615 -0.56044,-0.43589 z"
           id="path518" /></g></g><use
       x="0"
       y="0"
       inkscape:tiled-clone-of="#g1005"
       xlink:href="#g1005"
       id="use1007" /><use
       x="0"
       y="0"
       inkscape:tiled-clone-of="#g1005"
       xlink:href="#g1005"
       transform="translate(112.64551,349.97352)"
       id="use1009" /><use
       x="0"
       y="0"
       inkscape:tiled-clone-of="#g1005"
       xlink:href="#g1005"
       transform="translate(225.29102,699.94704)"
       id="use1011" /><use
       x="0"
       y="0"
       inkscape:tiled-clone-of="#g1005"
       xlink:href="#g1005"
       transform="translate(337.93652,1049.9206)"
       id="use1013" /><use
       x="0"
       y="0"
       inkscape:tiled-clone-of="#g1005"
       xlink:href="#g1005"
       transform="translate(450.58203,1399.8941)"
       id="use1015" /><use
       x="0"
       y="0"
       inkscape:tiled-clone-of="#g1005"
       xlink:href="#g1005"
       transform="translate(450.58203)"
       id="use1017" /><use
       x="0"
       y="0"
       inkscape:tiled-clone-of="#g1005"
       xlink:href="#g1005"
       transform="translate(563.22754,349.97352)"
       id="use1019" /><use
       x="0"
       y="0"
       inkscape:tiled-clone-of="#g1005"
       xlink:href="#g1005"
       transform="translate(675.87305,699.94704)"
       id="use1021" /><use
       x="0"
       y="0"
       inkscape:tiled-clone-of="#g1005"
       xlink:href="#g1005"
       transform="translate(788.51859,1049.9206)"
       id="use1023" /><use
       x="0"
       y="0"
       inkscape:tiled-clone-of="#g1005"
       xlink:href="#g1005"
       transform="translate(901.16409,1399.8941)"
       id="use1025" /><use
       x="0"
       y="0"
       inkscape:tiled-clone-of="#g1005"
       xlink:href="#g1005"
       transform="translate(901.16409)"
       id="use1027" /><use
       x="0"
       y="0"
       inkscape:tiled-clone-of="#g1005"
       xlink:href="#g1005"
       transform="translate(1013.8096,349.97352)"
       id="use1029" /><use
       x="0"
       y="0"
       inkscape:tiled-clone-of="#g1005"
       xlink:href="#g1005"
       transform="translate(1126.4551,699.94704)"
       id="use1031" /><use
       x="0"
       y="0"
       inkscape:tiled-clone-of="#g1005"
       xlink:href="#g1005"
       transform="translate(1239.1006,1049.9206)"
       id="use1033" /><use
       x="0"
       y="0"
       inkscape:tiled-clone-of="#g1005"
       xlink:href="#g1005"
       transform="translate(1351.7461,1399.8941)"
       id="use1035" /><use
       x="0"
       y="0"
       inkscape:tiled-clone-of="#g1005"
       xlink:href="#g1005"
       transform="translate(1351.7461)"
       id="use1037" /><use
       x="0"
       y="0"
       inkscape:tiled-clone-of="#g1005"
       xlink:href="#g1005"
       transform="translate(1464.3916,349.97352)"
       id="use1039" /><use
       x="0"
       y="0"
       inkscape:tiled-clone-of="#g1005"
       xlink:href="#g1005"
       transform="translate(1577.0371,699.94704)"
       id="use1041" /><use
       x="0"
       y="0"
       inkscape:tiled-clone-of="#g1005"
       xlink:href="#g1005"
       transform="translate(1689.6826,1049.9206)"
       id="use1043" /><use
       x="0"
       y="0"
       inkscape:tiled-clone-of="#g1005"
       xlink:href="#g1005"
       transform="translate(1802.3281,1399.8941)"
       id="use1045" /><use
       x="0"
       y="0"
       inkscape:tiled-clone-of="#g1005"
       xlink:href="#g1005"
       transform="translate(1802.3281)"
       id="use1047" /><use
       x="0"
       y="0"
       inkscape:tiled-clone-of="#g1005"
       xlink:href="#g1005"
       transform="translate(1914.9736,349.97352)"
       id="use1049" /><use
       x="0"
       y="0"
       inkscape:tiled-clone-of="#g1005"
       xlink:href="#g1005"
       transform="translate(2027.6191,699.94704)"
       id="use1051" /><use
       x="0"
       y="0"
       inkscape:tiled-clone-of="#g1005"
       xlink:href="#g1005"
       transform="translate(2140.2646,1049.9206)"
       id="use1053" /><use
       x="0"
       y="0"
       inkscape:tiled-clone-of="#g1005"
       xlink:href="#g1005"
       transform="translate(2252.9102,1399.8941)"
       id="use1055" /></g></svg>
